<svg width="100" height="100" viewBox="0 0 100 100" fill="none" xmlns="http://www.w3.org/2000/svg">
<g clip-path="url(#clip0_2241_56)">
<path d="M50 100C77.6142 100 100 77.6142 100 50C100 22.3858 77.6142 0 50 0C22.3858 0 0 22.3858 0 50C0 77.6142 22.3858 100 50 100Z" fill="#D80027"/>
<path d="M27.3654 30.4348L31.6822 43.7206H45.6518L34.3502 51.9315L38.667 65.2174L27.3654 57.0063L16.0639 65.2174L20.3807 51.9315L9.0791 43.7206H23.0484L27.3654 30.4348Z" fill="#FFDA44"/>
<path d="M54.573 74.6227L50.335 71.5436L46.0971 74.6225L47.7154 69.6406L43.4775 66.5613H48.7164L50.335 61.5791L51.9539 66.5613H57.1924L52.9545 69.6404L54.573 74.6227Z" fill="#FFDA44"/>
<path d="M65.6299 59.4053H60.3914L58.7725 64.3871L57.1537 59.4055L51.915 59.4053L56.1535 56.3258L54.5342 51.3439L58.7727 54.4228L63.0109 51.3438L61.3918 56.3258L65.6299 59.4053Z" fill="#FFDA44"/>
<path d="M65.6297 40.5955L61.3916 43.6748L63.0105 48.6564L58.7725 45.5777L54.534 48.6568L56.1533 43.6744L51.915 40.5957L57.1537 40.5951L58.7725 35.613L60.3912 40.5951L65.6297 40.5955Z" fill="#FFDA44"/>
<path d="M54.5736 25.3776L52.9553 30.3601L57.193 33.4388L51.9549 33.439L50.3357 38.4216L48.717 33.4388L43.4785 33.4392L47.7166 30.3597L46.0977 25.3774L50.3355 28.4569L54.5736 25.3776Z" fill="#FFDA44"/>
</g>
<defs>
<clipPath id="clip0_2241_56">
<rect width="100" height="100" fill="white"/>
</clipPath>
</defs>
</svg>
