<svg width="100" height="100" viewBox="0 0 100 100" fill="none" xmlns="http://www.w3.org/2000/svg">
<g clip-path="url(#clip0_2241_12)">
<path d="M49.999 0V100C77.6143 100 99.9998 77.6143 99.9998 50.0007C99.9998 22.3849 77.614 0 49.999 0Z" fill="#214391"/>
<path d="M49.9993 0C22.3857 0 0 22.3849 0 50.0007C0 77.6143 22.3857 100 49.9993 100C77.6143 100 77.6143 0 49.9993 0Z" fill="#2B479D"/>
<path d="M49.9143 8.67163L51.1339 12.4248H55.0813L51.888 14.7443L53.1076 18.4975L49.9143 16.1765L46.7216 18.4975L47.9414 14.7443L44.7471 12.4248H48.6945L49.9143 8.67163Z" fill="#F8D12E"/>
<path d="M49.9143 79.5242L51.1339 83.279H55.0813L51.888 85.5986L53.1076 89.3515L49.9143 87.0322L46.7216 89.3515L47.9414 85.5986L44.7471 83.279H48.6945L49.9143 79.5242Z" fill="#F8D12E"/>
<path d="M69.3598 14.9512L70.5787 18.7052H74.5261L71.3326 21.0262L72.5524 24.7794L69.3598 22.4584L66.1664 24.7794L67.386 21.0262L64.1934 18.7052H68.1408L69.3598 14.9512Z" fill="#F8D12E"/>
<path d="M82.6262 28.0408L83.8452 31.794H87.7926L84.5991 34.1143L85.8189 37.8675L82.6262 35.548L79.4327 37.8675L80.6525 34.1143L77.459 31.794H81.4056L82.6262 28.0408Z" fill="#F8D12E"/>
<path d="M82.9426 61.1121L84.1616 64.8667H88.1088L84.9155 67.1862L86.1359 70.9386L82.9426 68.6199L79.7491 70.9386L80.9689 67.1862L77.7754 64.8667H81.7228L82.9426 61.1121Z" fill="#F8D12E"/>
<path d="M17.682 28.0408L18.901 31.794H22.8476L19.6549 34.1143L20.8739 37.8675L17.682 35.548L14.4887 37.8675L15.7083 34.1143L12.5156 31.794H16.463L17.682 28.0408Z" fill="#F8D12E"/>
<path d="M85.7012 43.813L86.9202 47.5662H90.8676L87.6743 49.8857L88.8939 53.6397L85.7012 51.3211L82.5079 53.6397L83.7283 49.8857L80.5342 47.5662H84.4808L85.7012 43.813Z" fill="#F8D12E"/>
<path d="M14.666 43.813L15.885 47.5662H19.8316L16.6383 49.8857L17.8587 53.6397L14.666 51.3211L11.4725 53.6397L12.6923 49.8857L9.49902 47.5662H13.4462L14.666 43.813Z" fill="#F8D12E"/>
<path d="M17.2539 61.1121L18.4729 64.8667H22.4195L19.227 67.1862L20.4458 70.9386L17.2539 68.6199L14.0606 70.9386L15.2802 67.1862L12.0869 64.8667H16.0343L17.2539 61.1121Z" fill="#F8D12E"/>
<path d="M69.9317 74.7598L71.1506 78.513H75.0981L71.9039 80.8339L73.1244 84.5871L69.9317 82.2676L66.7375 84.5871L67.9582 80.8339L64.7646 78.513H68.7121L69.9317 74.7598Z" fill="#F8D12E"/>
<path d="M31.098 14.9512L32.3168 18.7052H36.2642L33.0709 21.0262L34.2913 24.7794L31.098 22.4584L27.9053 24.7794L29.125 21.0262L25.9316 18.7052H29.8782L31.098 14.9512Z" fill="#F8D12E"/>
<path d="M29.6586 74.5198L30.8782 78.2747H34.8256L31.6323 80.5933L32.8519 84.3465L29.6586 82.0285L26.4659 84.3465L27.6855 80.5933L24.4922 78.2747H28.4388L29.6586 74.5198Z" fill="#F8D12E"/>
</g>
<defs>
<clipPath id="clip0_2241_12">
<rect width="100" height="100" fill="white"/>
</clipPath>
</defs>
</svg>
