<svg width="100" height="100" viewBox="0 0 100 100" fill="none" xmlns="http://www.w3.org/2000/svg">
<path d="M2.92969 50.4492C2.92969 56.6626 4.15351 62.8152 6.53129 68.5557C8.90906 74.2961 12.3942 79.512 16.7878 83.9056C21.1813 88.2991 26.3972 91.7843 32.1377 94.1621C37.8781 96.5399 44.0307 97.7637 50.2441 97.7637C56.4576 97.7637 62.6101 96.5399 68.3506 94.1621C74.091 91.7843 79.307 88.2991 83.7005 83.9056C88.0941 79.512 91.5792 74.2961 93.957 68.5557C96.3348 62.8152 97.5586 56.6626 97.5586 50.4492C97.5586 44.2358 96.3348 38.0832 93.957 32.3428C91.5792 26.6023 88.0941 21.3864 83.7005 16.9928C79.307 12.5993 74.091 9.11414 68.3506 6.73636C62.6101 4.35859 56.4576 3.13477 50.2441 3.13477C44.0307 3.13477 37.8781 4.35859 32.1377 6.73636C26.3972 9.11414 21.1813 12.5993 16.7878 16.9928C12.3942 21.3864 8.90906 26.6023 6.53129 32.3428C4.15351 38.0832 2.92969 44.2358 2.92969 50.4492Z" fill="#44C0C6"/>
<path d="M50.2441 98.7305C43.7305 98.7305 37.4023 97.4512 31.4453 94.9316C25.6934 92.5 20.5273 89.0137 16.0938 84.5801C11.6602 80.1465 8.17383 74.9805 5.74219 69.2285C3.22266 63.2715 1.94336 56.9531 1.94336 50.4297C1.94336 43.9063 3.22266 37.5879 5.74219 31.6309C8.17383 25.8789 11.6602 20.7129 16.0938 16.2793C20.5273 11.8457 25.6934 8.35938 31.4453 5.92773C37.4023 3.4082 43.7207 2.12891 50.2441 2.12891C56.7676 2.12891 63.0859 3.4375 69.043 5.95703C74.7949 8.38867 79.9609 11.875 84.3945 16.3086C88.8281 20.7422 92.3145 25.9082 94.7461 31.6602C97.2656 37.6172 98.5449 43.9356 98.5449 50.459C98.5449 56.9824 97.2656 63.3008 94.7461 69.2578C92.3145 75.0098 88.8281 80.1758 84.3945 84.6094C79.9609 89.043 74.7949 92.5293 69.043 94.9609C63.0859 97.4609 56.7676 98.7305 50.2441 98.7305ZM50.2441 4.11133C43.9844 4.11133 37.9199 5.33203 32.207 7.75391C26.6895 10.0879 21.7383 13.4277 17.4805 17.6855C13.2227 21.9434 9.88281 26.8945 7.54883 32.4121C5.13672 38.125 3.90625 44.1895 3.90625 50.4492C3.90625 56.709 5.12695 62.7734 7.54883 68.4863C9.88281 74.0039 13.2227 78.9551 17.4805 83.2129C21.7383 87.4707 26.6895 90.8105 32.207 93.1445C37.9199 95.5566 43.9844 96.7871 50.2441 96.7871C56.5039 96.7871 62.5684 95.5664 68.2812 93.1445C73.7988 90.8105 78.75 87.4707 83.0078 83.2129C87.2656 78.9551 90.6055 74.0039 92.9395 68.4863C95.3516 62.7734 96.582 56.709 96.582 50.4492C96.582 44.1895 95.3613 38.125 92.9395 32.4121C90.6055 26.8945 87.2656 21.9434 83.0078 17.6855C78.75 13.4277 73.7988 10.0879 68.2812 7.75391C62.5684 5.3418 56.5039 4.11133 50.2441 4.11133Z" fill="black"/>
<path d="M51.5628 3.20312C45.7523 10.0879 40.4886 19.1504 53.0374 19.1504C73.2913 19.1504 68.0179 34.0723 45.3421 35.1367C22.6566 36.2012 29.053 52.1973 41.846 53.7891C49.7171 54.7754 52.5296 58.7793 53.5452 62.5879V62.7344C53.5452 64.8242 53.7503 66.8164 54.1116 68.6621V68.7012C54.1116 68.9355 54.1605 69.1504 54.2484 69.3359C55.6351 75.6348 58.9261 76.875 62.7738 76.875C67.8714 76.875 71.2894 66.2402 71.9046 60.3906C72.8519 51.5234 81.8558 51.582 81.2894 40.4492C81.1234 37.2363 89.5218 37.1191 95.762 37.6172C90.2835 18.1445 72.6566 3.7793 51.5628 3.20312Z" fill="#60C13D"/>
<path d="M62.764 77.8711C59.2093 77.8711 54.932 76.9336 53.3011 69.6582C53.1937 69.3848 53.1351 69.0821 53.1254 68.7696C52.7543 66.7969 52.559 64.7754 52.559 62.7442V62.7149C51.2894 58.125 47.7347 55.5176 41.7191 54.7657C38.3109 54.336 35.1371 52.92 32.7933 50.7715C30.4691 48.6426 29.1996 45.9864 29.2972 43.4766C29.3656 41.7188 30.1175 39.1993 33.3402 37.168C36.1136 35.42 40.1371 34.4141 45.2933 34.17C52.764 33.8184 57.4027 32.0313 59.9808 30.586C62.9691 28.9161 64.7269 26.8164 64.6781 24.9805C64.6293 22.7442 61.5433 20.1368 53.0375 20.1368C48.6039 20.1368 45.8402 19.0039 44.805 16.7774C43.9945 15.0293 44.3168 12.6856 45.7718 9.82426C46.8461 7.71488 48.5453 5.27347 50.8207 2.57816C51.016 2.35355 51.2992 2.2266 51.5922 2.23636C56.8656 2.38285 62.0316 3.36918 66.9437 5.17582C71.6996 6.92386 76.1332 9.4141 80.1273 12.5684C84.0824 15.6934 87.5101 19.3946 90.3226 23.5743C93.1742 27.8223 95.3226 32.461 96.6996 37.3731C96.7875 37.6758 96.7191 38.0078 96.514 38.2618C96.309 38.5059 95.9965 38.6426 95.684 38.6133C88.8968 38.0664 83.8578 38.5352 82.5199 39.834C82.2757 40.0684 82.2562 40.2637 82.2562 40.42C82.5882 46.9629 79.7172 50.0098 77.1781 52.6953C75.1664 54.834 73.2621 56.8457 72.8715 60.5078C72.5101 63.916 71.3382 68.125 69.8929 71.25C67.891 75.586 65.43 77.8711 62.764 77.8711ZM52.0023 4.18949C47.4906 9.60941 45.5668 13.7793 46.5726 15.9473C47.432 17.7832 50.557 18.1739 53.0375 18.1739C57.2367 18.1739 60.5765 18.7891 62.9593 20C65.2738 21.1817 66.5824 22.9297 66.6215 24.9317C66.68 27.5489 64.6097 30.2344 60.9281 32.2852C58.1644 33.8282 53.2328 35.7422 45.3812 36.1133C36.6898 36.5235 31.4066 39.2969 31.2406 43.545C31.1625 45.4785 32.2074 47.5879 34.1019 49.3262C36.1527 51.211 38.9457 52.4512 41.9535 52.8223C48.809 53.6817 53.0277 56.8848 54.473 62.3438C54.4925 62.4219 54.5023 62.5098 54.5023 62.5977V62.7442C54.5023 64.6778 54.6879 66.6114 55.0492 68.4864C55.059 68.545 55.0687 68.6133 55.0687 68.6719V68.711C55.0687 68.7989 55.0883 68.877 55.1175 68.9453C55.1468 69.0039 55.1664 69.0723 55.1859 69.1407C56.4164 74.7559 59.1117 75.9082 62.764 75.9082C65.2152 75.9082 67.1781 72.4707 68.1254 70.4297C69.7757 66.8555 70.6742 62.7344 70.9281 60.3028C71.3871 55.9864 73.6136 53.6329 75.7523 51.3575C78.2425 48.7207 80.5961 46.2207 80.3031 40.5176C80.264 39.7364 80.557 39.0137 81.1527 38.4375C82.2269 37.4024 84.2972 36.7774 87.5004 36.543C89.8539 36.3672 92.3832 36.4453 94.4144 36.5625C93.0863 32.3438 91.1722 28.3496 88.6918 24.6582C85.9965 20.6446 82.7054 17.0899 78.9066 14.0918C75.0785 11.0645 70.8207 8.68168 66.2504 7.00199C61.6898 5.3223 56.8949 4.37504 52.0023 4.18949Z" fill="black"/>
</svg>
