<svg width="100" height="100" viewBox="0 0 100 100" fill="none" xmlns="http://www.w3.org/2000/svg">
<g clip-path="url(#clip0_2241_4)">
<path d="M50 100C77.6142 100 100 77.6142 100 50C100 22.3858 77.6142 0 50 0C22.3858 0 0 22.3858 0 50C0 77.6142 22.3858 100 50 100Z" fill="#F0F0F0"/>
<path d="M100 49.9999C100 28.5017 86.4316 10.1745 67.3916 3.10986V96.8901C86.4316 89.8253 100 71.4981 100 49.9999Z" fill="#D80027"/>
<path d="M0 49.9999C0 71.4981 13.5687 89.8253 32.6088 96.8899V3.10986C13.5687 10.1745 0 28.5017 0 49.9999Z" fill="#6DA544"/>
</g>
<defs>
<clipPath id="clip0_2241_4">
<rect width="100" height="100" fill="white"/>
</clipPath>
</defs>
</svg>
