<svg width="100" height="100" viewBox="0 0 100 100" fill="none" xmlns="http://www.w3.org/2000/svg">
<g clip-path="url(#clip0_2241_8)">
<path d="M50 100C77.6142 100 100 77.6142 100 50C100 22.3858 77.6142 0 50 0C22.3858 0 0 22.3858 0 50C0 77.6142 22.3858 100 50 100Z" fill="#F0F0F0"/>
<path d="M96.89 67.3913C98.9 61.9747 100 56.1161 100 50.0001C100 43.8841 98.9 38.0255 96.89 32.6089H3.10996C1.1002 38.0255 0 43.8841 0 50.0001C0 56.1161 1.1002 61.9747 3.10996 67.3913L50 71.7392L96.89 67.3913Z" fill="#0052B4"/>
<path d="M50.0004 99.9999C71.4986 99.9999 89.8258 86.4312 96.8904 67.3911H3.11035C10.175 86.4312 28.5021 99.9999 50.0004 99.9999Z" fill="#D80027"/>
</g>
<defs>
<clipPath id="clip0_2241_8">
<rect width="100" height="100" fill="white"/>
</clipPath>
</defs>
</svg>
