<svg width="21" height="17" viewBox="0 0 21 17" fill="none" xmlns="http://www.w3.org/2000/svg">
<path d="M14.4697 16.5303C14.7626 16.8232 15.2374 16.8232 15.5303 16.5303L20.3033 11.7574C20.5962 11.4645 20.5962 10.9896 20.3033 10.6967C20.0104 10.4038 19.5355 10.4038 19.2426 10.6967L15 14.9393L10.7574 10.6967C10.4645 10.4038 9.98959 10.4038 9.6967 10.6967C9.40381 10.9896 9.40381 11.4645 9.6967 11.7574L14.4697 16.5303ZM14.25 2L14.25 16L15.75 16L15.75 2L14.25 2ZM14 0.25L-9.86458e-07 0.250001L-9.20891e-07 1.75L14 1.75L14 0.25ZM15.75 2C15.75 1.0335 14.9665 0.25 14 0.25L14 1.75C14.1381 1.75 14.25 1.86193 14.25 2L15.75 2Z" fill="white"/>
</svg>
