<svg width="21" height="17" viewBox="0 0 21 17" fill="none" xmlns="http://www.w3.org/2000/svg">
<path d="M6.53033 0.469671C6.23744 0.176778 5.76256 0.176778 5.46967 0.469671L0.696699 5.24264C0.403805 5.53554 0.403805 6.01041 0.696699 6.3033C0.989592 6.5962 1.46447 6.5962 1.75736 6.3033L6 2.06066L10.2426 6.3033C10.5355 6.59619 11.0104 6.59619 11.3033 6.3033C11.5962 6.01041 11.5962 5.53553 11.3033 5.24264L6.53033 0.469671ZM6.75 15L6.75 1L5.25 1L5.25 15L6.75 15ZM7 16.75L21 16.75L21 15.25L7 15.25L7 16.75ZM5.25 15C5.25 15.9665 6.0335 16.75 7 16.75L7 15.25C6.86193 15.25 6.75 15.1381 6.75 15L5.25 15Z" fill="white"/>
</svg>
