<svg width="1920" height="1650" viewBox="0 0 1920 1650" fill="none" xmlns="http://www.w3.org/2000/svg">
<path d="M0 20C0 8.95429 8.95431 0 20 0L1900 0C1911.05 0 1920 8.95431 1920 20V1630C1920 1641.05 1911.05 1650 1900 1650H20C8.95434 1650 0 1641.05 0 1630L0 20Z" fill="url(#paint0_linear_3037_85)"/>
<g filter="url(#filter0_d_3037_85)">
<path d="M368.567 711.243C369.33 709.859 370.785 709 372.365 709H522.698C524.278 709 525.733 709.859 526.497 711.243V711.243C526.85 711.885 527.036 712.605 527.036 713.338V728.82C527.036 729.552 526.85 730.273 526.497 730.915V730.915C525.733 732.299 524.278 733.158 522.698 733.158H372.365C370.785 733.158 369.33 732.299 368.567 730.915V730.915C368.213 730.273 368.027 729.552 368.027 728.82V713.338C368.027 712.605 368.213 711.885 368.567 711.243V711.243Z" fill="url(#paint1_linear_3037_85)"/>
<path d="M368.567 918.917C369.33 917.533 370.785 916.674 372.365 916.674H522.698C524.278 916.674 525.733 917.533 526.497 918.917V918.917C526.85 919.558 527.036 920.279 527.036 921.012V936.494C527.036 937.226 526.85 937.947 526.497 938.589V938.589C525.733 939.972 524.278 940.832 522.698 940.832H372.365C370.785 940.832 369.33 939.972 368.567 938.589V938.589C368.213 937.947 368.027 937.226 368.027 936.494V921.012C368.027 920.279 368.213 919.558 368.567 918.917V918.917Z" fill="url(#paint2_linear_3037_85)"/>
<path d="M368.567 815.08C369.33 813.696 370.785 812.837 372.365 812.837H522.698C524.278 812.837 525.733 813.696 526.497 815.08V815.08C526.85 815.721 527.036 816.442 527.036 817.175V832.657C527.036 833.389 526.85 834.11 526.497 834.752V834.752C525.733 836.135 524.278 836.995 522.698 836.995H372.365C370.785 836.995 369.33 836.135 368.567 834.752V834.752C368.213 834.11 368.027 833.389 368.027 832.657V817.175C368.027 816.442 368.213 815.721 368.567 815.08V815.08Z" fill="url(#paint3_linear_3037_85)"/>
</g>
<g filter="url(#filter1_d_3037_85)">
<path fill-rule="evenodd" clip-rule="evenodd" d="M1709.87 846.253C1708.21 846.253 1706.87 847.596 1706.87 849.253V937.341C1706.87 938.998 1708.21 940.341 1709.87 940.341H1730.13C1731.79 940.341 1733.13 938.998 1733.13 937.341V849.253C1733.13 847.596 1731.79 846.253 1730.13 846.253H1709.87ZM1730.13 804.073C1731.79 804.073 1733.13 802.73 1733.13 801.073V737.116C1733.13 735.459 1734.47 734.116 1736.13 734.116H1811C1812.66 734.116 1814 732.773 1814 731.116V712.341C1814 710.684 1812.66 709.341 1811 709.341H1629C1627.34 709.341 1626 710.684 1626 712.341V731.116C1626 732.773 1627.34 734.116 1629 734.116H1703.87C1705.53 734.116 1706.87 735.459 1706.87 737.116V801.073C1706.87 802.73 1708.21 804.073 1709.87 804.073H1730.13Z" fill="url(#paint4_linear_3037_85)"/>
</g>
<g filter="url(#filter2_d_3037_85)">
<path fill-rule="evenodd" clip-rule="evenodd" d="M1454.83 940.341C1435.99 940.341 1419.22 936.204 1404.52 927.929C1390.05 919.424 1378.67 907.587 1370.4 892.417C1363.6 879.93 1359.59 865.729 1358.39 849.815C1358.26 848.103 1359.63 846.662 1361.35 846.662H1381.16C1382.75 846.662 1384.07 847.915 1384.19 849.509C1385.19 862.92 1388.41 874.12 1393.84 883.108C1400.73 894.141 1409.57 902.301 1420.37 907.587C1431.4 912.644 1442.88 915.172 1454.83 915.172C1467 915.172 1478.49 912.644 1489.29 907.587C1500.08 902.301 1508.93 894.141 1515.82 883.108C1521.43 874.119 1524.76 862.917 1525.8 849.503C1525.92 847.912 1527.24 846.662 1528.83 846.662H1548.65C1550.36 846.662 1551.74 848.105 1551.6 849.819C1550.39 865.531 1546.39 879.615 1539.6 892.072C1531.33 907.242 1519.84 919.079 1505.14 927.584C1490.66 936.089 1473.89 940.341 1454.83 940.341ZM1549 804.356C1550.66 804.356 1552 803.013 1552 801.356V712.341C1552 710.684 1550.66 709.341 1549 709.341H1529.16C1527.5 709.341 1526.16 710.684 1526.16 712.341V801.356C1526.16 803.013 1527.5 804.356 1529.16 804.356H1549ZM1383.84 801.356C1383.84 803.013 1382.5 804.356 1380.84 804.356H1361C1359.34 804.356 1358 803.013 1358 801.356V712.341C1358 710.684 1359.34 709.341 1361 709.341H1380.84C1382.5 709.341 1383.84 710.684 1383.84 712.341V801.356Z" fill="url(#paint5_linear_3037_85)"/>
</g>
<g filter="url(#filter3_d_3037_85)">
<path fill-rule="evenodd" clip-rule="evenodd" d="M1170 940.341C1152.95 940.341 1137.39 937.388 1123.3 931.482C1109.2 925.577 1097.05 917.286 1086.82 906.611C1076.82 895.935 1069.09 883.67 1063.64 869.814C1061.18 863.469 1059.27 856.939 1057.92 850.224C1057.56 848.402 1058.97 846.728 1060.83 846.728H1080.74C1082.16 846.728 1083.38 847.73 1083.7 849.117C1085.47 856.72 1088.09 863.96 1091.59 870.836C1098.86 884.465 1109.2 895.367 1122.61 903.544C1136.02 911.494 1151.82 915.469 1170 915.469C1188.41 915.469 1204.2 911.494 1217.39 903.544C1230.8 895.367 1241.02 884.465 1248.07 870.836C1251.68 863.954 1254.4 856.708 1256.21 849.098C1256.54 847.72 1257.76 846.728 1259.18 846.728H1279.17C1281.03 846.728 1282.44 848.402 1282.08 850.224C1280.73 856.939 1278.82 863.469 1276.36 869.814C1270.91 883.67 1263.07 895.935 1252.84 906.611C1242.84 917.286 1230.8 925.577 1216.7 931.482C1202.61 937.388 1187.05 940.341 1170 940.341ZM1279.49 804.455C1281.34 804.455 1282.75 802.81 1282.41 800.999C1281.04 793.684 1279.03 786.64 1276.36 779.867C1270.91 766.012 1263.07 753.746 1252.84 743.071C1242.84 732.395 1230.8 724.105 1216.7 718.199C1202.61 712.294 1187.05 709.341 1170 709.341C1152.95 709.341 1137.39 712.294 1123.3 718.199C1109.2 724.105 1097.05 732.395 1086.82 743.071C1076.82 753.746 1069.09 766.012 1063.64 779.867C1060.97 786.64 1058.96 793.684 1057.59 800.999C1057.25 802.81 1058.66 804.455 1060.51 804.455H1080.36C1081.81 804.455 1083.04 803.426 1083.34 802.014C1085.1 793.81 1087.85 786.087 1091.59 778.845C1098.86 765.217 1109.2 754.428 1122.61 746.478C1136.02 738.301 1151.82 734.213 1170 734.213C1188.41 734.213 1204.2 738.301 1217.39 746.478C1230.8 754.428 1241.02 765.217 1248.07 778.845C1251.94 786.092 1254.77 793.821 1256.59 802.032C1256.9 803.435 1258.13 804.455 1259.56 804.455H1279.49Z" fill="url(#paint6_linear_3037_85)"/>
</g>
<g filter="url(#filter4_d_3037_85)">
<path fill-rule="evenodd" clip-rule="evenodd" d="M605 846.253C603.343 846.253 602 847.596 602 849.253V937.341C602 938.998 603.343 940.341 605 940.341H752C753.657 940.341 755 938.998 755 937.341V918.217C755 916.56 753.657 915.217 752 915.217H631.319C629.662 915.217 628.319 913.874 628.319 912.217V849.253C628.319 847.596 626.976 846.253 625.319 846.253H605ZM625.319 804.073C626.976 804.073 628.319 802.73 628.319 801.073V712.341C628.319 710.684 626.976 709.341 625.319 709.341H605C603.343 709.341 602 710.684 602 712.341V801.073C602 802.73 603.343 804.073 605 804.073H625.319Z" fill="url(#paint7_linear_3037_85)" shape-rendering="crispEdges"/>
</g>
<g filter="url(#filter5_d_3037_85)">
<path fill-rule="evenodd" clip-rule="evenodd" d="M833 846.253C831.343 846.253 830 847.596 830 849.253V937.341C830 938.998 831.343 940.341 833 940.341H979C980.657 940.341 982 938.998 982 937.341V918.217C982 916.56 980.657 915.217 979 915.217H859.147C857.49 915.217 856.147 913.874 856.147 912.217V849.253C856.147 847.596 854.804 846.253 853.147 846.253H833ZM853.147 804.073C854.804 804.073 856.147 802.73 856.147 801.073V712.341C856.147 710.684 854.804 709.341 853.147 709.341H833C831.343 709.341 830 710.684 830 712.341V801.073C830 802.73 831.343 804.073 833 804.073H853.147Z" fill="url(#paint8_linear_3037_85)"/>
</g>
<g filter="url(#filter6_d_3037_85)">
<path fill-rule="evenodd" clip-rule="evenodd" d="M149.338 931.008C157.489 934.464 167.093 936.906 178.148 938.333C179.918 938.561 181.467 937.168 181.467 935.384V916.266C181.467 914.809 180.42 913.567 178.991 913.285C175.736 912.642 172.562 911.872 169.471 910.975C158.779 907.806 150.134 902.939 143.536 896.374C137.517 890.178 133.959 882.286 132.864 872.697C132.684 871.124 131.383 869.89 129.799 869.89H109.266C107.509 869.89 106.123 871.395 106.336 873.14C107.808 885.199 111.677 896.113 117.943 905.882C124.996 916.52 135.46 924.896 149.338 931.008ZM250.686 905.882C242.607 910.639 232.436 913.673 220.174 914.982C218.623 915.148 217.427 916.443 217.427 918.003V936.109C217.427 937.854 218.912 939.233 220.649 939.069C240.452 937.199 256.606 931.909 269.113 923.198C285.038 911.88 293 895.808 293 874.983C293 863.666 290.157 854.384 284.469 847.141C279.009 839.898 271.615 834.012 262.288 829.485C253.188 824.731 243.065 820.883 231.918 817.94C228.35 816.905 224.771 815.906 221.179 814.943C219.282 814.435 217.427 815.869 217.427 817.833V836.606C217.427 837.968 218.345 839.157 219.659 839.515C225.654 841.147 231.332 842.897 236.695 844.764C246.022 847.933 253.416 852.007 258.876 856.988C264.564 861.741 267.407 868.08 267.407 876.002C267.407 889.131 261.834 899.091 250.686 905.882ZM168.106 801.303C171.686 802.433 175.401 803.529 179.249 804.592C180.557 804.953 181.467 806.139 181.467 807.496V825.978C181.467 827.942 179.612 829.376 177.712 828.878C176.332 828.516 174.95 828.152 173.566 827.787C162.646 824.844 152.522 821.109 143.195 816.582C134.095 812.055 126.702 806.283 121.015 799.266C115.555 792.022 112.825 782.855 112.825 771.763C112.825 753.428 119.877 738.488 133.982 726.943C144.78 718.245 159.517 712.824 178.193 710.68C179.947 710.478 181.467 711.865 181.467 713.631V731.528C181.467 733.057 180.317 734.336 178.802 734.543C174.308 735.158 170.287 736.021 166.741 737.13C158.779 739.62 152.636 742.902 148.314 746.976C144.219 750.824 141.375 754.899 139.783 759.2C138.418 763.501 137.735 767.575 137.735 771.423C137.735 778.893 140.465 785.005 145.925 789.758C151.613 794.286 159.006 798.134 168.106 801.303ZM220.782 711.189C219.002 710.926 217.427 712.324 217.427 714.124V732.274C217.427 733.746 218.497 734.995 219.942 735.271C229.857 737.169 237.83 740.505 243.861 745.279C253.086 752.371 258.64 761.002 260.522 771.17C260.799 772.663 262.065 773.8 263.583 773.8H284.013C285.74 773.8 287.118 772.343 286.928 770.626C285.805 760.508 282.255 751.04 276.279 742.223C269.909 732.489 260.241 724.68 247.274 718.794C239.659 715.205 230.829 712.67 220.782 711.189Z" fill="url(#paint9_linear_3037_85)"/>
</g>
<defs>
<filter id="filter0_d_3037_85" x="359.027" y="709" width="168.008" height="245.832" filterUnits="userSpaceOnUse" color-interpolation-filters="sRGB">
<feFlood flood-opacity="0" result="BackgroundImageFix"/>
<feColorMatrix in="SourceAlpha" type="matrix" values="0 0 0 0 0 0 0 0 0 0 0 0 0 0 0 0 0 0 127 0" result="hardAlpha"/>
<feOffset dx="-5" dy="10"/>
<feGaussianBlur stdDeviation="2"/>
<feComposite in2="hardAlpha" operator="out"/>
<feColorMatrix type="matrix" values="0 0 0 0 0 0 0 0 0 0 0 0 0 0 0 0 0 0 0.25 0"/>
<feBlend mode="normal" in2="BackgroundImageFix" result="effect1_dropShadow_3037_85"/>
<feBlend mode="normal" in="SourceGraphic" in2="effect1_dropShadow_3037_85" result="shape"/>
</filter>
<filter id="filter1_d_3037_85" x="1617" y="709.341" width="197" height="245" filterUnits="userSpaceOnUse" color-interpolation-filters="sRGB">
<feFlood flood-opacity="0" result="BackgroundImageFix"/>
<feColorMatrix in="SourceAlpha" type="matrix" values="0 0 0 0 0 0 0 0 0 0 0 0 0 0 0 0 0 0 127 0" result="hardAlpha"/>
<feOffset dx="-5" dy="10"/>
<feGaussianBlur stdDeviation="2"/>
<feComposite in2="hardAlpha" operator="out"/>
<feColorMatrix type="matrix" values="0 0 0 0 0 0 0 0 0 0 0 0 0 0 0 0 0 0 0.25 0"/>
<feBlend mode="normal" in2="BackgroundImageFix" result="effect1_dropShadow_3037_85"/>
<feBlend mode="normal" in="SourceGraphic" in2="effect1_dropShadow_3037_85" result="shape"/>
</filter>
<filter id="filter2_d_3037_85" x="1349" y="709.341" width="203" height="245" filterUnits="userSpaceOnUse" color-interpolation-filters="sRGB">
<feFlood flood-opacity="0" result="BackgroundImageFix"/>
<feColorMatrix in="SourceAlpha" type="matrix" values="0 0 0 0 0 0 0 0 0 0 0 0 0 0 0 0 0 0 127 0" result="hardAlpha"/>
<feOffset dx="-5" dy="10"/>
<feGaussianBlur stdDeviation="2"/>
<feComposite in2="hardAlpha" operator="out"/>
<feColorMatrix type="matrix" values="0 0 0 0 0 0 0 0 0 0 0 0 0 0 0 0 0 0 0.25 0"/>
<feBlend mode="normal" in2="BackgroundImageFix" result="effect1_dropShadow_3037_85"/>
<feBlend mode="normal" in="SourceGraphic" in2="effect1_dropShadow_3037_85" result="shape"/>
</filter>
<filter id="filter3_d_3037_85" x="1048.54" y="709.341" width="233.914" height="245" filterUnits="userSpaceOnUse" color-interpolation-filters="sRGB">
<feFlood flood-opacity="0" result="BackgroundImageFix"/>
<feColorMatrix in="SourceAlpha" type="matrix" values="0 0 0 0 0 0 0 0 0 0 0 0 0 0 0 0 0 0 127 0" result="hardAlpha"/>
<feOffset dx="-5" dy="10"/>
<feGaussianBlur stdDeviation="2"/>
<feComposite in2="hardAlpha" operator="out"/>
<feColorMatrix type="matrix" values="0 0 0 0 0 0 0 0 0 0 0 0 0 0 0 0 0 0 0.25 0"/>
<feBlend mode="normal" in2="BackgroundImageFix" result="effect1_dropShadow_3037_85"/>
<feBlend mode="normal" in="SourceGraphic" in2="effect1_dropShadow_3037_85" result="shape"/>
</filter>
<filter id="filter4_d_3037_85" x="593" y="709.341" width="162" height="245" filterUnits="userSpaceOnUse" color-interpolation-filters="sRGB">
<feFlood flood-opacity="0" result="BackgroundImageFix"/>
<feColorMatrix in="SourceAlpha" type="matrix" values="0 0 0 0 0 0 0 0 0 0 0 0 0 0 0 0 0 0 127 0" result="hardAlpha"/>
<feOffset dx="-5" dy="10"/>
<feGaussianBlur stdDeviation="2"/>
<feComposite in2="hardAlpha" operator="out"/>
<feColorMatrix type="matrix" values="0 0 0 0 0 0 0 0 0 0 0 0 0 0 0 0 0 0 0.25 0"/>
<feBlend mode="normal" in2="BackgroundImageFix" result="effect1_dropShadow_3037_85"/>
<feBlend mode="normal" in="SourceGraphic" in2="effect1_dropShadow_3037_85" result="shape"/>
</filter>
<filter id="filter5_d_3037_85" x="821" y="709.341" width="161" height="245" filterUnits="userSpaceOnUse" color-interpolation-filters="sRGB">
<feFlood flood-opacity="0" result="BackgroundImageFix"/>
<feColorMatrix in="SourceAlpha" type="matrix" values="0 0 0 0 0 0 0 0 0 0 0 0 0 0 0 0 0 0 127 0" result="hardAlpha"/>
<feOffset dx="-5" dy="10"/>
<feGaussianBlur stdDeviation="2"/>
<feComposite in2="hardAlpha" operator="out"/>
<feColorMatrix type="matrix" values="0 0 0 0 0 0 0 0 0 0 0 0 0 0 0 0 0 0 0.25 0"/>
<feBlend mode="normal" in2="BackgroundImageFix" result="effect1_dropShadow_3037_85"/>
<feBlend mode="normal" in="SourceGraphic" in2="effect1_dropShadow_3037_85" result="shape"/>
</filter>
<filter id="filter6_d_3037_85" x="97.3145" y="710.66" width="195.686" height="242.422" filterUnits="userSpaceOnUse" color-interpolation-filters="sRGB">
<feFlood flood-opacity="0" result="BackgroundImageFix"/>
<feColorMatrix in="SourceAlpha" type="matrix" values="0 0 0 0 0 0 0 0 0 0 0 0 0 0 0 0 0 0 127 0" result="hardAlpha"/>
<feOffset dx="-5" dy="10"/>
<feGaussianBlur stdDeviation="2"/>
<feComposite in2="hardAlpha" operator="out"/>
<feColorMatrix type="matrix" values="0 0 0 0 0 0 0 0 0 0 0 0 0 0 0 0 0 0 0.25 0"/>
<feBlend mode="normal" in2="BackgroundImageFix" result="effect1_dropShadow_3037_85"/>
<feBlend mode="normal" in="SourceGraphic" in2="effect1_dropShadow_3037_85" result="shape"/>
</filter>
<linearGradient id="paint0_linear_3037_85" x1="957.055" y1="5.25486" x2="957.055" y2="1655.25" gradientUnits="userSpaceOnUse">
<stop stop-color="white"/>
<stop offset="1" stop-color="#BCBCBC"/>
</linearGradient>
<linearGradient id="paint1_linear_3037_85" x1="497.23" y1="722.059" x2="495.45" y2="745.007" gradientUnits="userSpaceOnUse">
<stop stop-color="white"/>
<stop offset="1"/>
</linearGradient>
<linearGradient id="paint2_linear_3037_85" x1="512.303" y1="916.585" x2="508.969" y2="944.468" gradientUnits="userSpaceOnUse">
<stop stop-color="white"/>
<stop offset="1"/>
</linearGradient>
<linearGradient id="paint3_linear_3037_85" x1="501.106" y1="820.544" x2="496.404" y2="847.595" gradientUnits="userSpaceOnUse">
<stop stop-color="white"/>
<stop offset="1"/>
</linearGradient>
<linearGradient id="paint4_linear_3037_85" x1="1720" y1="709.341" x2="1368.07" y2="1161.37" gradientUnits="userSpaceOnUse">
<stop stop-color="white"/>
<stop offset="1"/>
</linearGradient>
<linearGradient id="paint5_linear_3037_85" x1="1497.9" y1="756.288" x2="1403.96" y2="1075.85" gradientUnits="userSpaceOnUse">
<stop stop-color="white"/>
<stop offset="1"/>
</linearGradient>
<linearGradient id="paint6_linear_3037_85" x1="1220.64" y1="726.986" x2="1094.16" y2="993.876" gradientUnits="userSpaceOnUse">
<stop stop-color="white"/>
<stop offset="1"/>
</linearGradient>
<linearGradient id="paint7_linear_3037_85" x1="678.5" y1="709.341" x2="636.166" y2="915.566" gradientUnits="userSpaceOnUse">
<stop offset="0.0586553" stop-color="white"/>
<stop offset="1" stop-opacity="0.63"/>
</linearGradient>
<linearGradient id="paint8_linear_3037_85" x1="887.501" y1="709.341" x2="819.605" y2="1043.85" gradientUnits="userSpaceOnUse">
<stop stop-color="white"/>
<stop offset="1"/>
</linearGradient>
<linearGradient id="paint9_linear_3037_85" x1="242.28" y1="735.217" x2="145.571" y2="914.836" gradientUnits="userSpaceOnUse">
<stop stop-color="white"/>
<stop offset="0.975866"/>
</linearGradient>
</defs>
</svg>
