<svg width="2242" height="1079" viewBox="0 0 2242 1079" fill="none" xmlns="http://www.w3.org/2000/svg">
<path d="M0 20C0 8.9543 8.9543 0 20 0L2222 0C2233.05 0 2242 8.95431 2242 20V1059C2242 1070.05 2233.05 1079 2222 1079H20C8.95431 1079 0 1070.05 0 1059L0 20Z" fill="url(#paint0_linear_2996_36)"/>
<g filter="url(#filter0_d_2996_36)">
<path d="M433.833 407.604C434.719 405.998 436.409 405 438.243 405H612.775C614.61 405 616.299 405.998 617.185 407.604V407.604C617.596 408.349 617.812 409.186 617.812 410.036V428.01C617.812 428.861 617.596 429.698 617.185 430.443V430.443C616.299 432.049 614.61 433.046 612.775 433.046H438.243C436.409 433.046 434.719 432.049 433.833 430.443V430.443C433.423 429.698 433.207 428.861 433.207 428.01V410.036C433.207 409.186 433.423 408.349 433.833 407.604V407.604Z" fill="url(#paint1_linear_2996_36)"/>
<path d="M433.833 648.707C434.719 647.101 436.409 646.104 438.243 646.104H612.775C614.61 646.104 616.299 647.101 617.185 648.707V648.707C617.596 649.452 617.812 650.289 617.812 651.14V669.114C617.812 669.964 617.596 670.801 617.185 671.546V671.546C616.299 673.152 614.61 674.15 612.775 674.15H438.243C436.409 674.15 434.719 673.152 433.833 671.546V671.546C433.423 670.801 433.207 669.964 433.207 669.114V651.14C433.207 650.289 433.423 649.452 433.833 648.707V648.707Z" fill="url(#paint2_linear_2996_36)"/>
<path d="M433.833 528.156C434.719 526.549 436.409 525.552 438.243 525.552H612.775C614.61 525.552 616.299 526.549 617.185 528.156V528.156C617.596 528.901 617.812 529.737 617.812 530.588V548.562C617.812 549.413 617.596 550.249 617.185 550.994V550.994C616.299 552.601 614.61 553.598 612.775 553.598H438.243C436.409 553.598 434.719 552.601 433.833 550.994V550.994C433.423 550.249 433.207 549.413 433.207 548.562V530.588C433.207 529.737 433.423 528.901 433.833 528.156V528.156Z" fill="url(#paint3_linear_2996_36)"/>
</g>
<g filter="url(#filter1_d_2996_36)">
<path fill-rule="evenodd" clip-rule="evenodd" d="M1991.06 564.411C1989.4 564.411 1988.06 565.754 1988.06 567.411V670.96C1988.06 672.616 1989.4 673.96 1991.06 673.96H2015.53C2017.19 673.96 2018.53 672.616 2018.53 670.96V567.411C2018.53 565.754 2017.19 564.411 2015.53 564.411H1991.06ZM2015.53 515.299C2017.19 515.299 2018.53 513.956 2018.53 512.299V436.846C2018.53 435.189 2019.87 433.846 2021.53 433.846H2109.38C2111.04 433.846 2112.38 432.503 2112.38 430.846V408C2112.38 406.343 2111.04 405 2109.38 405H1897.21C1895.55 405 1894.21 406.343 1894.21 408V430.846C1894.21 432.503 1895.55 433.846 1897.21 433.846H1985.06C1986.72 433.846 1988.06 435.189 1988.06 436.846V512.299C1988.06 513.956 1989.4 515.299 1991.06 515.299H2015.53Z" fill="url(#paint4_linear_2996_36)"/>
</g>
<g filter="url(#filter2_d_2996_36)">
<path fill-rule="evenodd" clip-rule="evenodd" d="M1694.68 673.162C1672.8 673.162 1653.32 668.359 1636.24 658.753C1619.43 648.88 1606.22 635.139 1596.62 617.528C1588.64 602.9 1583.97 586.247 1582.62 567.568C1582.5 565.854 1583.87 564.413 1585.58 564.413H1609.57C1611.16 564.413 1612.48 565.667 1612.59 567.26C1613.72 583.032 1617.47 596.186 1623.83 606.722C1631.84 619.53 1642.11 629.002 1654.65 635.139C1667.46 641.01 1680.8 643.944 1694.68 643.944C1708.82 643.944 1722.16 641.01 1734.7 635.139C1747.24 629.002 1757.51 619.53 1765.52 606.722C1772.1 596.185 1775.98 583.029 1777.15 567.255C1777.27 565.664 1778.58 564.413 1780.17 564.413H1804.16C1805.88 564.413 1807.25 565.856 1807.12 567.571C1805.76 586.014 1801.1 602.533 1793.13 617.128C1783.53 634.739 1770.19 648.48 1753.11 658.353C1736.3 668.226 1716.82 673.162 1694.68 673.162ZM1804.54 515.301C1806.2 515.301 1807.54 513.958 1807.54 512.301V408C1807.54 406.343 1806.2 405 1804.54 405H1780.53C1778.87 405 1777.53 406.343 1777.53 408V512.301C1777.53 513.958 1778.87 515.301 1780.53 515.301H1804.54ZM1612.23 512.301C1612.23 513.958 1610.88 515.301 1609.23 515.301H1585.21C1583.55 515.301 1582.21 513.958 1582.21 512.301V408C1582.21 406.343 1583.55 405 1585.21 405H1609.23C1610.88 405 1612.23 406.343 1612.23 408V512.301Z" fill="url(#paint5_linear_2996_36)"/>
</g>
<g filter="url(#filter3_d_2996_36)">
<path fill-rule="evenodd" clip-rule="evenodd" d="M1364.41 673.371C1344.62 673.371 1326.54 669.94 1310.18 663.079C1293.82 656.219 1279.7 646.586 1267.83 634.184C1256.22 621.782 1247.25 607.532 1240.91 591.435C1237.99 583.885 1235.74 576.11 1234.17 568.111C1233.81 566.287 1235.22 564.613 1237.08 564.613H1261.16C1262.58 564.613 1263.81 565.615 1264.12 567.004C1266.17 575.978 1269.25 584.517 1273.37 592.622C1281.81 608.455 1293.82 621.122 1309.39 630.622C1324.96 639.857 1343.3 644.476 1364.41 644.476C1385.78 644.476 1404.12 639.857 1419.43 630.622C1435 621.122 1446.87 608.455 1455.05 592.622C1459.31 584.512 1462.49 575.966 1464.6 566.985C1464.93 565.606 1466.15 564.613 1467.56 564.613H1491.74C1493.6 564.613 1495.01 566.287 1494.65 568.111C1493.08 576.11 1490.83 583.885 1487.91 591.435C1481.58 607.532 1472.47 621.782 1460.6 634.184C1448.99 646.586 1435 656.219 1418.64 663.079C1402.28 669.94 1384.2 673.371 1364.41 673.371ZM1492.11 515.501C1493.95 515.501 1495.36 513.857 1495.03 512.045C1493.45 503.346 1491.07 494.976 1487.91 486.936C1481.58 470.839 1472.47 456.589 1460.6 444.187C1448.99 431.784 1435 422.152 1418.64 415.292C1402.28 408.431 1384.2 405 1364.41 405C1344.62 405 1326.54 408.431 1310.18 415.292C1293.82 422.152 1279.7 431.784 1267.83 444.187C1256.22 456.589 1247.25 470.839 1240.91 486.936C1237.75 494.976 1235.38 503.346 1233.79 512.045C1233.46 513.857 1234.87 515.501 1236.71 515.501H1260.74C1262.18 515.501 1263.41 514.472 1263.71 513.06C1265.74 503.382 1268.96 494.278 1273.37 485.749C1281.81 469.916 1293.82 457.381 1309.39 448.145C1324.96 438.645 1343.3 433.895 1364.41 433.895C1385.78 433.895 1404.12 438.645 1419.43 448.145C1435 457.381 1446.87 469.916 1455.05 485.749C1459.61 494.283 1462.93 503.393 1465.03 513.077C1465.33 514.481 1466.56 515.501 1468 515.501H1492.11Z" fill="url(#paint6_linear_2996_36)"/>
</g>
<g filter="url(#filter4_d_2996_36)">
<path fill-rule="evenodd" clip-rule="evenodd" d="M708.207 564.411C706.55 564.411 705.207 565.754 705.207 567.411V670.96C705.207 672.616 706.55 673.96 708.207 673.96H879.316C880.973 673.96 882.316 672.616 882.316 670.96V647.707C882.316 646.05 880.973 644.707 879.316 644.707H738.673C737.016 644.707 735.673 643.364 735.673 641.707V567.411C735.673 565.754 734.33 564.411 732.673 564.411H708.207ZM732.673 515.299C734.33 515.299 735.673 513.956 735.673 512.299V408C735.673 406.343 734.33 405 732.673 405H708.207C706.55 405 705.207 406.343 705.207 408V512.299C705.207 513.956 706.55 515.299 708.207 515.299H732.673Z" fill="url(#paint7_linear_2996_36)" shape-rendering="crispEdges"/>
</g>
<g filter="url(#filter5_d_2996_36)">
<path fill-rule="evenodd" clip-rule="evenodd" d="M972.207 564.411C970.55 564.411 969.207 565.754 969.207 567.411V670.96C969.207 672.616 970.55 673.96 972.207 673.96H1143.32C1144.97 673.96 1146.32 672.616 1146.32 670.96V647.707C1146.32 646.05 1144.97 644.707 1143.32 644.707H1002.67C1001.02 644.707 999.673 643.364 999.673 641.707V567.411C999.673 565.754 998.33 564.411 996.673 564.411H972.207ZM996.673 515.299C998.33 515.299 999.673 513.956 999.673 512.299V408C999.673 406.343 998.33 405 996.673 405H972.207C970.55 405 969.207 406.343 969.207 408V512.299C969.207 513.956 970.55 515.299 972.207 515.299H996.673Z" fill="url(#paint8_linear_2996_36)"/>
</g>
<g filter="url(#filter6_d_2996_36)">
<path fill-rule="evenodd" clip-rule="evenodd" d="M179.31 663.247C188.904 667.333 200.23 670.202 213.288 671.855C215.059 672.079 216.61 670.686 216.61 668.901V645.642C216.61 644.186 215.564 642.944 214.135 642.665C210.216 641.9 206.398 640.976 202.683 639.893C190.271 636.199 180.235 630.525 172.576 622.873C165.492 615.55 161.345 606.195 160.136 594.808C159.968 593.232 158.665 591.998 157.081 591.998H132.265C130.508 591.998 129.123 593.502 129.326 595.248C130.984 609.519 135.497 622.423 142.865 633.956C151.052 646.358 163.201 656.122 179.31 663.247ZM296.966 633.956C287.489 639.56 275.534 643.112 261.101 644.612C259.55 644.773 258.355 646.069 258.355 647.628V669.729C258.355 671.474 259.842 672.853 261.579 672.693C284.804 670.558 303.73 664.374 318.358 654.143C336.845 640.949 346.088 622.213 346.088 597.936C346.088 584.742 342.787 573.922 336.184 565.478C329.846 557.034 321.262 550.172 310.435 544.895C299.871 539.353 288.119 534.867 275.178 531.437C270.838 530.172 266.482 528.953 262.111 527.781C260.213 527.272 258.355 528.707 258.355 530.672V553.582C258.355 554.943 259.271 556.132 260.584 556.489C267.677 558.419 274.39 560.492 280.724 562.707C291.551 566.401 300.135 571.151 306.473 576.957C313.076 582.498 316.377 589.887 316.377 599.123C316.377 614.429 309.907 626.039 296.966 633.956ZM201.099 512.041C205.366 513.393 209.798 514.705 214.395 515.975C215.701 516.336 216.61 517.522 216.61 518.877V541.446C216.61 543.411 214.752 544.845 212.851 544.345C211.049 543.871 209.244 543.395 207.437 542.916C194.76 539.485 183.008 535.131 172.18 529.853C161.616 524.576 153.033 517.847 146.43 509.666C140.092 501.222 136.923 490.534 136.923 477.604C136.923 456.229 145.11 438.813 161.484 425.355C174.12 415.133 191.403 408.794 213.333 406.335C215.088 406.139 216.61 407.525 216.61 409.291V431.146C216.61 432.675 215.46 433.954 213.945 434.157C208.554 434.877 203.744 435.901 199.514 437.23C190.271 440.132 183.14 443.959 178.122 448.709C173.368 453.195 170.067 457.945 168.218 462.958C166.634 467.972 165.842 472.722 165.842 477.208C165.842 485.916 169.011 493.041 175.349 498.583C181.952 503.861 190.535 508.347 201.099 512.041ZM261.713 406.91C259.931 406.653 258.355 408.05 258.355 409.851V431.995C258.355 433.466 259.423 434.715 260.869 434.986C272.567 437.184 281.958 441.099 289.043 446.729C299.881 455.098 306.355 465.304 308.462 477.346C308.724 478.842 309.993 479.979 311.511 479.979H336.168C337.895 479.979 339.272 478.522 339.095 476.804C337.857 464.811 333.717 453.599 326.677 443.167C319.282 431.82 308.058 422.716 293.004 415.855C284.029 411.607 273.599 408.625 261.713 406.91Z" fill="url(#paint9_linear_2996_36)"/>
</g>
<defs>
<filter id="filter0_d_2996_36" x="424.207" y="405" width="193.605" height="283.15" filterUnits="userSpaceOnUse" color-interpolation-filters="sRGB">
<feFlood flood-opacity="0" result="BackgroundImageFix"/>
<feColorMatrix in="SourceAlpha" type="matrix" values="0 0 0 0 0 0 0 0 0 0 0 0 0 0 0 0 0 0 127 0" result="hardAlpha"/>
<feOffset dx="-5" dy="10"/>
<feGaussianBlur stdDeviation="2"/>
<feComposite in2="hardAlpha" operator="out"/>
<feColorMatrix type="matrix" values="0 0 0 0 0 0 0 0 0 0 0 0 0 0 0 0 0 0 0.25 0"/>
<feBlend mode="normal" in2="BackgroundImageFix" result="effect1_dropShadow_2996_36"/>
<feBlend mode="normal" in="SourceGraphic" in2="effect1_dropShadow_2996_36" result="shape"/>
</filter>
<filter id="filter1_d_2996_36" x="1885.21" y="405" width="227.174" height="282.959" filterUnits="userSpaceOnUse" color-interpolation-filters="sRGB">
<feFlood flood-opacity="0" result="BackgroundImageFix"/>
<feColorMatrix in="SourceAlpha" type="matrix" values="0 0 0 0 0 0 0 0 0 0 0 0 0 0 0 0 0 0 127 0" result="hardAlpha"/>
<feOffset dx="-5" dy="10"/>
<feGaussianBlur stdDeviation="2"/>
<feComposite in2="hardAlpha" operator="out"/>
<feColorMatrix type="matrix" values="0 0 0 0 0 0 0 0 0 0 0 0 0 0 0 0 0 0 0.25 0"/>
<feBlend mode="normal" in2="BackgroundImageFix" result="effect1_dropShadow_2996_36"/>
<feBlend mode="normal" in="SourceGraphic" in2="effect1_dropShadow_2996_36" result="shape"/>
</filter>
<filter id="filter2_d_2996_36" x="1573.21" y="405" width="234.336" height="282.162" filterUnits="userSpaceOnUse" color-interpolation-filters="sRGB">
<feFlood flood-opacity="0" result="BackgroundImageFix"/>
<feColorMatrix in="SourceAlpha" type="matrix" values="0 0 0 0 0 0 0 0 0 0 0 0 0 0 0 0 0 0 127 0" result="hardAlpha"/>
<feOffset dx="-5" dy="10"/>
<feGaussianBlur stdDeviation="2"/>
<feComposite in2="hardAlpha" operator="out"/>
<feColorMatrix type="matrix" values="0 0 0 0 0 0 0 0 0 0 0 0 0 0 0 0 0 0 0.25 0"/>
<feBlend mode="normal" in2="BackgroundImageFix" result="effect1_dropShadow_2996_36"/>
<feBlend mode="normal" in="SourceGraphic" in2="effect1_dropShadow_2996_36" result="shape"/>
</filter>
<filter id="filter3_d_2996_36" x="1224.74" y="405" width="270.332" height="282.371" filterUnits="userSpaceOnUse" color-interpolation-filters="sRGB">
<feFlood flood-opacity="0" result="BackgroundImageFix"/>
<feColorMatrix in="SourceAlpha" type="matrix" values="0 0 0 0 0 0 0 0 0 0 0 0 0 0 0 0 0 0 127 0" result="hardAlpha"/>
<feOffset dx="-5" dy="10"/>
<feGaussianBlur stdDeviation="2"/>
<feComposite in2="hardAlpha" operator="out"/>
<feColorMatrix type="matrix" values="0 0 0 0 0 0 0 0 0 0 0 0 0 0 0 0 0 0 0.25 0"/>
<feBlend mode="normal" in2="BackgroundImageFix" result="effect1_dropShadow_2996_36"/>
<feBlend mode="normal" in="SourceGraphic" in2="effect1_dropShadow_2996_36" result="shape"/>
</filter>
<filter id="filter4_d_2996_36" x="696.207" y="405" width="186.109" height="282.959" filterUnits="userSpaceOnUse" color-interpolation-filters="sRGB">
<feFlood flood-opacity="0" result="BackgroundImageFix"/>
<feColorMatrix in="SourceAlpha" type="matrix" values="0 0 0 0 0 0 0 0 0 0 0 0 0 0 0 0 0 0 127 0" result="hardAlpha"/>
<feOffset dx="-5" dy="10"/>
<feGaussianBlur stdDeviation="2"/>
<feComposite in2="hardAlpha" operator="out"/>
<feColorMatrix type="matrix" values="0 0 0 0 0 0 0 0 0 0 0 0 0 0 0 0 0 0 0.25 0"/>
<feBlend mode="normal" in2="BackgroundImageFix" result="effect1_dropShadow_2996_36"/>
<feBlend mode="normal" in="SourceGraphic" in2="effect1_dropShadow_2996_36" result="shape"/>
</filter>
<filter id="filter5_d_2996_36" x="960.207" y="405" width="186.109" height="282.959" filterUnits="userSpaceOnUse" color-interpolation-filters="sRGB">
<feFlood flood-opacity="0" result="BackgroundImageFix"/>
<feColorMatrix in="SourceAlpha" type="matrix" values="0 0 0 0 0 0 0 0 0 0 0 0 0 0 0 0 0 0 127 0" result="hardAlpha"/>
<feOffset dx="-5" dy="10"/>
<feGaussianBlur stdDeviation="2"/>
<feComposite in2="hardAlpha" operator="out"/>
<feColorMatrix type="matrix" values="0 0 0 0 0 0 0 0 0 0 0 0 0 0 0 0 0 0 0.25 0"/>
<feBlend mode="normal" in2="BackgroundImageFix" result="effect1_dropShadow_2996_36"/>
<feBlend mode="normal" in="SourceGraphic" in2="effect1_dropShadow_2996_36" result="shape"/>
</filter>
<filter id="filter6_d_2996_36" x="120.307" y="406.316" width="225.781" height="280.39" filterUnits="userSpaceOnUse" color-interpolation-filters="sRGB">
<feFlood flood-opacity="0" result="BackgroundImageFix"/>
<feColorMatrix in="SourceAlpha" type="matrix" values="0 0 0 0 0 0 0 0 0 0 0 0 0 0 0 0 0 0 127 0" result="hardAlpha"/>
<feOffset dx="-5" dy="10"/>
<feGaussianBlur stdDeviation="2"/>
<feComposite in2="hardAlpha" operator="out"/>
<feColorMatrix type="matrix" values="0 0 0 0 0 0 0 0 0 0 0 0 0 0 0 0 0 0 0.25 0"/>
<feBlend mode="normal" in2="BackgroundImageFix" result="effect1_dropShadow_2996_36"/>
<feBlend mode="normal" in="SourceGraphic" in2="effect1_dropShadow_2996_36" result="shape"/>
</filter>
<linearGradient id="paint0_linear_2996_36" x1="1117.56" y1="3.43636" x2="1117.56" y2="1082.44" gradientUnits="userSpaceOnUse">
<stop stop-color="white"/>
<stop offset="1" stop-color="#BCBCBC"/>
</linearGradient>
<linearGradient id="paint1_linear_2996_36" x1="583.207" y1="420.162" x2="581.141" y2="446.803" gradientUnits="userSpaceOnUse">
<stop stop-color="white"/>
<stop offset="1"/>
</linearGradient>
<linearGradient id="paint2_linear_2996_36" x1="600.707" y1="646" x2="596.836" y2="678.372" gradientUnits="userSpaceOnUse">
<stop stop-color="white"/>
<stop offset="1"/>
</linearGradient>
<linearGradient id="paint3_linear_2996_36" x1="587.707" y1="534.5" x2="582.249" y2="565.905" gradientUnits="userSpaceOnUse">
<stop stop-color="white"/>
<stop offset="1"/>
</linearGradient>
<linearGradient id="paint4_linear_2996_36" x1="2003.29" y1="405" x2="1593.21" y2="930" gradientUnits="userSpaceOnUse">
<stop stop-color="white"/>
<stop offset="1"/>
</linearGradient>
<linearGradient id="paint5_linear_2996_36" x1="1744.71" y1="459.5" x2="1635.71" y2="830.5" gradientUnits="userSpaceOnUse">
<stop stop-color="white"/>
<stop offset="1"/>
</linearGradient>
<linearGradient id="paint6_linear_2996_36" x1="1423.21" y1="425.5" x2="1276.21" y2="735.5" gradientUnits="userSpaceOnUse">
<stop stop-color="white"/>
<stop offset="1"/>
</linearGradient>
<linearGradient id="paint7_linear_2996_36" x1="793.761" y1="405" x2="744.207" y2="645" gradientUnits="userSpaceOnUse">
<stop offset="0.0586553" stop-color="white"/>
<stop offset="1" stop-opacity="0.63"/>
</linearGradient>
<linearGradient id="paint8_linear_2996_36" x1="1036.21" y1="405" x2="957.207" y2="794.5" gradientUnits="userSpaceOnUse">
<stop stop-color="white"/>
<stop offset="1"/>
</linearGradient>
<linearGradient id="paint9_linear_2996_36" x1="287.207" y1="435" x2="174.207" y2="644" gradientUnits="userSpaceOnUse">
<stop stop-color="white"/>
<stop offset="0.975866"/>
</linearGradient>
</defs>
</svg>
