<svg width="371" height="51" viewBox="0 0 371 51" fill="none" xmlns="http://www.w3.org/2000/svg">
<path d="M56.7591 0.548846C56.9239 0.250019 57.2382 0.0644531 57.5795 0.0644531H90.0463C90.3876 0.0644531 90.7018 0.250019 90.8666 0.548846C90.9431 0.687415 90.9832 0.843087 90.9832 1.00134V4.34485C90.9832 4.5031 90.9431 4.65877 90.8666 4.79734C90.7018 5.09616 90.3876 5.28173 90.0463 5.28173H57.5795C57.2382 5.28173 56.9239 5.09616 56.7591 4.79734C56.6827 4.65877 56.6426 4.5031 56.6426 4.34485V1.00134C56.6426 0.843087 56.6827 0.687415 56.7591 0.548846Z" fill="url(#paint0_linear_3247_880)"/>
<path d="M56.7591 45.3994C56.9239 45.1006 57.2382 44.915 57.5795 44.915H90.0463C90.3876 44.915 90.7018 45.1006 90.8666 45.3994C90.9431 45.538 90.9832 45.6937 90.9832 45.8519V49.1954C90.9832 49.3537 90.9431 49.5094 90.8666 49.6479C90.7018 49.9468 90.3876 50.1323 90.0463 50.1323H57.5795C57.2382 50.1323 56.9239 49.9468 56.7591 49.6479C56.6827 49.5094 56.6426 49.3537 56.6426 49.1954V45.8519C56.6426 45.6937 56.6827 45.538 56.7591 45.3994Z" fill="black"/>
<path d="M56.7591 22.9741C56.9239 22.6753 57.2382 22.4897 57.5795 22.4897H90.0463C90.3875 22.4897 90.7018 22.6753 90.8666 22.9741C90.9431 23.1127 90.9832 23.2684 90.9832 23.4266V26.7701C90.9832 26.9284 90.9431 27.0841 90.8666 27.2226C90.7018 27.5215 90.3876 27.707 90.0463 27.707H57.5795C57.2382 27.707 56.9239 27.5215 56.7591 27.2226C56.6827 27.0841 56.6426 26.9284 56.6426 26.7701V23.4266C56.6426 23.2684 56.6827 23.1127 56.7591 22.9741Z" fill="black"/>
<g clip-path="url(#clip0_3247_880)">
<path fill-rule="evenodd" clip-rule="evenodd" d="M349.826 29.6915C348.261 29.6915 346.992 30.9604 346.992 32.5257V47.2359C346.992 48.8012 348.261 50.0701 349.826 50.0701C351.391 50.0701 352.66 48.8012 352.66 47.2359V32.5257C352.66 30.9604 351.391 29.6915 349.826 29.6915ZM349.826 20.5557C351.391 20.5557 352.66 19.2868 352.66 17.7215V8.40363C352.66 6.74677 354.003 5.40363 355.66 5.40363H367.435C368.917 5.40363 370.118 4.2024 370.118 2.72061C370.118 1.23882 368.917 0.0375977 367.435 0.0375977H332.216C330.734 0.0375977 329.533 1.23882 329.533 2.72061C329.533 4.2024 330.734 5.40363 332.216 5.40363H343.992C345.649 5.40363 346.992 6.74677 346.992 8.40362V17.7215C346.992 19.2868 348.261 20.5557 349.826 20.5557Z" fill="white"/>
</g>
<g clip-path="url(#clip1_3247_880)">
<path fill-rule="evenodd" clip-rule="evenodd" d="M292.189 49.9213C288.119 49.9213 284.496 49.0278 281.319 47.2409C278.192 45.4043 275.735 42.8481 273.948 39.5722C272.804 37.4743 272.026 35.1525 271.614 32.6068C271.36 31.0328 272.646 29.6915 274.241 29.6915C275.724 29.6915 276.921 30.8597 277.167 32.3221C277.507 34.3434 278.122 36.09 279.011 37.5619C280.5 39.9444 282.411 41.7066 284.744 42.8481C287.126 43.9402 289.608 44.4861 292.189 44.4861C294.82 44.4861 297.302 43.9402 299.635 42.8481C301.967 41.7066 303.878 39.9444 305.367 37.5619C306.288 36.0888 306.924 34.3405 307.276 32.3171C307.529 30.8575 308.726 29.6915 310.207 29.6915C311.803 29.6915 313.091 31.0353 312.831 32.6102C312.417 35.1171 311.642 37.4129 310.505 39.4977C308.718 42.7737 306.236 45.3299 303.059 47.1665C299.932 49.0031 296.309 49.9213 292.189 49.9213ZM310.393 20.5556C311.935 20.5556 313.185 19.3056 313.185 17.7636V2.82913C313.185 1.28714 311.935 0.0371094 310.393 0.0371094C308.851 0.0371094 307.601 1.28714 307.601 2.82913V17.7636C307.601 19.3056 308.851 20.5556 310.393 20.5556ZM276.852 17.7636C276.852 19.3056 275.602 20.5556 274.06 20.5556C272.518 20.5556 271.268 19.3056 271.268 17.7636V2.82913C271.268 1.28714 272.518 0.0371094 274.06 0.0371094C275.602 0.0371094 276.852 1.28714 276.852 2.82913V17.7636Z" fill="white"/>
</g>
<path fill-rule="evenodd" clip-rule="evenodd" d="M230.288 49.923C226.606 49.923 223.243 49.2848 220.2 48.0086C217.156 46.7323 214.53 44.9405 212.321 42.6334C210.161 40.3263 208.492 37.6755 207.314 34.681C207.089 34.0998 206.886 33.5113 206.704 32.9158C206.197 31.2584 207.522 29.6916 209.255 29.6916C210.583 29.6916 211.708 30.6324 212.114 31.8962C212.447 32.9315 212.86 33.9334 213.352 34.9019C214.923 37.8472 217.156 40.2035 220.053 41.9707C222.949 43.6887 226.361 44.5478 230.288 44.5478C234.264 44.5478 237.675 43.6887 240.523 41.9707C243.419 40.2035 245.628 37.8472 247.149 34.9019C247.659 33.9312 248.085 32.9269 248.43 31.889C248.848 30.6286 249.974 29.6916 251.302 29.6916C253.044 29.6916 254.377 31.2668 253.866 32.9327C253.686 33.5225 253.484 34.1053 253.261 34.681C252.083 37.6755 250.389 40.3263 248.18 42.6334C246.021 44.9405 243.419 46.7323 240.375 48.0086C237.332 49.2848 233.969 49.923 230.288 49.923ZM251.413 20.5558C253.137 20.5558 254.465 19.0098 253.983 17.3551C253.774 16.6377 253.533 15.9333 253.261 15.242C252.083 12.2476 250.389 9.5968 248.18 7.28965C246.021 4.98249 243.419 3.19075 240.375 1.91445C237.332 0.638151 233.969 0 230.288 0C226.606 0 223.243 0.638151 220.2 1.91445C217.156 3.19075 214.53 4.98249 212.321 7.28965C210.161 9.5968 208.492 12.2476 207.314 15.242C207.04 15.9381 206.798 16.6474 206.588 17.3701C206.109 19.0172 207.431 20.5558 209.146 20.5558C210.491 20.5558 211.624 19.5907 212.017 18.305C212.365 17.1637 212.811 16.0691 213.352 15.0211C214.923 12.0758 217.156 9.74407 220.053 8.02597C222.949 6.25879 226.361 5.37519 230.288 5.37519C234.264 5.37519 237.675 6.25879 240.523 8.02597C243.419 9.74407 245.628 12.0758 247.149 15.0211C247.71 16.0712 248.17 17.1681 248.53 18.3118C248.934 19.5943 250.069 20.5558 251.413 20.5558Z" fill="white"/>
<g clip-path="url(#clip2_3247_880)">
<path fill-rule="evenodd" clip-rule="evenodd" d="M110.009 29.8062C108.444 29.8062 107.176 31.0749 107.176 32.6399V47.0706C107.176 48.7274 108.519 50.0706 110.176 50.0706H137.401C138.904 50.0706 140.122 48.8524 140.122 47.3498C140.122 45.8471 138.904 44.629 137.401 44.629H115.843C114.186 44.629 112.843 43.2858 112.843 41.629V32.6399C112.843 31.0749 111.574 29.8062 110.009 29.8062ZM110.009 20.5561C111.574 20.5561 112.843 19.2875 112.843 17.7225V2.87176C112.843 1.30677 111.574 0.0380859 110.009 0.0380859C108.444 0.0380859 107.176 1.30677 107.176 2.87176V17.7225C107.176 19.2875 108.444 20.5561 110.009 20.5561Z" fill="url(#paint1_linear_3247_880)"/>
</g>
<g clip-path="url(#clip3_3247_880)">
<path fill-rule="evenodd" clip-rule="evenodd" d="M159.363 29.8062C157.798 29.8062 156.529 31.0749 156.529 32.6399V47.0706C156.529 48.7274 157.872 50.0706 159.529 50.0706H186.755C188.257 50.0706 189.476 48.8524 189.476 47.3498C189.476 45.8471 188.257 44.629 186.755 44.629H165.197C163.54 44.629 162.197 43.2858 162.197 41.629V32.6399C162.197 31.0749 160.928 29.8062 159.363 29.8062ZM159.363 20.5561C160.928 20.5561 162.197 19.2875 162.197 17.7225V2.87176C162.197 1.30677 160.928 0.0380859 159.363 0.0380859C157.798 0.0380859 156.529 1.30677 156.529 2.87176V17.7225C156.529 19.2875 157.798 20.5561 159.363 20.5561Z" fill="url(#paint2_linear_3247_880)"/>
</g>
<g clip-path="url(#clip4_3247_880)">
<path fill-rule="evenodd" clip-rule="evenodd" d="M9.50536 48.0085C10.6649 48.5023 11.9605 48.9006 13.3921 49.2033C15.0063 49.5447 16.4439 48.2419 16.4439 46.592C16.4439 45.2464 15.4719 44.1132 14.1747 43.7554C14.0671 43.7257 13.9599 43.6953 13.8532 43.6642C11.5442 42.977 9.67731 41.9215 8.2526 40.498C7.39687 39.6134 6.77155 38.5695 6.37663 37.3662C5.90988 35.9441 4.72843 34.7546 3.23165 34.7546C1.57165 34.7546 0.242618 36.1863 0.657134 37.7937C1.09762 39.5018 1.78714 41.0905 2.7257 42.5597C4.24868 44.8668 6.50855 46.6831 9.50536 48.0085ZM35.3712 46.3149C33.1276 47.8842 30.3404 48.9416 27.0095 49.487C25.5074 49.733 24.2094 48.518 24.2094 46.9958C24.2094 45.6356 25.2565 44.5236 26.5931 44.2714C28.4571 43.9198 30.0567 43.3492 31.3919 42.5597C33.7992 41.087 35.0028 38.9272 35.0028 36.08C35.0028 34.362 34.3887 32.9874 33.1605 31.9566C31.9814 30.8766 30.3847 29.993 28.3705 29.3058C27.6566 29.0562 26.9169 28.8162 26.1512 28.586C25.0121 28.2435 24.2094 27.2094 24.2094 26.02V25.8707C24.2094 24.2285 25.7623 23.0294 27.3388 23.4888C29.7462 24.127 31.9322 24.9614 33.8974 25.9923C35.9116 26.974 37.5083 28.2504 38.6874 29.8212C39.9156 31.392 40.5297 33.4047 40.5297 35.8591C40.5297 40.3752 38.8103 43.8606 35.3712 46.3149ZM16.4439 22.712C16.4439 21.5395 15.6562 20.5179 14.5331 20.1812C14.2032 20.0823 13.8784 19.9822 13.5584 19.8808C11.5933 19.1936 9.99665 18.359 8.76845 17.3773C7.58937 16.3464 6.99984 15.021 6.99984 13.4011C6.99984 12.5666 7.14722 11.683 7.44199 10.7503C7.78589 9.81764 8.39999 8.93404 9.28429 8.09954C10.2177 7.21595 11.5442 6.50416 13.2637 5.96419C13.546 5.87554 13.8422 5.79416 14.1523 5.72006C15.4402 5.41235 16.4439 4.33035 16.4439 3.00625C16.4439 1.47591 15.1233 0.260559 13.621 0.552435C10.5744 1.14438 8.09712 2.21197 6.18923 3.75521C3.1433 6.25872 1.62032 9.49857 1.62032 13.4747C1.62032 15.8801 2.20986 17.8682 3.38893 19.439C4.61714 20.9608 6.21378 22.2126 8.17891 23.1943C10.1932 24.176 12.3794 24.9859 14.7375 25.6241C15.6001 25.8528 16.4439 25.2014 16.4439 24.3089V22.712ZM27.1407 0.766091C25.6019 0.391251 24.2094 1.63672 24.2094 3.22056C24.2094 4.51449 25.1581 5.58792 26.3964 5.9631C27.7936 6.3864 28.9675 6.97583 29.918 7.73138C31.3064 8.80337 32.3097 10.0374 32.928 11.4333C33.5247 12.7808 34.7117 13.9165 36.1854 13.9165C37.862 13.9165 39.2229 12.4848 38.7424 10.8785C38.3455 9.55182 37.7376 8.28188 36.9188 7.06869C35.5431 4.95787 33.4553 3.26432 30.655 1.98802C29.593 1.48541 28.4216 1.0781 27.1407 0.766091Z" fill="black"/>
</g>
<defs>
<linearGradient id="paint0_linear_3247_880" x1="57" y1="3" x2="89" y2="-4.5" gradientUnits="userSpaceOnUse">
<stop/>
<stop offset="1" stop-color="white"/>
</linearGradient>
<linearGradient id="paint1_linear_3247_880" x1="110.5" y1="8" x2="109.5" y2="14.5" gradientUnits="userSpaceOnUse">
<stop stop-color="white"/>
<stop offset="1"/>
</linearGradient>
<linearGradient id="paint2_linear_3247_880" x1="159" y1="19" x2="188" y2="48.5" gradientUnits="userSpaceOnUse">
<stop stop-color="white"/>
<stop offset="0.193584"/>
<stop offset="0.784358"/>
<stop offset="1" stop-color="white"/>
</linearGradient>
<clipPath id="clip0_3247_880">
<rect x="329.42" width="40.812" height="50.0703" rx="3" fill="white"/>
</clipPath>
<clipPath id="clip1_3247_880">
<rect x="271.23" width="42.0665" height="50.0703" rx="3" fill="white"/>
</clipPath>
<clipPath id="clip2_3247_880">
<rect x="107.1" width="33.0596" height="50.0703" rx="3" fill="white"/>
</clipPath>
<clipPath id="clip3_3247_880">
<rect x="156.453" width="33.0596" height="50.0703" rx="3" fill="white"/>
</clipPath>
<clipPath id="clip4_3247_880">
<rect width="40.5306" height="50.0703" fill="white"/>
</clipPath>
</defs>
</svg>
