<svg width="1760" height="376" viewBox="0 0 1760 376" fill="none" xmlns="http://www.w3.org/2000/svg">
<rect x="9" width="1743" height="376" fill="black"/>
<g filter="url(#filter0_d_3258_2843)">
<g filter="url(#filter1_d_3258_2843)">
<path d="M317.868 81.4031C318.589 80.0947 319.965 79.2822 321.459 79.2822H463.61C465.104 79.2822 466.48 80.0947 467.202 81.4031V81.4031C467.537 82.0098 467.712 82.6913 467.712 83.3842V98.0232C467.712 98.7161 467.537 99.3977 467.202 100.004V100.004C466.48 101.313 465.104 102.125 463.61 102.125H321.459C319.965 102.125 318.589 101.313 317.868 100.004V100.004C317.533 99.3977 317.357 98.7161 317.357 98.0232V83.3842C317.357 82.6913 317.533 82.0098 317.868 81.4031V81.4031Z" fill="white"/>
<path d="M317.868 81.4031C318.589 80.0947 319.965 79.2822 321.459 79.2822H463.61C465.104 79.2822 466.48 80.0947 467.202 81.4031V81.4031C467.537 82.0098 467.712 82.6913 467.712 83.3842V98.0232C467.712 98.7161 467.537 99.3977 467.202 100.004V100.004C466.48 101.313 465.104 102.125 463.61 102.125H321.459C319.965 102.125 318.589 101.313 317.868 100.004V100.004C317.533 99.3977 317.357 98.7161 317.357 98.0232V83.3842C317.357 82.6913 317.533 82.0098 317.868 81.4031V81.4031Z" stroke="white"/>
</g>
<g filter="url(#filter2_d_3258_2843)">
<path d="M317.868 277.774C318.589 276.466 319.965 275.653 321.459 275.653H463.61C465.104 275.653 466.48 276.466 467.202 277.774V277.774C467.537 278.381 467.712 279.062 467.712 279.755V294.394C467.712 295.087 467.537 295.769 467.202 296.375V296.375C466.48 297.684 465.104 298.496 463.61 298.496H321.459C319.965 298.496 318.589 297.684 317.868 296.375V296.375C317.533 295.769 317.357 295.087 317.357 294.394V279.755C317.357 279.062 317.533 278.381 317.868 277.774V277.774Z" fill="white"/>
<path d="M317.868 277.774C318.589 276.466 319.965 275.653 321.459 275.653H463.61C465.104 275.653 466.48 276.466 467.202 277.774V277.774C467.537 278.381 467.712 279.062 467.712 279.755V294.394C467.712 295.087 467.537 295.769 467.202 296.375V296.375C466.48 297.684 465.104 298.496 463.61 298.496H321.459C319.965 298.496 318.589 297.684 317.868 296.375V296.375C317.533 295.769 317.357 295.087 317.357 294.394V279.755C317.357 279.062 317.533 278.381 317.868 277.774V277.774Z" stroke="white"/>
</g>
<g filter="url(#filter3_d_3258_2843)">
<path d="M317.868 179.589C318.589 178.28 319.965 177.468 321.459 177.468H463.61C465.104 177.468 466.48 178.28 467.202 179.589V179.589C467.537 180.195 467.712 180.877 467.712 181.57V196.209C467.712 196.902 467.537 197.583 467.202 198.19V198.19C466.48 199.498 465.104 200.311 463.61 200.311H321.459C319.965 200.311 318.589 199.498 317.868 198.19V198.19C317.533 197.583 317.357 196.902 317.357 196.209V181.57C317.357 180.877 317.533 180.195 317.868 179.589V179.589Z" fill="white"/>
<path d="M317.868 179.589C318.589 178.28 319.965 177.468 321.459 177.468H463.61C465.104 177.468 466.48 178.28 467.202 179.589V179.589C467.537 180.195 467.712 180.877 467.712 181.57V196.209C467.712 196.902 467.537 197.583 467.202 198.19V198.19C466.48 199.498 465.104 200.311 463.61 200.311H321.459C319.965 200.311 318.589 199.498 317.868 198.19V198.19C317.533 197.583 317.357 196.902 317.357 196.209V181.57C317.357 180.877 317.533 180.195 317.868 179.589V179.589Z" stroke="white"/>
</g>
<g filter="url(#filter4_d_3258_2843)">
<path fill-rule="evenodd" clip-rule="evenodd" d="M1591.6 209C1589.94 209 1588.6 210.343 1588.6 212V295.224C1588.6 296.881 1589.94 298.224 1591.6 298.224H1610.42C1612.08 298.224 1613.42 296.881 1613.42 295.224V212C1613.42 210.343 1612.08 209 1610.42 209H1591.6ZM1610.42 169C1612.08 169 1613.42 167.657 1613.42 166V105.659C1613.42 104.002 1614.76 102.659 1616.42 102.659H1686.86C1688.51 102.659 1689.86 101.316 1689.86 99.6593V82.165C1689.86 80.5082 1688.51 79.165 1686.86 79.165H1515.16C1513.51 79.165 1512.16 80.5082 1512.16 82.165V99.6593C1512.16 101.316 1513.51 102.659 1515.16 102.659H1585.6C1587.26 102.659 1588.6 104.002 1588.6 105.659V166C1588.6 167.657 1589.94 169 1591.6 169H1610.42Z" fill="white"/>
</g>
<g filter="url(#filter5_d_3258_2843)">
<path fill-rule="evenodd" clip-rule="evenodd" d="M1348.66 297.573C1330.84 297.573 1314.97 293.661 1301.06 285.837C1287.37 277.796 1276.61 266.604 1268.79 252.261C1262.37 240.499 1258.59 227.13 1257.43 212.153C1257.3 210.441 1258.67 209 1260.39 209H1278.81C1280.41 209 1281.72 210.254 1281.84 211.847C1282.8 224.458 1285.84 234.996 1290.96 243.459C1297.48 253.891 1305.84 261.606 1316.06 266.604C1326.49 271.386 1337.36 273.776 1348.66 273.776C1360.17 273.776 1371.04 271.386 1381.25 266.604C1391.47 261.606 1399.84 253.891 1406.36 243.459C1411.65 234.995 1414.79 224.455 1415.79 211.841C1415.91 210.251 1417.22 209 1418.82 209H1437.24C1438.96 209 1440.33 210.443 1440.2 212.157C1439.03 226.943 1435.25 240.202 1428.85 251.935C1421.02 266.278 1410.16 277.47 1396.25 285.511C1382.56 293.552 1366.69 297.573 1348.66 297.573ZM1437.58 169C1439.24 169 1440.58 167.657 1440.58 166V82.1631C1440.58 80.5062 1439.24 79.1631 1437.58 79.1631H1419.14C1417.48 79.1631 1416.14 80.5062 1416.14 82.1631V166C1416.14 167.657 1417.48 169 1419.14 169H1437.58ZM1281.5 166C1281.5 167.657 1280.16 169 1278.5 169H1260.05C1258.4 169 1257.05 167.657 1257.05 166V82.1631C1257.05 80.5062 1258.4 79.1631 1260.05 79.1631H1278.5C1280.16 79.1631 1281.5 80.5062 1281.5 82.1631V166Z" fill="white"/>
</g>
<g filter="url(#filter6_d_3258_2843)">
<path fill-rule="evenodd" clip-rule="evenodd" d="M1077.63 297.58C1061.51 297.58 1046.79 294.785 1033.46 289.198C1020.14 283.61 1008.64 275.765 998.967 265.663C989.511 255.562 982.203 243.956 977.045 230.845C974.743 224.9 972.955 218.783 971.681 212.496C971.312 210.674 972.725 209 974.584 209H993.083C994.507 209 995.729 210.002 996.052 211.389C997.718 218.537 1000.19 225.345 1003.48 231.812C1010.36 244.708 1020.14 255.024 1032.82 262.762C1045.5 270.284 1060.44 274.045 1077.63 274.045C1095.04 274.045 1109.98 270.284 1122.44 262.762C1135.12 255.024 1144.79 244.708 1151.46 231.812C1154.85 225.339 1157.41 218.525 1159.13 211.37C1159.46 209.992 1160.68 209 1162.1 209H1180.68C1182.54 209 1183.95 210.674 1183.58 212.496C1182.31 218.783 1180.52 224.9 1178.22 230.845C1173.06 243.956 1165.64 255.562 1155.97 265.663C1146.51 275.765 1135.12 283.61 1121.8 289.198C1108.47 294.785 1093.75 297.58 1077.63 297.58ZM1180.99 169C1182.83 169 1184.24 167.355 1183.9 165.545C1182.61 158.689 1180.71 152.086 1178.22 145.735C1173.06 132.624 1165.64 121.018 1155.97 110.917C1146.51 100.815 1135.12 92.9702 1121.8 87.3821C1108.47 81.794 1093.75 79 1077.63 79C1061.51 79 1046.79 81.794 1033.46 87.3821C1020.14 92.9702 1008.64 100.815 998.967 110.917C989.511 121.018 982.203 132.624 977.045 145.735C974.546 152.086 972.653 158.689 971.364 165.545C971.024 167.355 972.434 169 974.276 169H992.729C994.172 169 995.406 167.971 995.71 166.56C997.37 158.845 999.96 151.581 1003.48 144.767C1010.36 131.872 1020.14 121.663 1032.82 114.14C1045.5 106.403 1060.44 102.534 1077.63 102.534C1095.04 102.534 1109.98 106.403 1122.44 114.14C1135.12 121.663 1144.79 131.872 1151.46 144.767C1155.09 151.587 1157.77 158.856 1159.48 166.577C1159.79 167.98 1161.02 169 1162.46 169H1180.99Z" fill="white"/>
</g>
<g filter="url(#filter7_d_3258_2843)">
<path fill-rule="evenodd" clip-rule="evenodd" d="M757.686 209.5C756.029 209.5 754.686 210.843 754.686 212.5V295.224C754.686 296.881 756.029 298.224 757.686 298.224H895.935C897.592 298.224 898.935 296.881 898.935 295.224V277.399C898.935 275.742 897.592 274.399 895.935 274.399H782.499C780.842 274.399 779.499 273.056 779.499 271.399V212.5C779.499 210.843 778.156 209.5 776.499 209.5H757.686ZM776.499 169C778.156 169 779.499 167.657 779.499 166V82.165C779.499 80.5082 778.156 79.165 776.499 79.165H757.686C756.029 79.165 754.686 80.5082 754.686 82.165V166C754.686 167.657 756.029 169 757.686 169H776.499Z" fill="white"/>
</g>
<g filter="url(#filter8_d_3258_2843)">
<path fill-rule="evenodd" clip-rule="evenodd" d="M541.605 209.5C539.949 209.5 538.605 210.843 538.605 212.5V295.224C538.605 296.881 539.949 298.224 541.605 298.224H679.855C681.512 298.224 682.855 296.881 682.855 295.224V277.399C682.855 275.742 681.512 274.399 679.855 274.399H566.419C564.762 274.399 563.419 273.056 563.419 271.399V212.5C563.419 210.843 562.076 209.5 560.419 209.5H541.605ZM560.419 169C562.076 169 563.419 167.657 563.419 166V82.165C563.419 80.5082 562.076 79.165 560.419 79.165H541.605C539.949 79.165 538.605 80.5082 538.605 82.165V166C538.605 167.657 539.949 169 541.605 169H560.419Z" fill="white"/>
</g>
<g filter="url(#filter9_d_3258_2843)">
<path fill-rule="evenodd" clip-rule="evenodd" d="M110.976 289.197C118.639 292.461 127.659 294.771 138.036 296.129C139.806 296.36 141.355 294.967 141.355 293.182V275.326C141.355 273.87 140.309 272.629 138.882 272.344C135.85 271.738 132.894 271.016 130.013 270.176C119.903 267.168 111.729 262.546 105.491 256.314C99.8292 250.461 96.471 243.015 95.4167 233.974C95.2332 232.401 93.9325 231.167 92.3483 231.167H73.2652C71.5083 231.167 70.1224 232.672 70.3378 234.415C71.7439 245.801 75.3956 256.109 81.2927 265.341C87.9608 275.442 97.8553 283.394 110.976 289.197ZM224.226 281.782C212.438 290.028 197.222 295.045 178.578 296.835C176.841 297.002 175.355 295.622 175.355 293.877V276.988C175.355 275.429 176.552 274.134 178.102 273.966C189.629 272.714 199.196 269.839 206.803 265.341C217.343 258.893 222.613 249.436 222.613 236.97C222.613 229.448 219.924 223.43 214.546 218.917C209.384 214.188 202.393 210.319 193.574 207.311C188.539 205.55 183.209 203.899 177.585 202.359C176.272 202 175.355 200.811 175.355 199.45V181.94C175.355 179.975 177.213 178.54 179.111 179.052C182.437 179.949 185.753 180.879 189.057 181.842C199.597 184.636 209.169 188.29 217.773 192.803C226.592 197.101 233.583 202.69 238.745 209.567C244.123 216.445 246.811 225.257 246.811 236.003C246.811 255.776 239.283 271.036 224.226 281.782ZM141.355 172.038C141.355 170.683 140.446 169.498 139.141 169.135C135.544 168.136 132.071 167.106 128.722 166.045C120.118 163.036 113.127 159.382 107.75 155.084C102.587 150.57 100.006 144.767 100.006 137.675C100.006 134.021 100.652 130.152 101.942 126.069C103.448 121.985 106.137 118.116 110.008 114.463C114.095 110.594 119.903 107.477 127.431 105.113C130.747 104.072 134.5 103.26 138.692 102.678C140.205 102.467 141.355 101.189 141.355 99.6606V82.9687C141.355 81.2025 139.835 79.8154 138.081 80.02C120.507 82.0704 106.633 87.2109 96.4572 95.4416C83.1211 106.403 76.453 120.588 76.453 137.997C76.453 148.528 79.0341 157.233 84.1965 164.11C89.574 170.773 96.5647 176.254 105.169 180.552C113.988 184.851 123.56 188.397 133.884 191.191C135.123 191.52 136.361 191.847 137.597 192.172C139.498 192.673 141.355 191.238 141.355 189.273V172.038ZM178.713 80.5103C176.932 80.2438 175.355 81.6421 175.355 83.4427V100.376C175.355 101.847 176.425 103.095 177.869 103.375C187.18 105.181 194.674 108.339 200.35 112.851C209.031 119.554 214.274 127.704 216.078 137.301C216.359 138.793 217.625 139.931 219.144 139.931H238.141C239.868 139.931 241.246 138.474 241.052 136.758C239.971 127.211 236.621 118.275 231.001 109.949C224.978 100.707 215.837 93.2923 203.576 87.7043C196.423 84.3187 188.135 81.9207 178.713 80.5103Z" fill="white"/>
</g>
</g>
<defs>
<filter id="filter0_d_3258_2843" x="66.3164" y="78.7822" width="1627.54" height="228.214" filterUnits="userSpaceOnUse" color-interpolation-filters="sRGB">
<feFlood flood-opacity="0" result="BackgroundImageFix"/>
<feColorMatrix in="SourceAlpha" type="matrix" values="0 0 0 0 0 0 0 0 0 0 0 0 0 0 0 0 0 0 127 0" result="hardAlpha"/>
<feOffset dy="4"/>
<feGaussianBlur stdDeviation="2"/>
<feComposite in2="hardAlpha" operator="out"/>
<feColorMatrix type="matrix" values="0 0 0 0 0 0 0 0 0 0 0 0 0 0 0 0 0 0 0.25 0"/>
<feBlend mode="normal" in2="BackgroundImageFix" result="effect1_dropShadow_3258_2843"/>
<feBlend mode="normal" in="SourceGraphic" in2="effect1_dropShadow_3258_2843" result="shape"/>
</filter>
<filter id="filter1_d_3258_2843" x="246.857" y="8.78223" width="291.355" height="163.843" filterUnits="userSpaceOnUse" color-interpolation-filters="sRGB">
<feFlood flood-opacity="0" result="BackgroundImageFix"/>
<feColorMatrix in="SourceAlpha" type="matrix" values="0 0 0 0 0 0 0 0 0 0 0 0 0 0 0 0 0 0 127 0" result="hardAlpha"/>
<feOffset/>
<feGaussianBlur stdDeviation="35"/>
<feComposite in2="hardAlpha" operator="out"/>
<feColorMatrix type="matrix" values="0 0 0 0 1 0 0 0 0 1 0 0 0 0 1 0 0 0 1 0"/>
<feBlend mode="normal" in2="BackgroundImageFix" result="effect1_dropShadow_3258_2843"/>
<feBlend mode="normal" in="SourceGraphic" in2="effect1_dropShadow_3258_2843" result="shape"/>
</filter>
<filter id="filter2_d_3258_2843" x="246.857" y="205.153" width="291.355" height="163.843" filterUnits="userSpaceOnUse" color-interpolation-filters="sRGB">
<feFlood flood-opacity="0" result="BackgroundImageFix"/>
<feColorMatrix in="SourceAlpha" type="matrix" values="0 0 0 0 0 0 0 0 0 0 0 0 0 0 0 0 0 0 127 0" result="hardAlpha"/>
<feOffset/>
<feGaussianBlur stdDeviation="35"/>
<feComposite in2="hardAlpha" operator="out"/>
<feColorMatrix type="matrix" values="0 0 0 0 1 0 0 0 0 1 0 0 0 0 1 0 0 0 1 0"/>
<feBlend mode="normal" in2="BackgroundImageFix" result="effect1_dropShadow_3258_2843"/>
<feBlend mode="normal" in="SourceGraphic" in2="effect1_dropShadow_3258_2843" result="shape"/>
</filter>
<filter id="filter3_d_3258_2843" x="246.857" y="106.968" width="291.355" height="163.843" filterUnits="userSpaceOnUse" color-interpolation-filters="sRGB">
<feFlood flood-opacity="0" result="BackgroundImageFix"/>
<feColorMatrix in="SourceAlpha" type="matrix" values="0 0 0 0 0 0 0 0 0 0 0 0 0 0 0 0 0 0 127 0" result="hardAlpha"/>
<feOffset/>
<feGaussianBlur stdDeviation="35"/>
<feComposite in2="hardAlpha" operator="out"/>
<feColorMatrix type="matrix" values="0 0 0 0 1 0 0 0 0 1 0 0 0 0 1 0 0 0 1 0"/>
<feBlend mode="normal" in2="BackgroundImageFix" result="effect1_dropShadow_3258_2843"/>
<feBlend mode="normal" in="SourceGraphic" in2="effect1_dropShadow_3258_2843" result="shape"/>
</filter>
<filter id="filter4_d_3258_2843" x="1442.16" y="9.16504" width="317.695" height="359.06" filterUnits="userSpaceOnUse" color-interpolation-filters="sRGB">
<feFlood flood-opacity="0" result="BackgroundImageFix"/>
<feColorMatrix in="SourceAlpha" type="matrix" values="0 0 0 0 0 0 0 0 0 0 0 0 0 0 0 0 0 0 127 0" result="hardAlpha"/>
<feOffset/>
<feGaussianBlur stdDeviation="35"/>
<feComposite in2="hardAlpha" operator="out"/>
<feColorMatrix type="matrix" values="0 0 0 0 1 0 0 0 0 1 0 0 0 0 1 0 0 0 1 0"/>
<feBlend mode="normal" in2="BackgroundImageFix" result="effect1_dropShadow_3258_2843"/>
<feBlend mode="normal" in="SourceGraphic" in2="effect1_dropShadow_3258_2843" result="shape"/>
</filter>
<filter id="filter5_d_3258_2843" x="1187.05" y="9.16309" width="323.529" height="358.409" filterUnits="userSpaceOnUse" color-interpolation-filters="sRGB">
<feFlood flood-opacity="0" result="BackgroundImageFix"/>
<feColorMatrix in="SourceAlpha" type="matrix" values="0 0 0 0 0 0 0 0 0 0 0 0 0 0 0 0 0 0 127 0" result="hardAlpha"/>
<feOffset/>
<feGaussianBlur stdDeviation="35"/>
<feComposite in2="hardAlpha" operator="out"/>
<feColorMatrix type="matrix" values="0 0 0 0 1 0 0 0 0 1 0 0 0 0 1 0 0 0 1 0"/>
<feBlend mode="normal" in2="BackgroundImageFix" result="effect1_dropShadow_3258_2843"/>
<feBlend mode="normal" in="SourceGraphic" in2="effect1_dropShadow_3258_2843" result="shape"/>
</filter>
<filter id="filter6_d_3258_2843" x="901.312" y="9" width="352.635" height="358.58" filterUnits="userSpaceOnUse" color-interpolation-filters="sRGB">
<feFlood flood-opacity="0" result="BackgroundImageFix"/>
<feColorMatrix in="SourceAlpha" type="matrix" values="0 0 0 0 0 0 0 0 0 0 0 0 0 0 0 0 0 0 127 0" result="hardAlpha"/>
<feOffset/>
<feGaussianBlur stdDeviation="35"/>
<feComposite in2="hardAlpha" operator="out"/>
<feColorMatrix type="matrix" values="0 0 0 0 1 0 0 0 0 1 0 0 0 0 1 0 0 0 1 0"/>
<feBlend mode="normal" in2="BackgroundImageFix" result="effect1_dropShadow_3258_2843"/>
<feBlend mode="normal" in="SourceGraphic" in2="effect1_dropShadow_3258_2843" result="shape"/>
</filter>
<filter id="filter7_d_3258_2843" x="684.686" y="9.16504" width="284.25" height="359.06" filterUnits="userSpaceOnUse" color-interpolation-filters="sRGB">
<feFlood flood-opacity="0" result="BackgroundImageFix"/>
<feColorMatrix in="SourceAlpha" type="matrix" values="0 0 0 0 0 0 0 0 0 0 0 0 0 0 0 0 0 0 127 0" result="hardAlpha"/>
<feOffset/>
<feGaussianBlur stdDeviation="35"/>
<feComposite in2="hardAlpha" operator="out"/>
<feColorMatrix type="matrix" values="0 0 0 0 1 0 0 0 0 1 0 0 0 0 1 0 0 0 1 0"/>
<feBlend mode="normal" in2="BackgroundImageFix" result="effect1_dropShadow_3258_2843"/>
<feBlend mode="normal" in="SourceGraphic" in2="effect1_dropShadow_3258_2843" result="shape"/>
</filter>
<filter id="filter8_d_3258_2843" x="468.605" y="9.16504" width="284.25" height="359.06" filterUnits="userSpaceOnUse" color-interpolation-filters="sRGB">
<feFlood flood-opacity="0" result="BackgroundImageFix"/>
<feColorMatrix in="SourceAlpha" type="matrix" values="0 0 0 0 0 0 0 0 0 0 0 0 0 0 0 0 0 0 127 0" result="hardAlpha"/>
<feOffset/>
<feGaussianBlur stdDeviation="35"/>
<feComposite in2="hardAlpha" operator="out"/>
<feColorMatrix type="matrix" values="0 0 0 0 1 0 0 0 0 1 0 0 0 0 1 0 0 0 1 0"/>
<feBlend mode="normal" in2="BackgroundImageFix" result="effect1_dropShadow_3258_2843"/>
<feBlend mode="normal" in="SourceGraphic" in2="effect1_dropShadow_3258_2843" result="shape"/>
</filter>
<filter id="filter9_d_3258_2843" x="0.316406" y="10" width="316.494" height="356.849" filterUnits="userSpaceOnUse" color-interpolation-filters="sRGB">
<feFlood flood-opacity="0" result="BackgroundImageFix"/>
<feColorMatrix in="SourceAlpha" type="matrix" values="0 0 0 0 0 0 0 0 0 0 0 0 0 0 0 0 0 0 127 0" result="hardAlpha"/>
<feOffset/>
<feGaussianBlur stdDeviation="35"/>
<feComposite in2="hardAlpha" operator="out"/>
<feColorMatrix type="matrix" values="0 0 0 0 1 0 0 0 0 1 0 0 0 0 1 0 0 0 1 0"/>
<feBlend mode="normal" in2="BackgroundImageFix" result="effect1_dropShadow_3258_2843"/>
<feBlend mode="normal" in="SourceGraphic" in2="effect1_dropShadow_3258_2843" result="shape"/>
</filter>
</defs>
</svg>
