<svg width="86" height="86" viewBox="0 0 86 86" fill="none" xmlns="http://www.w3.org/2000/svg">
<circle cx="43" cy="43" r="41.75" fill="white" stroke="black" stroke-width="2.5"/>
<g clip-path="url(#clip0_3565_17)">
<path d="M61.8594 26.1687C61.3544 25.842 60.7769 25.6444 60.1776 25.5932C59.5783 25.542 58.9756 25.6387 58.4225 25.875L40.2981 33.0131C39.869 33.1878 39.4101 33.2775 38.9469 33.2775H27.3438C26.3699 33.2775 25.436 33.6644 24.7473 34.353C24.0587 35.0416 23.6719 35.9755 23.6719 36.9494V37.2431H20V46.0556H23.6719V46.4375C23.6949 47.396 24.0919 48.3075 24.778 48.9771C25.4641 49.6468 26.385 50.0215 27.3438 50.0212L31.75 59.3625C32.0484 59.9915 32.5181 60.5237 33.1053 60.8978C33.6924 61.2719 34.3732 61.4728 35.0694 61.4775H36.92C37.8887 61.4697 38.8152 61.0795 39.4974 60.3917C40.1797 59.7039 40.5625 58.7744 40.5625 57.8056V50.3737L58.4225 57.5119C58.8618 57.6867 59.3303 57.7764 59.8031 57.7762C60.5366 57.7644 61.251 57.5399 61.8594 57.13C62.3425 56.8038 62.7411 56.3672 63.022 55.8564C63.3029 55.3456 63.4582 54.7752 63.475 54.1925V29.1944C63.4723 28.5966 63.3237 28.0086 63.0422 27.4813C62.7606 26.954 62.3546 26.5035 61.8594 26.1687ZM36.8906 36.9494V46.4375H27.3438V36.9494H36.8906ZM36.8906 57.8056H35.04L31.4269 50.0212H36.8906V57.8056ZM41.6494 46.8781C41.3006 46.6999 40.9369 46.5524 40.5625 46.4375V36.7437C40.9333 36.6672 41.297 36.5591 41.6494 36.4206L59.8031 29.1944V54.1044L41.6494 46.8781ZM63.5631 37.9775V45.3212C64.537 45.3212 65.4709 44.9344 66.1595 44.2458C66.8481 43.5572 67.235 42.6232 67.235 41.6494C67.235 40.6755 66.8481 39.7416 66.1595 39.053C65.4709 38.3644 64.537 37.9775 63.5631 37.9775Z" fill="black"/>
</g>
<defs>
<clipPath id="clip0_3565_17">
<rect width="47" height="47" fill="white" transform="translate(20 20)"/>
</clipPath>
</defs>
</svg>
