<svg width="1864" height="1230" viewBox="0 0 1864 1230" fill="none" xmlns="http://www.w3.org/2000/svg">
<path d="M0 20C0 8.95431 8.9543 0 20 0L1844 0C1855.05 0 1864 8.95431 1864 20V1209.45C1864 1220.49 1855.05 1229.45 1844 1229.45H20C8.9543 1229.45 0 1220.49 0 1209.45L0 20Z" fill="url(#paint0_linear_2998_38)"/>
<g filter="url(#filter0_d_2998_38)">
<path d="M377.196 508.105C377.912 506.806 379.278 506 380.76 506H521.838C523.321 506 524.687 506.806 525.403 508.105V508.105C525.735 508.707 525.909 509.383 525.909 510.071V524.6C525.909 525.287 525.735 525.964 525.403 526.566V526.566C524.687 527.864 523.321 528.671 521.838 528.671H380.76C379.278 528.671 377.912 527.864 377.196 526.566V526.566C376.864 525.964 376.689 525.287 376.689 524.6V510.071C376.689 509.383 376.864 508.707 377.196 508.105V508.105Z" fill="url(#paint1_linear_2998_38)"/>
<path d="M377.196 702.993C377.912 701.695 379.278 700.889 380.76 700.889H521.838C523.321 700.889 524.687 701.695 525.403 702.993V702.993C525.735 703.596 525.909 704.272 525.909 704.96V719.488C525.909 720.176 525.735 720.852 525.403 721.454V721.454C524.687 722.753 523.321 723.559 521.838 723.559H380.76C379.278 723.559 377.912 722.753 377.196 721.454V721.454C376.864 720.852 376.689 720.176 376.689 719.488V704.96C376.689 704.272 376.864 703.596 377.196 702.993V702.993Z" fill="url(#paint2_linear_2998_38)"/>
<path d="M377.196 605.549C377.912 604.251 379.278 603.444 380.76 603.444H521.838C523.321 603.444 524.687 604.251 525.403 605.549V605.549C525.735 606.151 525.909 606.828 525.909 607.515V622.044C525.909 622.732 525.735 623.408 525.403 624.01V624.01C524.687 625.309 523.321 626.115 521.838 626.115H380.76C379.278 626.115 377.912 625.309 377.196 624.01V624.01C376.864 623.408 376.689 622.732 376.689 622.044V607.515C376.689 606.828 376.864 606.151 377.196 605.549V605.549Z" fill="url(#paint3_linear_2998_38)"/>
</g>
<g filter="url(#filter1_d_2998_38)">
<path fill-rule="evenodd" clip-rule="evenodd" d="M1636.71 634.819C1635.05 634.819 1633.71 636.162 1633.71 637.819V720.205C1633.71 721.861 1635.05 723.205 1636.71 723.205H1655.29C1656.95 723.205 1658.29 721.861 1658.29 720.205V637.819C1658.29 636.162 1656.95 634.819 1655.29 634.819H1636.71ZM1655.29 595.195C1656.95 595.195 1658.29 593.852 1658.29 592.195V532.478C1658.29 530.821 1659.63 529.478 1661.29 529.478H1731C1732.66 529.478 1734 528.135 1734 526.478V509.205C1734 507.548 1732.66 506.205 1731 506.205H1561C1559.34 506.205 1558 507.548 1558 509.205V526.478C1558 528.135 1559.34 529.478 1561 529.478H1630.71C1632.37 529.478 1633.71 530.821 1633.71 532.478V592.195C1633.71 593.852 1635.05 595.195 1636.71 595.195H1655.29Z" fill="url(#paint4_linear_2998_38)"/>
</g>
<g filter="url(#filter2_d_2998_38)">
<path fill-rule="evenodd" clip-rule="evenodd" d="M1396.34 723.205C1378.57 723.205 1362.75 719.318 1348.88 711.545C1335.23 703.556 1324.5 692.436 1316.7 678.185C1310.31 666.505 1306.53 653.229 1305.38 638.357C1305.25 636.645 1306.62 635.204 1308.34 635.204H1326.68C1328.28 635.204 1329.59 636.457 1329.72 638.05C1330.68 650.572 1333.71 661.036 1338.8 669.44C1345.31 679.805 1353.65 687.47 1363.83 692.436C1374.23 697.186 1385.07 699.561 1396.34 699.561C1407.82 699.561 1418.66 697.186 1428.84 692.436C1439.03 687.47 1447.37 679.805 1453.87 669.44C1459.14 661.035 1462.28 650.569 1463.27 638.044C1463.4 636.454 1464.71 635.204 1466.31 635.204H1484.66C1486.38 635.204 1487.75 636.647 1487.61 638.361C1486.45 653.043 1482.68 666.21 1476.3 677.861C1468.5 692.112 1457.66 703.232 1443.79 711.221C1430.14 719.21 1414.32 723.205 1396.34 723.205ZM1485 595.462C1486.66 595.462 1488 594.119 1488 592.462V509.205C1488 507.548 1486.66 506.205 1485 506.205H1466.62C1464.96 506.205 1463.62 507.548 1463.62 509.205V592.462C1463.62 594.119 1464.96 595.462 1466.62 595.462H1485ZM1329.38 592.462C1329.38 594.119 1328.04 595.462 1326.38 595.462H1308C1306.34 595.462 1305 594.119 1305 592.462V509.205C1305 507.548 1306.34 506.205 1308 506.205H1326.38C1328.04 506.205 1329.38 507.548 1329.38 509.205V592.462Z" fill="url(#paint5_linear_2998_38)"/>
</g>
<g filter="url(#filter3_d_2998_38)">
<path fill-rule="evenodd" clip-rule="evenodd" d="M1129 723.205C1113.01 723.205 1098.41 720.43 1085.19 714.883C1071.97 709.336 1060.56 701.547 1050.97 691.519C1041.59 681.49 1034.34 669.968 1029.22 656.952C1026.94 651.058 1025.17 644.994 1023.91 638.76C1023.54 636.939 1024.95 635.265 1026.81 635.265H1045.11C1046.54 635.265 1047.76 636.268 1048.08 637.654C1049.74 644.744 1052.19 651.497 1055.45 657.913C1062.27 670.715 1071.97 680.957 1084.55 688.638C1097.13 696.106 1111.94 699.84 1129 699.84C1146.27 699.84 1161.09 696.106 1173.45 688.638C1186.03 680.957 1195.62 670.715 1202.23 657.913C1205.6 651.491 1208.13 644.732 1209.84 637.635C1210.17 636.258 1211.39 635.265 1212.81 635.265H1231.19C1233.05 635.265 1234.46 636.939 1234.09 638.76C1232.83 644.994 1231.06 651.058 1228.78 656.952C1223.66 669.968 1216.3 681.49 1206.71 691.519C1197.33 701.547 1186.03 709.336 1172.81 714.883C1159.59 720.43 1144.99 723.205 1129 723.205ZM1231.49 595.554C1233.34 595.554 1234.75 593.909 1234.41 592.099C1233.13 585.302 1231.25 578.755 1228.78 572.457C1223.66 559.441 1216.3 547.919 1206.71 537.89C1197.33 527.862 1186.03 520.074 1172.81 514.526C1159.59 508.978 1144.99 506.205 1129 506.205C1113.01 506.205 1098.41 508.978 1085.19 514.526C1071.97 520.074 1060.56 527.862 1050.97 537.89C1041.59 547.919 1034.34 559.441 1029.22 572.457C1026.75 578.755 1024.87 585.302 1023.59 592.099C1023.25 593.909 1024.66 595.554 1026.51 595.554H1044.76C1046.21 595.554 1047.44 594.525 1047.74 593.113C1049.39 585.462 1051.96 578.256 1055.45 571.497C1062.27 558.694 1071.97 548.559 1084.55 541.091C1097.13 533.41 1111.94 529.569 1129 529.569C1146.27 529.569 1161.09 533.41 1173.45 541.091C1186.03 548.559 1195.62 558.694 1202.23 571.497C1205.84 578.261 1208.49 585.473 1210.19 593.131C1210.5 594.534 1211.73 595.554 1213.17 595.554H1231.49Z" fill="url(#paint6_linear_2998_38)"/>
</g>
<g filter="url(#filter4_d_2998_38)">
<path fill-rule="evenodd" clip-rule="evenodd" d="M600 634.819C598.343 634.819 597 636.162 597 637.819V720.205C597 721.861 598.343 723.205 600 723.205H737C738.657 723.205 740 721.861 740 720.205V702.603C740 700.947 738.657 699.603 737 699.603H624.599C622.942 699.603 621.599 698.26 621.599 696.603V637.819C621.599 636.162 620.255 634.819 618.599 634.819H600ZM618.599 595.195C620.255 595.195 621.599 593.852 621.599 592.195V509.205C621.599 507.548 620.255 506.205 618.599 506.205H600C598.343 506.205 597 507.548 597 509.205V592.195C597 593.852 598.343 595.195 600 595.195H618.599Z" fill="url(#paint7_linear_2998_38)" shape-rendering="crispEdges"/>
</g>
<g filter="url(#filter5_d_2998_38)">
<path fill-rule="evenodd" clip-rule="evenodd" d="M813 634.819C811.343 634.819 810 636.162 810 637.819V720.205C810 721.861 811.343 723.205 813 723.205H950C951.657 723.205 953 721.861 953 720.205V702.603C953 700.947 951.657 699.603 950 699.603H837.599C835.942 699.603 834.599 698.26 834.599 696.603V637.819C834.599 636.162 833.255 634.819 831.599 634.819H813ZM831.599 595.195C833.255 595.195 834.599 593.852 834.599 592.195V509.205C834.599 507.548 833.255 506.205 831.599 506.205H813C811.343 506.205 810 507.548 810 509.205V592.195C810 593.852 811.343 595.195 813 595.195H831.599Z" fill="url(#paint8_linear_2998_38)"/>
</g>
<g filter="url(#filter6_d_2998_38)">
<path fill-rule="evenodd" clip-rule="evenodd" d="M171.557 714.381C179.132 717.604 188.049 719.887 198.305 721.23C200.075 721.462 201.625 720.069 201.625 718.284V700.693C201.625 699.237 200.578 697.996 199.15 697.711C196.159 697.113 193.241 696.4 190.398 695.573C180.392 692.598 172.302 688.028 166.128 681.865C160.53 676.084 157.207 668.732 156.16 659.806C155.975 658.233 154.675 657 153.091 657H134.265C132.509 657 131.122 658.504 131.339 660.248C132.734 671.491 136.347 681.673 142.177 690.791C148.777 700.779 158.57 708.643 171.557 714.381ZM266.401 690.791C258.879 695.235 249.42 698.077 238.023 699.316C236.473 699.485 235.276 700.78 235.276 702.339V718.972C235.276 720.717 236.762 722.097 238.499 721.93C256.936 720.157 271.985 715.197 283.646 707.049C298.549 696.423 306 681.333 306 661.782C306 651.156 303.339 642.442 298.016 635.641C292.907 628.841 285.988 623.315 277.259 619.065C268.743 614.602 259.27 610.989 248.838 608.226C245.579 607.277 242.311 606.361 239.031 605.477C237.134 604.966 235.276 606.401 235.276 608.366V625.611C235.276 626.972 236.193 628.161 237.506 628.52C243.064 630.041 248.332 631.671 253.308 633.41C262.037 636.385 268.956 640.21 274.066 644.886C279.388 649.349 282.049 655.3 282.049 662.738C282.049 675.064 276.834 684.415 266.401 690.791ZM189.12 592.606C192.428 593.653 195.857 594.669 199.409 595.655C200.715 596.017 201.625 597.203 201.625 598.558V615.532C201.625 617.496 199.767 618.931 197.867 618.431C196.656 618.112 195.444 617.792 194.23 617.471C184.011 614.708 174.537 611.201 165.808 606.951C157.293 602.701 150.374 597.281 145.051 590.693C139.942 583.892 137.387 575.285 137.387 564.872C137.387 547.657 143.987 533.631 157.186 522.792C167.251 514.659 180.972 509.577 198.35 507.547C200.105 507.342 201.625 508.729 201.625 510.495V526.934C201.625 528.462 200.474 529.74 198.961 529.951C194.823 530.527 191.117 531.328 187.843 532.356C180.392 534.693 174.644 537.775 170.599 541.6C166.766 545.213 164.105 549.039 162.615 553.077C161.338 557.114 160.699 560.94 160.699 564.553C160.699 571.566 163.254 577.304 168.363 581.767C173.686 586.017 180.605 589.631 189.12 592.606ZM238.633 508.033C236.853 507.766 235.276 509.164 235.276 510.965V527.642C235.276 529.114 236.346 530.362 237.79 530.642C246.994 532.428 254.402 535.55 260.015 540.006C268.598 546.628 273.786 554.677 275.576 564.154C275.858 565.646 277.124 566.784 278.643 566.784H297.385C299.113 566.784 300.491 565.327 300.296 563.611C299.222 554.184 295.907 545.36 290.352 537.137C284.391 527.999 275.343 520.667 263.208 515.141C256.137 511.798 247.945 509.428 238.633 508.033Z" fill="url(#paint9_linear_2998_38)"/>
</g>
<defs>
<filter id="filter0_d_2998_38" x="367.689" y="506" width="158.219" height="231.559" filterUnits="userSpaceOnUse" color-interpolation-filters="sRGB">
<feFlood flood-opacity="0" result="BackgroundImageFix"/>
<feColorMatrix in="SourceAlpha" type="matrix" values="0 0 0 0 0 0 0 0 0 0 0 0 0 0 0 0 0 0 127 0" result="hardAlpha"/>
<feOffset dx="-5" dy="10"/>
<feGaussianBlur stdDeviation="2"/>
<feComposite in2="hardAlpha" operator="out"/>
<feColorMatrix type="matrix" values="0 0 0 0 0 0 0 0 0 0 0 0 0 0 0 0 0 0 0.25 0"/>
<feBlend mode="normal" in2="BackgroundImageFix" result="effect1_dropShadow_2998_38"/>
<feBlend mode="normal" in="SourceGraphic" in2="effect1_dropShadow_2998_38" result="shape"/>
</filter>
<filter id="filter1_d_2998_38" x="1549" y="506.205" width="185" height="231" filterUnits="userSpaceOnUse" color-interpolation-filters="sRGB">
<feFlood flood-opacity="0" result="BackgroundImageFix"/>
<feColorMatrix in="SourceAlpha" type="matrix" values="0 0 0 0 0 0 0 0 0 0 0 0 0 0 0 0 0 0 127 0" result="hardAlpha"/>
<feOffset dx="-5" dy="10"/>
<feGaussianBlur stdDeviation="2"/>
<feComposite in2="hardAlpha" operator="out"/>
<feColorMatrix type="matrix" values="0 0 0 0 0 0 0 0 0 0 0 0 0 0 0 0 0 0 0.25 0"/>
<feBlend mode="normal" in2="BackgroundImageFix" result="effect1_dropShadow_2998_38"/>
<feBlend mode="normal" in="SourceGraphic" in2="effect1_dropShadow_2998_38" result="shape"/>
</filter>
<filter id="filter2_d_2998_38" x="1296" y="506.205" width="192" height="231" filterUnits="userSpaceOnUse" color-interpolation-filters="sRGB">
<feFlood flood-opacity="0" result="BackgroundImageFix"/>
<feColorMatrix in="SourceAlpha" type="matrix" values="0 0 0 0 0 0 0 0 0 0 0 0 0 0 0 0 0 0 127 0" result="hardAlpha"/>
<feOffset dx="-5" dy="10"/>
<feGaussianBlur stdDeviation="2"/>
<feComposite in2="hardAlpha" operator="out"/>
<feColorMatrix type="matrix" values="0 0 0 0 0 0 0 0 0 0 0 0 0 0 0 0 0 0 0.25 0"/>
<feBlend mode="normal" in2="BackgroundImageFix" result="effect1_dropShadow_2998_38"/>
<feBlend mode="normal" in="SourceGraphic" in2="effect1_dropShadow_2998_38" result="shape"/>
</filter>
<filter id="filter3_d_2998_38" x="1014.54" y="506.205" width="219.914" height="231" filterUnits="userSpaceOnUse" color-interpolation-filters="sRGB">
<feFlood flood-opacity="0" result="BackgroundImageFix"/>
<feColorMatrix in="SourceAlpha" type="matrix" values="0 0 0 0 0 0 0 0 0 0 0 0 0 0 0 0 0 0 127 0" result="hardAlpha"/>
<feOffset dx="-5" dy="10"/>
<feGaussianBlur stdDeviation="2"/>
<feComposite in2="hardAlpha" operator="out"/>
<feColorMatrix type="matrix" values="0 0 0 0 0 0 0 0 0 0 0 0 0 0 0 0 0 0 0.25 0"/>
<feBlend mode="normal" in2="BackgroundImageFix" result="effect1_dropShadow_2998_38"/>
<feBlend mode="normal" in="SourceGraphic" in2="effect1_dropShadow_2998_38" result="shape"/>
</filter>
<filter id="filter4_d_2998_38" x="588" y="506.205" width="152" height="231" filterUnits="userSpaceOnUse" color-interpolation-filters="sRGB">
<feFlood flood-opacity="0" result="BackgroundImageFix"/>
<feColorMatrix in="SourceAlpha" type="matrix" values="0 0 0 0 0 0 0 0 0 0 0 0 0 0 0 0 0 0 127 0" result="hardAlpha"/>
<feOffset dx="-5" dy="10"/>
<feGaussianBlur stdDeviation="2"/>
<feComposite in2="hardAlpha" operator="out"/>
<feColorMatrix type="matrix" values="0 0 0 0 0 0 0 0 0 0 0 0 0 0 0 0 0 0 0.25 0"/>
<feBlend mode="normal" in2="BackgroundImageFix" result="effect1_dropShadow_2998_38"/>
<feBlend mode="normal" in="SourceGraphic" in2="effect1_dropShadow_2998_38" result="shape"/>
</filter>
<filter id="filter5_d_2998_38" x="801" y="506.205" width="152" height="231" filterUnits="userSpaceOnUse" color-interpolation-filters="sRGB">
<feFlood flood-opacity="0" result="BackgroundImageFix"/>
<feColorMatrix in="SourceAlpha" type="matrix" values="0 0 0 0 0 0 0 0 0 0 0 0 0 0 0 0 0 0 127 0" result="hardAlpha"/>
<feOffset dx="-5" dy="10"/>
<feGaussianBlur stdDeviation="2"/>
<feComposite in2="hardAlpha" operator="out"/>
<feColorMatrix type="matrix" values="0 0 0 0 0 0 0 0 0 0 0 0 0 0 0 0 0 0 0.25 0"/>
<feBlend mode="normal" in2="BackgroundImageFix" result="effect1_dropShadow_2998_38"/>
<feBlend mode="normal" in="SourceGraphic" in2="effect1_dropShadow_2998_38" result="shape"/>
</filter>
<filter id="filter6_d_2998_38" x="122.316" y="507.527" width="183.684" height="228.417" filterUnits="userSpaceOnUse" color-interpolation-filters="sRGB">
<feFlood flood-opacity="0" result="BackgroundImageFix"/>
<feColorMatrix in="SourceAlpha" type="matrix" values="0 0 0 0 0 0 0 0 0 0 0 0 0 0 0 0 0 0 127 0" result="hardAlpha"/>
<feOffset dx="-5" dy="10"/>
<feGaussianBlur stdDeviation="2"/>
<feComposite in2="hardAlpha" operator="out"/>
<feColorMatrix type="matrix" values="0 0 0 0 0 0 0 0 0 0 0 0 0 0 0 0 0 0 0.25 0"/>
<feBlend mode="normal" in2="BackgroundImageFix" result="effect1_dropShadow_2998_38"/>
<feBlend mode="normal" in="SourceGraphic" in2="effect1_dropShadow_2998_38" result="shape"/>
</filter>
<linearGradient id="paint0_linear_2998_38" x1="929.141" y1="3.9155" x2="929.141" y2="1233.36" gradientUnits="userSpaceOnUse">
<stop stop-color="white"/>
<stop offset="1" stop-color="#BCBCBC"/>
</linearGradient>
<linearGradient id="paint1_linear_2998_38" x1="497.937" y1="518.256" x2="496.268" y2="539.79" gradientUnits="userSpaceOnUse">
<stop stop-color="white"/>
<stop offset="1"/>
</linearGradient>
<linearGradient id="paint2_linear_2998_38" x1="512.083" y1="700.805" x2="508.954" y2="726.972" gradientUnits="userSpaceOnUse">
<stop stop-color="white"/>
<stop offset="1"/>
</linearGradient>
<linearGradient id="paint3_linear_2998_38" x1="501.575" y1="610.677" x2="497.163" y2="636.063" gradientUnits="userSpaceOnUse">
<stop stop-color="white"/>
<stop offset="1"/>
</linearGradient>
<linearGradient id="paint4_linear_2998_38" x1="1646" y1="506.205" x2="1315.12" y2="929.734" gradientUnits="userSpaceOnUse">
<stop stop-color="white"/>
<stop offset="1"/>
</linearGradient>
<linearGradient id="paint5_linear_2998_38" x1="1436.97" y1="550.307" x2="1349.03" y2="850.695" gradientUnits="userSpaceOnUse">
<stop stop-color="white"/>
<stop offset="1"/>
</linearGradient>
<linearGradient id="paint6_linear_2998_38" x1="1176.5" y1="522.781" x2="1057.58" y2="773.364" gradientUnits="userSpaceOnUse">
<stop stop-color="white"/>
<stop offset="1"/>
</linearGradient>
<linearGradient id="paint7_linear_2998_38" x1="668.5" y1="506.205" x2="628.546" y2="699.851" gradientUnits="userSpaceOnUse">
<stop offset="0.0586553" stop-color="white"/>
<stop offset="1" stop-opacity="0.63"/>
</linearGradient>
<linearGradient id="paint8_linear_2998_38" x1="864.097" y1="506.205" x2="800.402" y2="820.477" gradientUnits="userSpaceOnUse">
<stop stop-color="white"/>
<stop offset="1"/>
</linearGradient>
<linearGradient id="paint9_linear_2998_38" x1="258.535" y1="530.56" x2="167.577" y2="698.952" gradientUnits="userSpaceOnUse">
<stop stop-color="white"/>
<stop offset="0.975866"/>
</linearGradient>
</defs>
</svg>
