<svg width="200" height="28" viewBox="0 0 200 28" fill="none" xmlns="http://www.w3.org/2000/svg">
<path fill-rule="evenodd" clip-rule="evenodd" d="M187.313 17.2249C187.092 17.2249 186.913 17.404 186.913 17.6249V27.3512C186.913 27.5721 187.092 27.7512 187.313 27.7512H189.721C189.941 27.7512 190.121 27.5721 190.121 27.3512V17.6249C190.121 17.404 189.941 17.2249 189.721 17.2249H187.313ZM189.721 10.5263C189.941 10.5263 190.121 10.3472 190.121 10.1263V3.37634C190.121 3.15543 190.3 2.97634 190.521 2.97634H199.6C199.821 2.97634 200 2.79725 200 2.57634V0.4C200 0.179086 199.821 0 199.6 0H177.433C177.213 0 177.033 0.179086 177.033 0.4V2.57634C177.033 2.79725 177.213 2.97634 177.433 2.97634H186.513C186.734 2.97634 186.913 3.15543 186.913 3.37634V10.1263C186.913 10.3472 187.092 10.5263 187.313 10.5263H189.721Z" fill="black"/>
<path fill-rule="evenodd" clip-rule="evenodd" d="M155.961 27.7512C153.731 27.7512 151.745 27.2542 150.005 26.2601C148.291 25.2384 146.945 23.8163 145.966 21.9939C145.257 20.6732 144.804 19.1931 144.609 17.5535C144.588 17.3776 144.727 17.2249 144.904 17.2249H147.361C147.515 17.2249 147.643 17.3412 147.662 17.4939C147.828 18.8182 148.187 19.9455 148.74 20.8755C149.556 22.201 150.603 23.1813 151.881 23.8163C153.187 24.4238 154.546 24.7276 155.961 24.7276C157.402 24.7276 158.762 24.4238 160.04 23.8163C161.318 23.1813 162.365 22.201 163.181 20.8755C163.754 19.9452 164.125 18.8176 164.296 17.4928C164.316 17.3407 164.444 17.2249 164.597 17.2249H167.055C167.233 17.2249 167.372 17.378 167.35 17.5541C167.154 19.1712 166.702 20.6373 165.996 21.9524C165.017 23.7749 163.657 25.1969 161.916 26.2187C160.203 27.2404 158.218 27.7512 155.961 27.7512ZM167.164 10.5263C167.33 10.5263 167.464 10.392 167.464 10.2263V0.3C167.464 0.134315 167.33 0 167.164 0H164.705C164.539 0 164.405 0.134315 164.405 0.3V10.2263C164.405 10.392 164.539 10.5263 164.705 10.5263H167.164ZM147.557 10.2263C147.557 10.392 147.423 10.5263 147.257 10.5263H144.798C144.632 10.5263 144.498 10.392 144.498 10.2263V0.3C144.498 0.134315 144.632 0 144.798 0H147.257C147.423 0 147.557 0.134315 147.557 0.3V10.2263Z" fill="black"/>
<path fill-rule="evenodd" clip-rule="evenodd" d="M122.01 27.7512C120.036 27.7512 118.234 27.3964 116.602 26.687C114.971 25.9776 113.563 24.9815 112.379 23.699C111.221 22.4166 110.327 20.943 109.695 19.2785C109.518 18.8033 109.365 18.3195 109.238 17.8271C109.158 17.5188 109.396 17.2249 109.714 17.2249H111.738C111.965 17.2249 112.163 17.3785 112.227 17.5964C112.413 18.2196 112.647 18.8212 112.932 19.4013C113.774 21.0385 114.971 22.3483 116.523 23.3306C118.076 24.2857 119.905 24.7632 122.01 24.7632C124.141 24.7632 125.97 24.2857 127.496 23.3306C129.048 22.3483 130.232 21.0385 131.048 19.4013C131.345 18.8142 131.59 18.205 131.782 17.5738C131.848 17.3574 132.045 17.2053 132.271 17.2053H134.31C134.628 17.2053 134.866 17.4988 134.787 17.8069C134.658 18.3063 134.504 18.7968 134.324 19.2785C133.693 20.943 132.785 22.4166 131.601 23.699C130.443 24.9815 129.048 25.9776 127.417 26.687C125.786 27.3964 123.983 27.7512 122.01 27.7512ZM134.31 10.5263C134.628 10.5263 134.866 10.2326 134.786 9.92448C134.657 9.42955 134.503 8.94562 134.324 8.47271C133.693 6.80818 132.785 5.33467 131.601 4.05217C130.443 2.76967 129.048 1.77367 127.417 1.06421C125.786 0.354735 123.983 0 122.01 0C120.036 0 118.234 0.354735 116.602 1.06421C114.971 1.77367 113.563 2.76967 112.379 4.05217C111.221 5.33467 110.327 6.80818 109.695 8.47271C109.516 8.94562 109.362 9.42955 109.233 9.92448C109.153 10.2326 109.391 10.5263 109.709 10.5263H111.732C111.96 10.5263 112.157 10.3724 112.222 10.1543C112.408 9.52748 112.645 8.92603 112.932 8.34992C113.774 6.71268 114.971 5.41653 116.523 4.46148C118.076 3.47913 119.905 2.98796 122.01 2.98796C124.141 2.98796 125.97 3.47913 127.496 4.46148C129.048 5.41653 130.232 6.71268 131.048 8.34992C131.345 8.92721 131.589 9.52995 131.782 10.1581C131.848 10.3743 132.045 10.5263 132.271 10.5263H134.31Z" fill="black"/>
<path fill-rule="evenodd" clip-rule="evenodd" d="M58.1163 17.2249C57.7297 17.2249 57.4163 17.5383 57.4163 17.9249V27.0512C57.4163 27.4378 57.7297 27.7512 58.1163 27.7512H74.7148C75.0788 27.7512 75.3821 27.4721 75.4123 27.1093L75.535 25.6375C75.569 25.2297 75.2475 24.8799 74.8384 24.8793L60.9861 24.8603C60.5999 24.8598 60.2871 24.5466 60.2871 24.1603V17.9249C60.2871 17.5383 59.9737 17.2249 59.5871 17.2249H58.1163ZM59.5871 10.5263C59.9737 10.5263 60.2871 10.2129 60.2871 9.82632V0.883327C60.2871 0.519265 60.008 0.215979 59.6452 0.185745L58.1744 0.0631777C57.7663 0.0291682 57.4163 0.351232 57.4163 0.76076V9.82632C57.4163 10.2129 57.7297 10.5263 58.1163 10.5263H59.5871Z" fill="black"/>
<path fill-rule="evenodd" clip-rule="evenodd" d="M84.9106 17.2249C84.524 17.2249 84.2106 17.5383 84.2106 17.9249V27.0512C84.2106 27.4378 84.524 27.7512 84.9106 27.7512H101.509C101.873 27.7512 102.176 27.4721 102.207 27.1093L102.329 25.6375C102.363 25.2297 102.042 24.8799 101.633 24.8793L87.7804 24.8603C87.3942 24.8598 87.0814 24.5466 87.0814 24.1603V17.9249C87.0814 17.5383 86.768 17.2249 86.3814 17.2249H84.9106ZM86.3814 10.5263C86.768 10.5263 87.0814 10.2129 87.0814 9.82632V0.883327C87.0814 0.519265 86.8023 0.215979 86.4395 0.185745L84.9687 0.0631777C84.5606 0.0291682 84.2106 0.351232 84.2106 0.76076V9.82632C84.2106 10.2129 84.524 10.5263 84.9106 10.5263H86.3814Z" fill="black"/>
<path d="M29.7308 0.265158C29.8222 0.101458 29.9951 3.05176e-05 30.1826 3.05176e-05H48.2863C48.4738 3.05176e-05 48.6466 0.101458 48.7381 0.265158V0.265158C48.7812 0.342304 48.8038 0.429199 48.8038 0.517567V2.35331C48.8038 2.44167 48.7812 2.52857 48.7381 2.60572V2.60572C48.6466 2.76942 48.4738 2.87084 48.2863 2.87084H30.1826C29.9951 2.87084 29.8222 2.76942 29.7308 2.60572V2.60572C29.6877 2.52857 29.665 2.44167 29.665 2.35331V0.517567C29.665 0.429199 29.6877 0.342304 29.7308 0.265158V0.265158Z" fill="black"/>
<path d="M29.7308 25.1455C29.8222 24.9818 29.9951 24.8804 30.1826 24.8804H48.2863C48.4738 24.8804 48.6466 24.9818 48.7381 25.1455V25.1455C48.7812 25.2226 48.8038 25.3095 48.8038 25.3979V27.2336C48.8038 27.322 48.7812 27.4089 48.7381 27.4861V27.4861C48.6466 27.6498 48.4738 27.7512 48.2863 27.7512H30.1826C29.9951 27.7512 29.8222 27.6498 29.7308 27.4861V27.4861C29.6877 27.4089 29.665 27.322 29.665 27.2336V25.3979C29.665 25.3095 29.6877 25.2226 29.7308 25.1455V25.1455Z" fill="black"/>
<path d="M29.7308 12.7053C29.8222 12.5416 29.9951 12.4402 30.1826 12.4402H48.2863C48.4738 12.4402 48.6466 12.5416 48.7381 12.7053V12.7053C48.7812 12.7825 48.8038 12.8694 48.8038 12.9578V14.7935C48.8038 14.8819 48.7812 14.9688 48.7381 15.0459V15.0459C48.6466 15.2096 48.4738 15.311 48.2863 15.311H30.1826C29.9951 15.311 29.8222 15.2096 29.7308 15.0459V15.0459C29.6877 14.9688 29.665 14.8819 29.665 14.7935V12.9578C29.665 12.8694 29.6877 12.7825 29.7308 12.7053V12.7053Z" fill="black"/>
<path fill-rule="evenodd" clip-rule="evenodd" d="M5.10076 26.687C5.82346 27.0009 6.64314 27.2454 7.55981 27.4204C7.86072 27.4779 8.13397 27.2428 8.13397 26.9365V24.8443C8.13397 24.6129 7.975 24.4128 7.75178 24.3521C7.65736 24.3265 7.56356 24.2998 7.4704 24.2721C6.21195 23.8901 5.19447 23.3033 4.41798 22.512C3.73615 21.7932 3.32271 20.885 3.17765 19.7875C3.14302 19.5255 2.92673 19.3194 2.66247 19.3194H0.543305C0.250819 19.3194 0.0196616 19.5697 0.0582996 19.8596C0.2442 21.2545 0.693341 22.5207 1.40572 23.6581C2.23577 24.9406 3.46744 25.9502 5.10076 26.687ZM17.0293 23.6581C16.2753 24.1128 15.3666 24.4369 14.3032 24.6304C14.0586 24.6748 13.8756 24.8844 13.8756 25.133V27.055C13.8756 27.3544 14.1374 27.5875 14.4334 27.5421C16.3408 27.2498 17.929 26.6509 19.1981 25.7456C21.0725 24.3813 22.0096 22.4438 22.0096 19.9334C22.0096 18.5691 21.6749 17.4502 21.0055 16.5771C20.3629 15.7039 19.4926 14.9944 18.3949 14.4486C17.3238 13.8756 16.1324 13.4118 14.8203 13.057C14.7168 13.0262 14.6132 12.9957 14.5096 12.9655C14.1917 12.8728 13.8756 13.1125 13.8756 13.4436V15.4273C13.8756 15.6489 14.0215 15.8436 14.2331 15.9089C14.6291 16.0312 15.0122 16.1584 15.3826 16.2905C16.4804 16.6725 17.3506 17.1637 17.9932 17.7641C18.6626 18.3371 18.9973 19.1012 18.9973 20.0562C18.9973 21.6389 18.3413 22.8395 17.0293 23.6581ZM7.30975 11.0514C7.46333 11.101 7.61901 11.1501 7.77679 11.1987C7.98833 11.2638 8.13397 11.4584 8.13397 11.6798V14.293L7.95236 14.244C6.66713 13.8892 5.47561 13.439 4.37782 12.8933C3.30679 12.3476 2.43659 11.6517 1.76719 10.8058C1.12458 9.9326 0.803269 8.82746 0.803269 7.49038C0.803269 5.28011 1.63332 3.47914 3.2934 2.08749C4.37919 1.19172 5.80333 0.584243 7.56582 0.265056C7.86486 0.210901 8.13397 0.445315 8.13397 0.749212V2.65671C8.13397 2.89817 7.96096 3.10338 7.72572 3.1578C7.52295 3.2047 7.33074 3.25724 7.14909 3.31542C6.21195 3.61558 5.48901 4.01125 4.98027 4.50242C4.49831 4.9663 4.16361 5.45747 3.97618 5.97593C3.81553 6.49439 3.7352 6.98557 3.7352 7.44945C3.7352 8.34993 4.05651 9.08669 4.69912 9.65972C5.36852 10.2055 6.23872 10.6694 7.30975 11.0514ZM14.4607 0.366258C14.1571 0.297717 13.8756 0.534093 13.8756 0.84529V2.80428C13.8756 3.03374 14.0324 3.23205 14.2521 3.29817C15.0376 3.53457 15.6956 3.86777 16.226 4.29776C17.2756 5.12429 17.9214 6.12407 18.1634 7.2971C18.2147 7.54539 18.4253 7.73596 18.6788 7.73596H20.7965C21.0842 7.73596 21.3141 7.49339 21.2777 7.20801C21.129 6.04288 20.7169 4.95 20.0416 3.92938C19.2918 2.75603 18.1539 1.81461 16.6277 1.10515C15.9801 0.792524 15.2577 0.546228 14.4607 0.366258Z" fill="black"/>
</svg>
