<svg width="1099" height="173" viewBox="0 0 1099 173" fill="none" xmlns="http://www.w3.org/2000/svg">
<path d="M130.333 104.571C128.613 101.19 126.382 98.3197 123.705 95.9386L123.679 95.9117C120.545 93.4124 116.938 91.3215 113.041 89.8111L112.762 89.7144C109.521 88.2846 105.484 86.828 101.34 85.6186L100.604 85.4359C97.2247 84.5114 92.5377 83.302 86.5427 81.8077C81.7859 80.679 77.8245 79.647 74.7661 78.7332C70.708 77.497 67.3755 76.2339 64.1397 74.788L64.7149 75.0191C61.5167 73.7237 58.7647 72.0521 56.3245 70.015L56.3729 70.0526C54.3304 68.1821 52.6372 65.9676 51.3741 63.5005L51.315 63.3715C50.0142 60.8667 49.2564 57.8997 49.2564 54.7607C49.2564 54.664 49.2564 54.5672 49.2564 54.4705V54.4866C49.251 54.2931 49.2456 54.0674 49.2456 53.8416C49.2456 46.967 52.7394 40.9147 58.0499 37.3511L58.1197 37.3081C64.7202 33.1855 72.7344 30.7399 81.3236 30.7399C82.2427 30.7399 83.1511 30.7667 84.0595 30.8205L83.9359 30.8151C84.6077 30.7829 85.3925 30.7614 86.188 30.7614C95.5029 30.7614 104.216 33.336 111.655 37.8134L111.434 37.6897C117.556 41.5275 121.566 48.2409 121.566 55.8895C121.566 56.2389 121.555 56.5882 121.539 56.9376V56.8892V57.9212C121.539 58.8135 122.26 59.5337 123.152 59.5337H128.145C129.037 59.5337 129.763 58.8135 129.763 57.9212V56.7172C129.774 56.4055 129.779 56.0454 129.779 55.6799C129.779 45.591 124.651 36.6954 116.858 31.4655L116.75 31.401C108.139 25.8486 97.6206 22.5484 86.3331 22.5484C85.4892 22.5484 84.6507 22.5645 83.8122 22.6021L83.9305 22.5967C83.0759 22.5484 82.0761 22.5161 81.071 22.5161C70.4554 22.5161 60.5815 25.6766 52.3309 31.1161L52.5297 30.9925C45.424 36.0719 40.8445 44.2956 40.8445 53.589C40.8445 53.9007 40.8499 54.2179 40.8606 54.5296V54.4866C40.8606 54.5941 40.8606 54.7177 40.8606 54.8467C40.8606 59.2757 41.9087 63.4575 43.7739 67.1609L43.704 67.005C45.4401 70.5095 47.703 73.4872 50.4227 75.9705L50.4442 75.992C53.4489 78.5182 56.9157 80.636 60.6729 82.1894L60.9362 82.2861C63.9409 83.6782 67.6819 85.1026 71.525 86.2959L72.2184 86.484C75.352 87.3977 79.4639 88.4459 84.4035 89.5907C89.4345 90.8485 93.1325 91.7945 95.476 92.4234C97.798 93.0469 100.937 93.9929 104.861 95.2399C108.086 96.1697 110.897 97.3952 113.504 98.9325L113.332 98.8357C115.589 100.325 117.546 101.84 119.389 103.48L119.336 103.431C121.163 104.969 122.598 106.914 123.501 109.14L123.533 109.236C124.34 111.376 124.807 113.843 124.807 116.423C124.807 116.536 124.807 116.648 124.807 116.761V116.745C124.813 116.928 124.818 117.143 124.818 117.358C124.818 124.603 121.013 130.962 115.288 134.542L115.202 134.59C108.07 138.842 99.475 141.352 90.2891 141.352C89.327 141.352 88.3649 141.325 87.4189 141.271L87.5479 141.277C86.8921 141.304 86.1235 141.32 85.3549 141.32C75.8304 141.32 66.8864 138.842 59.1356 134.488L59.4044 134.628C52.6749 130.709 48.0577 123.808 47.3644 115.778L47.359 115.686C47.2622 114.88 46.585 114.262 45.7626 114.262C45.6282 114.262 45.4939 114.278 45.3649 114.31H45.3756L40.3876 115.52C39.6727 115.692 39.1514 116.326 39.1514 117.084C39.1514 117.159 39.1567 117.229 39.1675 117.304V117.293C40.3124 127.388 46.0099 135.95 54.1207 140.981L54.2551 141.062C63.0271 146.281 73.5997 149.366 84.8926 149.366C85.7687 149.366 86.6341 149.35 87.4995 149.312L87.3759 149.318C88.3165 149.371 89.413 149.404 90.5149 149.404C101.732 149.404 112.203 146.189 121.05 140.632L120.808 140.771C128.323 135.681 133.198 127.189 133.198 117.557C133.198 117.272 133.192 116.987 133.187 116.702V116.745C133.187 116.632 133.187 116.503 133.187 116.369C133.187 112.058 132.128 107.995 130.263 104.426L130.333 104.571Z" fill="black"/>
<path d="M193 26.5C193.32 26.1799 193.754 26 194.207 26H280.293C280.746 26 281.18 26.1799 281.5 26.5V26.5C281.82 26.8201 282 27.2544 282 27.7071V31.7929C282 32.2456 281.82 32.6799 281.5 33V33C281.18 33.3201 280.746 33.5 280.293 33.5H194.207C193.754 33.5 193.32 33.3201 193 33V33C192.68 32.6799 192.5 32.2456 192.5 31.7929V27.7071C192.5 27.2544 192.68 26.8201 193 26.5V26.5Z" fill="black" stroke="black"/>
<path d="M193 139.5C193.32 139.18 193.754 139 194.207 139H280.293C280.746 139 281.18 139.18 281.5 139.5V139.5C281.82 139.82 282 140.254 282 140.707V144.793C282 145.246 281.82 145.68 281.5 146V146C281.18 146.32 280.746 146.5 280.293 146.5H194.207C193.754 146.5 193.32 146.32 193 146V146C192.68 145.68 192.5 145.246 192.5 144.793V140.707C192.5 140.254 192.68 139.82 193 139.5V139.5Z" fill="black" stroke="black"/>
<path d="M193 82.5C193.32 82.1799 193.754 82 194.207 82H280.293C280.746 82 281.18 82.1799 281.5 82.5V82.5C281.82 82.8201 282 83.2544 282 83.7071V87.7929C282 88.2456 281.82 88.6799 281.5 89V89C281.18 89.3201 280.746 89.5 280.293 89.5H194.207C193.754 89.5 193.32 89.3201 193 89V89C192.68 88.6799 192.5 88.2456 192.5 87.7929V83.7071C192.5 83.2544 192.68 82.8201 193 82.5V82.5Z" fill="black" stroke="black"/>
<path d="M425.622 140.562H355.166V26.7624C355.166 26.7624 355.166 26.7624 355.166 26.757C355.166 25.8702 354.446 25.1499 353.559 25.1499H348.566C347.679 25.1499 346.953 25.8702 346.953 26.757C346.953 26.757 346.953 26.757 346.953 26.7624V147.162C346.953 148.055 347.673 148.78 348.566 148.78H425.622C426.514 148.78 427.24 148.055 427.24 147.162V142.174C427.24 141.282 426.514 140.562 425.622 140.562Z" fill="black"/>
<path d="M568.622 139.562H498.166V25.7624C498.166 25.7624 498.166 25.7624 498.166 25.757C498.166 24.8702 497.446 24.1499 496.559 24.1499H491.566C490.679 24.1499 489.953 24.8702 489.953 25.757C489.953 25.757 489.953 25.757 489.953 25.7624V146.162C489.953 147.055 490.673 147.78 491.566 147.78H568.622C569.514 147.78 570.239 147.055 570.239 146.162V141.174C570.239 140.282 569.514 139.562 568.622 139.562Z" fill="black"/>
<path d="M713.091 40.9631C701.927 29.6218 686.41 22.5913 669.253 22.5913C668.844 22.5913 668.436 22.5967 668.027 22.6021H668.086C667.839 22.5967 667.549 22.5967 667.258 22.5967C632.627 22.5967 604.554 50.6703 604.554 85.3014C604.554 85.5326 604.554 85.7691 604.559 86.0002V85.9626C604.559 86.1668 604.554 86.4033 604.554 86.6398C604.554 121.26 632.622 149.328 667.242 149.328C667.538 149.328 667.839 149.328 668.135 149.323H668.092C668.296 149.323 668.538 149.328 668.78 149.328C703.4 149.328 731.463 121.266 731.463 86.6452C731.463 86.4033 731.463 86.1668 731.457 85.9303V85.9679C731.463 85.6239 731.468 85.2154 731.468 84.8069C731.468 67.6499 724.438 52.1323 713.102 40.9738L713.091 40.9631ZM668.086 141.105C667.925 141.105 667.731 141.105 667.538 141.105C637.384 141.105 612.939 116.659 612.939 86.5054C612.939 86.3119 612.939 86.1238 612.944 85.9303V85.9572C612.944 85.7959 612.944 85.6132 612.944 85.4251C612.944 55.2606 637.395 30.8097 667.559 30.8097C667.748 30.8097 667.93 30.8097 668.118 30.8151H668.092C668.242 30.8151 668.414 30.8151 668.591 30.8151C698.681 30.8151 723.072 55.2068 723.072 85.2961C723.072 85.5326 723.072 85.7637 723.067 85.9948V85.9572C723.067 86.1561 723.072 86.3926 723.072 86.6291C723.072 116.713 698.686 141.105 668.597 141.105C668.419 141.105 668.237 141.105 668.059 141.105H668.086Z" fill="black"/>
<path d="M894.708 24.1499H889.72C888.827 24.1499 888.102 24.8702 888.102 25.7624V101.098C888.123 101.555 888.134 102.093 888.134 102.636C888.134 113.337 883.813 123.028 876.82 130.054C869.107 136.966 858.867 141.185 847.639 141.185C846.709 141.185 845.79 141.158 844.876 141.099L845 141.105C844.21 141.153 843.29 141.185 842.366 141.185C831.143 141.185 820.904 136.96 813.158 130.016L813.201 130.054C806.198 123.028 801.865 113.337 801.865 102.63C801.865 102.093 801.876 101.555 801.898 101.023V101.098V25.7624C801.898 25.7624 801.898 25.7624 801.898 25.757C801.898 24.8702 801.177 24.1499 800.29 24.1499H795.297C794.41 24.1499 793.685 24.8702 793.685 25.757C793.685 25.757 793.685 25.757 793.685 25.7624V101.276C793.668 101.717 793.663 102.233 793.663 102.749C793.663 115.643 798.882 127.323 807.326 135.783C816.448 144.227 828.692 149.404 842.146 149.404C843.151 149.404 844.15 149.377 845.145 149.318L845.005 149.323C845.892 149.377 846.924 149.409 847.967 149.409C861.426 149.409 873.67 144.227 882.818 135.751L882.786 135.783C891.171 127.307 896.352 115.643 896.352 102.775C896.352 102.249 896.342 101.722 896.326 101.201V101.276V25.7624C896.326 24.8702 895.605 24.1499 894.713 24.1499H894.708Z" fill="black"/>
<path d="M1064.43 24.1499H967.248C966.361 24.1499 965.636 24.8702 965.636 25.757C965.636 25.757 965.636 25.757 965.636 25.7624V30.7558C965.636 31.6427 966.356 32.3683 967.243 32.3683H1011.73V146.168C1011.73 147.06 1012.45 147.786 1013.34 147.786H1018.33C1019.22 147.786 1019.94 147.065 1019.94 146.173V32.3683H1064.43C1065.32 32.3683 1066.05 31.648 1066.05 30.7558V25.7624C1066.05 24.8702 1065.32 24.1499 1064.43 24.1499Z" fill="black"/>
</svg>
