<svg width="1632" height="202" viewBox="0 0 1632 202" fill="none" xmlns="http://www.w3.org/2000/svg">
<path fill-rule="evenodd" clip-rule="evenodd" d="M1469.1 1H1629.32C1630.79 1 1631.99 2.16512 1631.99 3.60847V11.686C1631.99 13.1294 1630.79 14.2945 1629.32 14.2945H1558.98C1557.33 14.2945 1555.98 15.6376 1555.98 17.2945V78C1555.98 79.6569 1554.64 81 1552.98 81H1545.44C1543.79 81 1542.44 79.6569 1542.44 78V17.2945C1542.44 15.6376 1541.1 14.2945 1539.44 14.2945H1469.09C1467.63 14.2945 1466.45 13.1207 1466.45 11.686V3.60847V3.59977C1466.45 2.16511 1467.64 1 1469.1 1ZM1545.44 121C1543.79 121 1542.44 122.343 1542.44 124V198.383C1542.44 199.826 1543.63 201 1545.1 201H1553.32C1554.8 201 1555.98 199.835 1555.98 198.392V124C1555.98 122.343 1554.64 121 1552.98 121H1545.44Z" fill="black"/>
<path fill-rule="evenodd" clip-rule="evenodd" d="M1375.77 1H1367.65C1366.2 1 1365.02 2.15002 1365.02 3.57467V78C1365.02 79.6569 1366.36 81 1368.02 81H1375.4C1377.06 81 1378.4 79.6569 1378.4 78V3.57467C1378.4 2.15002 1377.23 1 1375.78 1H1375.77ZM1365.02 123.863V123.863C1365.02 122.282 1366.3 121 1367.88 121H1375.54C1377.12 121 1378.4 122.282 1378.4 123.863V123.863V123.987C1378.4 124.013 1378.4 124.039 1378.4 124.065C1378.41 124.32 1378.45 125.775 1378.45 126.541C1378.45 147.064 1370.03 165.669 1356.41 179.199C1341.53 192.729 1321.61 201 1299.71 201C1298.02 201 1296.36 200.949 1294.93 200.865C1293.37 200.952 1291.81 200.991 1290.23 200.991C1268.34 200.991 1248.42 192.727 1233.57 179.244C1219.83 165.736 1211.34 147.086 1211.34 126.498C1211.34 125.674 1211.35 124.85 1211.37 124.146V124C1211.37 122.343 1212.72 121 1214.37 121H1222C1223.51 121 1224.74 122.228 1224.74 123.743V123.743C1224.7 124.593 1224.69 125.451 1224.69 126.309C1224.69 143.405 1231.74 158.878 1243.13 170.095L1243.06 170.035C1255.67 181.124 1272.33 187.869 1290.59 187.869C1292.08 187.869 1293.57 187.819 1294.85 187.742C1296.28 187.829 1297.72 187.869 1299.17 187.869C1317.45 187.869 1334.11 181.132 1346.66 170.095C1358.04 158.878 1365.07 143.405 1365.07 126.318C1365.07 125.451 1365.05 124.593 1365.02 123.863ZM1294.85 187.742L1294.68 187.732L1294.88 187.74L1294.85 187.742ZM1211.37 78C1211.37 79.6569 1212.72 81 1214.37 81H1221.74C1223.39 81 1224.74 79.6569 1224.74 78V3.57467V3.56608C1224.74 2.15002 1223.57 1 1222.12 1H1214C1212.55 1 1211.37 2.15002 1211.37 3.56608V3.57467V78ZM1356.41 179.199L1356.42 179.193L1356.37 179.244L1356.41 179.199Z" fill="black"/>
<path fill-rule="evenodd" clip-rule="evenodd" d="M1093.78 29.9919C1075.83 12.0946 1050.87 1 1023.27 1C1022.64 1 1022 1.00799 1021.36 1.01621C1020.97 1.00848 1020.52 1.00848 1020.07 1.00848C972.268 1.00848 932.236 33.6356 921.843 77.4302C921.406 79.2696 922.827 81 924.718 81H932.503C933.9 81 935.107 80.0326 935.46 78.6816C945.184 41.4708 979.593 13.9692 1020.55 13.9692C1020.85 13.9692 1021.15 13.9692 1021.45 13.9776H1022.21C1063.12 13.9776 1097.48 41.4841 1107.13 78.676C1107.48 80.0298 1108.69 81 1110.09 81H1117.97C1119.85 81 1121.27 79.2805 1120.85 77.4446C1116.57 59.1127 1107 42.7579 1093.8 30.0089L1093.78 29.9919ZM1120.71 124.569C1121.15 122.73 1119.73 121 1117.84 121H1110.09C1108.69 121 1107.48 121.97 1107.13 123.324C1097.49 160.513 1063.13 188.022 1022.22 188.022H1021.4H1021.35H1020.52C979.569 188.022 945.167 160.522 935.448 123.319C935.095 121.968 933.888 121 932.492 121H924.711C922.821 121 921.4 122.73 921.836 124.569C932.217 168.365 972.247 201 1020.04 201C1020.51 201 1021 201 1021.47 200.992C1021.61 200.992 1021.76 200.994 1021.91 200.995C1022.11 200.998 1022.31 201 1022.51 201C1070.31 201 1110.34 168.367 1120.71 124.569Z" fill="black"/>
<path fill-rule="evenodd" clip-rule="evenodd" d="M492.016 184.705C492.016 186.362 493.359 187.705 495.016 187.705H608.179C609.65 187.705 610.846 188.87 610.846 190.314V198.383C610.846 199.826 609.65 201 608.179 201H481.133C479.662 201 478.475 199.826 478.475 198.383V124C478.475 122.343 479.818 121 481.475 121H489.016C490.673 121 492.016 122.343 492.016 124V184.705ZM478.475 78C478.475 79.6569 479.818 81 481.475 81H489.016C490.673 81 492.016 79.6569 492.016 78V3.60858V3.59989C492.016 2.16516 490.828 1 489.366 1H481.133C479.671 1 478.475 2.16516 478.475 3.59989V3.60858V78Z" fill="black"/>
<path fill-rule="evenodd" clip-rule="evenodd" d="M712.387 184.705C712.387 186.362 713.73 187.705 715.387 187.705H828.55C830.021 187.705 831.217 188.87 831.217 190.314V198.383C831.217 199.826 830.021 201 828.55 201H701.504C700.033 201 698.846 199.826 698.846 198.383V124C698.846 122.343 700.189 121 701.846 121H709.387C711.044 121 712.387 122.343 712.387 124V184.705ZM698.846 78C698.846 79.6569 700.189 81 701.846 81H709.387C711.044 81 712.387 79.6569 712.387 78V3.60858V3.59989C712.387 2.16516 711.199 1 709.737 1H701.504C700.042 1 698.846 2.16516 698.846 3.59989V3.60858V78Z" fill="black"/>
<path d="M239.935 1.81873C240.47 1.29397 241.189 1 241.939 1H387.614C388.363 1 389.082 1.29397 389.617 1.81873V1.81873C390.165 2.35667 390.474 3.0925 390.474 3.86059V10.5875C390.474 11.3556 390.165 12.0915 389.617 12.6294V12.6294C389.082 13.1542 388.363 13.4481 387.614 13.4481H241.939C241.189 13.4481 240.47 13.1542 239.935 12.6294V12.6294C239.387 12.0915 239.078 11.3556 239.078 10.5875V3.86059C239.078 3.0925 239.387 2.35667 239.935 1.81873V1.81873Z" fill="black" stroke="black"/>
<path d="M239.935 189.371C240.47 188.846 241.189 188.552 241.939 188.552H387.614C388.363 188.552 389.082 188.846 389.617 189.371V189.371C390.165 189.909 390.474 190.644 390.474 191.412V198.139C390.474 198.908 390.165 199.643 389.617 200.181V200.181C389.082 200.706 388.363 201 387.614 201H241.939C241.189 201 240.47 200.706 239.935 200.181V200.181C239.387 199.643 239.078 198.908 239.078 198.139V191.412C239.078 190.644 239.387 189.909 239.935 189.371V189.371Z" fill="black" stroke="black"/>
<path d="M239.935 94.7649C240.47 94.2401 241.189 93.9462 241.939 93.9462H387.614C388.363 93.9462 389.082 94.2401 389.617 94.7649V94.7649C390.165 95.3028 390.474 96.0387 390.474 96.8068V103.534C390.474 104.302 390.165 105.038 389.617 105.576V105.576C389.082 106.1 388.363 106.394 387.614 106.394H241.939C241.189 106.394 240.47 106.1 239.935 105.576V105.576C239.387 105.038 239.078 104.302 239.078 103.534V96.8068C239.078 96.0387 239.387 95.3028 239.935 94.7649V94.7649Z" fill="black" stroke="black"/>
<path fill-rule="evenodd" clip-rule="evenodd" d="M135.83 116.728C140.13 120.482 143.713 125.006 146.476 130.335L146.364 130.106C149.36 135.731 151.061 142.136 151.061 148.931V149.456L151.061 149.458C151.069 149.907 151.078 150.355 151.078 150.803C151.078 165.985 143.247 179.371 131.176 187.394L131.564 187.174C121.905 193.127 111.042 197.374 99.4168 199.485C97.6197 199.811 96 198.405 96 196.579V189.657C96 188.196 97.0531 186.954 98.4838 186.661C107.06 184.905 115.066 181.806 122.17 177.651L122.308 177.575C131.504 171.932 137.617 161.91 137.617 150.49C137.617 150.151 137.608 149.812 137.6 149.524V149.016C137.6 144.949 136.848 141.06 135.553 137.688L135.501 137.536C134.051 134.028 131.745 130.962 128.81 128.539L128.896 128.615C125.934 126.031 122.791 123.642 119.165 121.295L119.441 121.447C115.254 119.024 110.738 117.093 105.557 115.627C102.858 114.786 100.391 114.031 98.1586 113.366C96.8805 112.986 96 111.813 96 110.479V102.265C96 100.843 97.3451 99.8054 98.7184 100.174V100.174L99.9013 100.462C106.559 102.368 113.043 104.664 118.25 106.918L118.699 107.07C124.959 109.451 130.752 112.747 135.786 116.686L135.83 116.728ZM32.1031 177.49C38.7774 181.169 46.0025 183.998 53.6268 185.831C55.0056 186.162 56 187.381 56 188.799V195.836C56 197.702 54.3138 199.118 52.4894 198.727C42.2843 196.54 32.7491 192.806 24.263 187.851L24.0471 187.724C11.0176 179.795 1.86506 166.299 0.0259058 150.388V150.388C0.0259058 150.39 0.0237238 150.39 0.0235134 150.388C0.0078391 150.276 0 150.171 0 150.058C0 148.863 0.837548 147.863 1.98594 147.592L9.99024 145.688C9.99143 145.688 9.99123 145.686 9.99001 145.686V145.686C9.98879 145.686 9.98858 145.684 9.98976 145.684C10.1945 145.634 10.4075 145.61 10.6205 145.61C11.9415 145.61 13.0295 146.584 13.1849 147.855L13.1935 147.999C14.3074 160.656 21.7244 171.534 32.5349 177.71L32.1031 177.49ZM53.8832 88.5786C55.1384 88.9814 56 90.1424 56 91.4606V99.6373C56 101.144 54.5682 102.241 53.1195 101.826V101.826L52.0057 101.53C45.832 99.6488 39.8224 97.4037 34.9957 95.2094L34.5726 95.0569C28.5371 92.6085 22.9678 89.2705 18.1411 85.2887L18.1066 85.2548C13.7375 81.3407 10.1024 76.6471 7.31343 71.1234L7.42568 71.3691C4.42951 65.5318 2.74578 58.9405 2.74578 51.9596V51.4597C2.72851 50.9683 2.71987 50.4685 2.71987 49.9771C2.71987 35.3289 10.0765 22.3666 21.4913 14.3605L21.1718 14.5554C30.5214 8.50738 41.1685 4.24684 52.6161 2.2615C54.4026 1.95166 56 3.35441 56 5.16762V12.3546C56 13.8258 54.9315 15.0732 53.4885 15.3601C45.111 17.0256 37.3177 20.1194 30.4712 24.3152L30.359 24.383C21.8281 30 16.2156 39.5395 16.2156 50.3753C16.2156 50.7311 16.2243 51.0869 16.2329 51.3919V51.824C16.2329 56.7717 17.4504 61.4483 19.5399 65.3962L19.6349 65.5996C21.664 69.4883 24.3839 72.9787 27.665 75.927L27.5873 75.8677C31.5073 79.0786 35.9282 81.7134 41.0658 83.7552L40.1419 83.3909C44.4279 85.2701 48.8195 86.9534 53.8832 88.5786ZM99.6313 4.13292C97.7768 3.64258 96 5.0699 96 6.98819V14.2812C96 15.6468 96.9241 16.8344 98.2352 17.2168C104.696 19.1011 110.813 21.7702 116.471 25.1116L116.117 24.9167C125.952 30.9658 132.393 41.5474 132.393 53.6031C132.393 54.1538 132.376 54.7045 132.35 55.2552V56.8056C132.35 58.2119 133.507 59.3472 134.94 59.3472H142.962C144.395 59.3472 145.561 58.2119 145.561 56.8056V54.9078C145.578 54.4165 145.587 53.8488 145.587 53.2727C145.587 37.3707 137.349 23.3494 124.829 15.1061L124.656 15.0044C117.125 10.2393 108.685 6.52662 99.6313 4.13292Z" fill="black"/>
</svg>
