<svg width="897" height="173" viewBox="0 0 897 173" fill="none" xmlns="http://www.w3.org/2000/svg">
<path d="M130.333 104.571C128.613 101.19 126.382 98.3197 123.705 95.9386L123.679 95.9117C120.545 93.4124 116.938 91.3215 113.041 89.8111L112.762 89.7144C109.521 88.2846 105.484 86.828 101.34 85.6186L100.604 85.4359C97.2247 84.5114 92.5377 83.302 86.5427 81.8077C81.7859 80.679 77.8245 79.647 74.7661 78.7332C70.708 77.497 67.3755 76.2339 64.1397 74.788L64.7149 75.0191C61.5167 73.7237 58.7647 72.0521 56.3245 70.015L56.3729 70.0526C54.3304 68.1821 52.6372 65.9676 51.3741 63.5005L51.315 63.3715C50.0142 60.8667 49.2564 57.8997 49.2564 54.7607C49.2564 54.664 49.2564 54.5672 49.2564 54.4705V54.4866C49.251 54.2931 49.2456 54.0674 49.2456 53.8416C49.2456 46.967 52.7394 40.9147 58.0499 37.3511L58.1197 37.3081C64.7202 33.1855 72.7344 30.7399 81.3236 30.7399C82.2427 30.7399 83.1511 30.7667 84.0595 30.8205L83.9359 30.8151C84.6077 30.7829 85.3925 30.7614 86.188 30.7614C95.5029 30.7614 104.216 33.336 111.655 37.8134L111.434 37.6897C117.556 41.5275 121.566 48.2409 121.566 55.8895C121.566 56.2389 121.555 56.5882 121.539 56.9376V56.8892V57.9212C121.539 58.8135 122.26 59.5337 123.152 59.5337H128.145C129.037 59.5337 129.763 58.8135 129.763 57.9212V56.7172C129.774 56.4055 129.779 56.0454 129.779 55.6799C129.779 45.591 124.651 36.6954 116.858 31.4655L116.75 31.401C108.139 25.8486 97.6206 22.5484 86.3331 22.5484C85.4892 22.5484 84.6507 22.5645 83.8122 22.6021L83.9305 22.5967C83.0759 22.5484 82.0761 22.5161 81.071 22.5161C70.4554 22.5161 60.5815 25.6766 52.3309 31.1161L52.5297 30.9925C45.424 36.0719 40.8445 44.2956 40.8445 53.589C40.8445 53.9007 40.8499 54.2179 40.8606 54.5296V54.4866C40.8606 54.5941 40.8606 54.7177 40.8606 54.8467C40.8606 59.2757 41.9087 63.4575 43.7739 67.1609L43.704 67.005C45.4401 70.5095 47.703 73.4872 50.4227 75.9705L50.4442 75.992C53.4489 78.5182 56.9157 80.636 60.6729 82.1894L60.9362 82.2861C63.9409 83.6782 67.6819 85.1026 71.525 86.2959L72.2184 86.484C75.352 87.3977 79.4639 88.4459 84.4035 89.5907C89.4345 90.8485 93.1325 91.7945 95.476 92.4234C97.798 93.0469 100.937 93.9929 104.861 95.2399C108.086 96.1697 110.897 97.3952 113.504 98.9325L113.332 98.8357C115.589 100.325 117.546 101.84 119.389 103.48L119.336 103.431C121.163 104.969 122.598 106.914 123.501 109.14L123.533 109.236C124.34 111.376 124.807 113.843 124.807 116.423C124.807 116.536 124.807 116.648 124.807 116.761V116.745C124.813 116.928 124.818 117.143 124.818 117.358C124.818 124.603 121.013 130.962 115.288 134.542L115.202 134.59C108.07 138.842 99.475 141.352 90.2891 141.352C89.327 141.352 88.3649 141.325 87.4189 141.271L87.5479 141.277C86.8921 141.304 86.1235 141.32 85.3549 141.32C75.8304 141.32 66.8864 138.842 59.1356 134.488L59.4044 134.628C52.6749 130.709 48.0577 123.808 47.3644 115.778L47.359 115.686C47.2622 114.88 46.585 114.262 45.7626 114.262C45.6282 114.262 45.4939 114.278 45.3649 114.31H45.3756L40.3876 115.52C39.6727 115.692 39.1514 116.326 39.1514 117.084C39.1514 117.159 39.1567 117.229 39.1675 117.304V117.293C40.3124 127.388 46.0099 135.95 54.1207 140.981L54.2551 141.062C63.0271 146.281 73.5997 149.366 84.8926 149.366C85.7687 149.366 86.6341 149.35 87.4995 149.312L87.3759 149.318C88.3165 149.371 89.413 149.404 90.5149 149.404C101.732 149.404 112.203 146.189 121.05 140.632L120.808 140.771C128.323 135.681 133.198 127.189 133.198 117.557C133.198 117.272 133.192 116.987 133.187 116.702V116.745C133.187 116.632 133.187 116.503 133.187 116.369C133.187 112.058 132.128 107.995 130.263 104.426L130.333 104.571Z" fill="black"/>
<path d="M155 26.5C155.32 26.1799 155.754 26 156.207 26H242.293C242.746 26 243.18 26.1799 243.5 26.5V26.5C243.82 26.8201 244 27.2544 244 27.7071V31.7929C244 32.2456 243.82 32.6799 243.5 33V33C243.18 33.3201 242.746 33.5 242.293 33.5H156.207C155.754 33.5 155.32 33.3201 155 33V33C154.68 32.6799 154.5 32.2456 154.5 31.7929V27.7071C154.5 27.2544 154.68 26.8201 155 26.5V26.5Z" fill="black" stroke="black"/>
<path d="M155 139.5C155.32 139.18 155.754 139 156.207 139H242.293C242.746 139 243.18 139.18 243.5 139.5V139.5C243.82 139.82 244 140.254 244 140.707V144.793C244 145.246 243.82 145.68 243.5 146V146C243.18 146.32 242.746 146.5 242.293 146.5H156.207C155.754 146.5 155.32 146.32 155 146V146C154.68 145.68 154.5 145.246 154.5 144.793V140.707C154.5 140.254 154.68 139.82 155 139.5V139.5Z" fill="black" stroke="black"/>
<path d="M155 82.5C155.32 82.1799 155.754 82 156.207 82H242.293C242.746 82 243.18 82.1799 243.5 82.5V82.5C243.82 82.8201 244 83.2544 244 83.7071V87.7929C244 88.2456 243.82 88.6799 243.5 89V89C243.18 89.3201 242.746 89.5 242.293 89.5H156.207C155.754 89.5 155.32 89.3201 155 89V89C154.68 88.6799 154.5 88.2456 154.5 87.7929V83.7071C154.5 83.2544 154.68 82.8201 155 82.5V82.5Z" fill="black" stroke="black"/>
<path d="M352.622 140.562H282.166V26.7624C282.166 26.7624 282.166 26.7624 282.166 26.757C282.166 25.8702 281.446 25.1499 280.559 25.1499H275.566C274.679 25.1499 273.953 25.8702 273.953 26.757C273.953 26.757 273.953 26.757 273.953 26.7624V147.162C273.953 148.055 274.673 148.78 275.566 148.78H352.622C353.514 148.78 354.24 148.055 354.24 147.162V142.174C354.24 141.282 353.514 140.562 352.622 140.562Z" fill="black"/>
<path d="M452.622 139.562H382.166V25.7624C382.166 25.7624 382.166 25.7624 382.166 25.757C382.166 24.8702 381.446 24.1499 380.559 24.1499H375.566C374.679 24.1499 373.953 24.8702 373.953 25.757C373.953 25.757 373.953 25.757 373.953 25.7624V146.162C373.953 147.055 374.673 147.78 375.566 147.78H452.622C453.514 147.78 454.239 147.055 454.239 146.162V141.174C454.239 140.282 453.514 139.562 452.622 139.562Z" fill="black"/>
<path d="M580.091 40.9631C568.927 29.6218 553.41 22.5913 536.253 22.5913C535.844 22.5913 535.436 22.5967 535.027 22.6021H535.086C534.839 22.5967 534.549 22.5967 534.258 22.5967C499.627 22.5967 471.554 50.6703 471.554 85.3014C471.554 85.5326 471.554 85.7691 471.559 86.0002V85.9626C471.559 86.1668 471.554 86.4033 471.554 86.6398C471.554 121.26 499.622 149.328 534.242 149.328C534.538 149.328 534.839 149.328 535.135 149.323H535.092C535.296 149.323 535.538 149.328 535.78 149.328C570.4 149.328 598.463 121.266 598.463 86.6452C598.463 86.4033 598.463 86.1668 598.457 85.9303V85.9679C598.463 85.6239 598.468 85.2154 598.468 84.8069C598.468 67.6499 591.438 52.1323 580.102 40.9738L580.091 40.9631ZM535.086 141.105C534.925 141.105 534.731 141.105 534.538 141.105C504.384 141.105 479.939 116.659 479.939 86.5054C479.939 86.3119 479.939 86.1238 479.944 85.9303V85.9572C479.944 85.7959 479.944 85.6132 479.944 85.4251C479.944 55.2606 504.395 30.8097 534.559 30.8097C534.748 30.8097 534.93 30.8097 535.118 30.8151H535.092C535.242 30.8151 535.414 30.8151 535.591 30.8151C565.681 30.8151 590.072 55.2068 590.072 85.2961C590.072 85.5326 590.072 85.7637 590.067 85.9948V85.9572C590.067 86.1561 590.072 86.3926 590.072 86.6291C590.072 116.713 565.686 141.105 535.597 141.105C535.419 141.105 535.237 141.105 535.059 141.105H535.086Z" fill="black"/>
<path d="M735.708 24.1499H730.72C729.827 24.1499 729.102 24.8702 729.102 25.7624V101.098C729.123 101.555 729.134 102.093 729.134 102.636C729.134 113.337 724.813 123.028 717.82 130.054C710.107 136.966 699.867 141.185 688.639 141.185C687.709 141.185 686.79 141.158 685.876 141.099L686 141.105C685.21 141.153 684.29 141.185 683.366 141.185C672.143 141.185 661.904 136.96 654.158 130.016L654.201 130.054C647.198 123.028 642.865 113.337 642.865 102.63C642.865 102.093 642.876 101.555 642.898 101.023V101.098V25.7624C642.898 25.7624 642.898 25.7624 642.898 25.757C642.898 24.8702 642.177 24.1499 641.29 24.1499H636.297C635.41 24.1499 634.685 24.8702 634.685 25.757C634.685 25.757 634.685 25.757 634.685 25.7624V101.276C634.668 101.717 634.663 102.233 634.663 102.749C634.663 115.643 639.882 127.323 648.326 135.783C657.448 144.227 669.692 149.404 683.146 149.404C684.151 149.404 685.15 149.377 686.145 149.318L686.005 149.323C686.892 149.377 687.924 149.409 688.967 149.409C702.426 149.409 714.67 144.227 723.818 135.751L723.786 135.783C732.171 127.307 737.352 115.643 737.352 102.775C737.352 102.249 737.342 101.722 737.326 101.201V101.276V25.7624C737.326 24.8702 736.605 24.1499 735.713 24.1499H735.708Z" fill="black"/>
<path d="M862.428 24.1499H765.248C764.361 24.1499 763.636 24.8702 763.636 25.757C763.636 25.757 763.636 25.757 763.636 25.7624V30.7558C763.636 31.6427 764.356 32.3683 765.243 32.3683H809.732V146.168C809.732 147.06 810.452 147.786 811.344 147.786H816.332C817.224 147.786 817.945 147.065 817.945 146.173V32.3683H862.428C863.32 32.3683 864.046 31.648 864.046 30.7558V25.7624C864.046 24.8702 863.32 24.1499 862.428 24.1499Z" fill="black"/>
</svg>
