<svg width="371" height="52" viewBox="0 0 371 52" fill="none" xmlns="http://www.w3.org/2000/svg">
<path d="M56.7591 1.54885C56.9239 1.25002 57.2382 1.06445 57.5795 1.06445H90.0463C90.3876 1.06445 90.7018 1.25002 90.8666 1.54885C90.9431 1.68742 90.9832 1.84309 90.9832 2.00134V5.34485C90.9832 5.5031 90.9431 5.65877 90.8666 5.79734C90.7018 6.09616 90.3876 6.28173 90.0463 6.28173H57.5795C57.2382 6.28173 56.9239 6.09616 56.7591 5.79734C56.6827 5.65877 56.6426 5.5031 56.6426 5.34485V2.00134C56.6426 1.84309 56.6827 1.68742 56.7591 1.54885Z" fill="white" stroke="white"/>
<path d="M56.7591 46.3994C56.9239 46.1006 57.2382 45.915 57.5795 45.915H90.0463C90.3876 45.915 90.7018 46.1006 90.8666 46.3994C90.9431 46.538 90.9832 46.6937 90.9832 46.8519V50.1954C90.9832 50.3537 90.9431 50.5094 90.8666 50.6479C90.7018 50.9468 90.3876 51.1323 90.0463 51.1323H57.5795C57.2382 51.1323 56.9239 50.9468 56.7591 50.6479C56.6827 50.5094 56.6426 50.3537 56.6426 50.1954V46.8519C56.6426 46.6937 56.6827 46.538 56.7591 46.3994Z" fill="white" stroke="white"/>
<path d="M56.7591 23.9741C56.9239 23.6753 57.2382 23.4897 57.5795 23.4897H90.0463C90.3875 23.4897 90.7018 23.6753 90.8666 23.9741C90.9431 24.1127 90.9832 24.2684 90.9832 24.4266V27.7701C90.9832 27.9284 90.9431 28.0841 90.8666 28.2226C90.7018 28.5215 90.3876 28.707 90.0463 28.707H57.5795C57.2382 28.707 56.9239 28.5215 56.7591 28.2226C56.6827 28.0841 56.6426 27.9284 56.6426 27.7701V24.4266C56.6426 24.2684 56.6827 24.1127 56.7591 23.9741Z" fill="white" stroke="white"/>
<g clip-path="url(#clip0_3247_989)">
<path fill-rule="evenodd" clip-rule="evenodd" d="M349.826 30.6915C348.261 30.6915 346.992 31.9604 346.992 33.5257V48.2359C346.992 49.8012 348.261 51.0701 349.826 51.0701C351.391 51.0701 352.66 49.8012 352.66 48.2359V33.5257C352.66 31.9604 351.391 30.6915 349.826 30.6915ZM349.826 21.5557C351.391 21.5557 352.66 20.2868 352.66 18.7215V9.40363C352.66 7.74677 354.003 6.40363 355.66 6.40363H367.435C368.917 6.40363 370.118 5.2024 370.118 3.72061C370.118 2.23882 368.917 1.0376 367.435 1.0376H332.216C330.734 1.0376 329.533 2.23882 329.533 3.72061C329.533 5.2024 330.734 6.40363 332.216 6.40363H343.992C345.649 6.40363 346.992 7.74677 346.992 9.40362V18.7215C346.992 20.2868 348.261 21.5557 349.826 21.5557Z" fill="white"/>
</g>
<g clip-path="url(#clip1_3247_989)">
<path fill-rule="evenodd" clip-rule="evenodd" d="M292.189 50.9213C288.119 50.9213 284.496 50.0278 281.319 48.2409C278.192 46.4043 275.735 43.8481 273.948 40.5722C272.804 38.4743 272.026 36.1525 271.614 33.6068C271.36 32.0328 272.646 30.6915 274.241 30.6915C275.724 30.6915 276.921 31.8597 277.167 33.3221C277.507 35.3434 278.122 37.09 279.011 38.5619C280.5 40.9444 282.411 42.7066 284.744 43.8481C287.126 44.9402 289.608 45.4861 292.189 45.4861C294.82 45.4861 297.302 44.9402 299.635 43.8481C301.967 42.7066 303.878 40.9444 305.367 38.5619C306.288 37.0888 306.924 35.3405 307.276 33.3171C307.529 31.8575 308.726 30.6915 310.207 30.6915C311.803 30.6915 313.091 32.0353 312.831 33.6102C312.417 36.1171 311.642 38.4129 310.505 40.4977C308.718 43.7737 306.236 46.3299 303.059 48.1665C299.932 50.0031 296.309 50.9213 292.189 50.9213ZM310.393 21.5556C311.935 21.5556 313.185 20.3056 313.185 18.7636V3.82913C313.185 2.28714 311.935 1.03711 310.393 1.03711C308.851 1.03711 307.601 2.28714 307.601 3.82913V18.7636C307.601 20.3056 308.851 21.5556 310.393 21.5556ZM276.852 18.7636C276.852 20.3056 275.602 21.5556 274.06 21.5556C272.518 21.5556 271.268 20.3056 271.268 18.7636V3.82913C271.268 2.28714 272.518 1.03711 274.06 1.03711C275.602 1.03711 276.852 2.28714 276.852 3.82913V18.7636Z" fill="white"/>
</g>
<path fill-rule="evenodd" clip-rule="evenodd" d="M230.288 50.923C226.606 50.923 223.243 50.2848 220.2 49.0086C217.156 47.7323 214.53 45.9405 212.321 43.6334C210.161 41.3263 208.492 38.6755 207.314 35.681C207.089 35.0998 206.886 34.5113 206.704 33.9158C206.197 32.2584 207.522 30.6916 209.255 30.6916C210.583 30.6916 211.708 31.6324 212.114 32.8962C212.447 33.9315 212.86 34.9334 213.352 35.9019C214.923 38.8472 217.156 41.2035 220.053 42.9707C222.949 44.6887 226.361 45.5478 230.288 45.5478C234.264 45.5478 237.675 44.6887 240.523 42.9707C243.419 41.2035 245.628 38.8472 247.149 35.9019C247.659 34.9312 248.085 33.9269 248.43 32.889C248.848 31.6286 249.974 30.6916 251.302 30.6916C253.044 30.6916 254.377 32.2668 253.866 33.9327C253.686 34.5225 253.484 35.1053 253.261 35.681C252.083 38.6755 250.389 41.3263 248.18 43.6334C246.021 45.9405 243.419 47.7323 240.375 49.0086C237.332 50.2848 233.969 50.923 230.288 50.923ZM251.413 21.5558C253.137 21.5558 254.465 20.0098 253.983 18.3551C253.774 17.6377 253.533 16.9333 253.261 16.242C252.083 13.2476 250.389 10.5968 248.18 8.28965C246.021 5.98249 243.419 4.19075 240.375 2.91445C237.332 1.63815 233.969 1 230.288 1C226.606 1 223.243 1.63815 220.2 2.91445C217.156 4.19075 214.53 5.98249 212.321 8.28965C210.161 10.5968 208.492 13.2476 207.314 16.242C207.04 16.9381 206.798 17.6474 206.588 18.3701C206.109 20.0172 207.431 21.5558 209.146 21.5558C210.491 21.5558 211.624 20.5907 212.017 19.305C212.365 18.1637 212.811 17.0691 213.352 16.0211C214.923 13.0758 217.156 10.7441 220.053 9.02597C222.949 7.25879 226.361 6.37519 230.288 6.37519C234.264 6.37519 237.675 7.25879 240.523 9.02597C243.419 10.7441 245.628 13.0758 247.149 16.0211C247.71 17.0712 248.17 18.1681 248.53 19.3118C248.934 20.5943 250.069 21.5558 251.413 21.5558Z" fill="white"/>
<g clip-path="url(#clip2_3247_989)">
<path fill-rule="evenodd" clip-rule="evenodd" d="M110.009 30.8062C108.444 30.8062 107.176 32.0749 107.176 33.6399V48.0706C107.176 49.7274 108.519 51.0706 110.176 51.0706H137.401C138.904 51.0706 140.122 49.8524 140.122 48.3498C140.122 46.8471 138.904 45.629 137.401 45.629H115.843C114.186 45.629 112.843 44.2858 112.843 42.629V33.6399C112.843 32.0749 111.574 30.8062 110.009 30.8062ZM110.009 21.5561C111.574 21.5561 112.843 20.2875 112.843 18.7225V3.87176C112.843 2.30677 111.574 1.03809 110.009 1.03809C108.444 1.03809 107.176 2.30677 107.176 3.87176V18.7225C107.176 20.2875 108.444 21.5561 110.009 21.5561Z" fill="white"/>
</g>
<g clip-path="url(#clip3_3247_989)">
<path fill-rule="evenodd" clip-rule="evenodd" d="M159.363 30.8062C157.798 30.8062 156.529 32.0749 156.529 33.6399V48.0706C156.529 49.7274 157.872 51.0706 159.529 51.0706H186.755C188.257 51.0706 189.476 49.8524 189.476 48.3498C189.476 46.8471 188.257 45.629 186.755 45.629H165.197C163.54 45.629 162.197 44.2858 162.197 42.629V33.6399C162.197 32.0749 160.928 30.8062 159.363 30.8062ZM159.363 21.5561C160.928 21.5561 162.197 20.2875 162.197 18.7225V3.87176C162.197 2.30677 160.928 1.03809 159.363 1.03809C157.798 1.03809 156.529 2.30677 156.529 3.87176V18.7225C156.529 20.2875 157.798 21.5561 159.363 21.5561Z" fill="white"/>
</g>
<g clip-path="url(#clip4_3247_989)">
<path fill-rule="evenodd" clip-rule="evenodd" d="M9.50536 49.0085C10.6649 49.5023 11.9605 49.9006 13.3921 50.2033C15.0063 50.5447 16.4439 49.2419 16.4439 47.592C16.4439 46.2464 15.4719 45.1132 14.1747 44.7554C14.0671 44.7257 13.9599 44.6953 13.8532 44.6642C11.5442 43.977 9.67731 42.9215 8.2526 41.498C7.39687 40.6134 6.77155 39.5695 6.37663 38.3662C5.90988 36.9441 4.72843 35.7546 3.23165 35.7546C1.57165 35.7546 0.242618 37.1863 0.657134 38.7937C1.09762 40.5018 1.78714 42.0905 2.7257 43.5597C4.24868 45.8668 6.50855 47.6831 9.50536 49.0085ZM35.3712 47.3149C33.1276 48.8842 30.3404 49.9416 27.0095 50.487C25.5074 50.733 24.2094 49.518 24.2094 47.9958C24.2094 46.6356 25.2565 45.5236 26.5931 45.2714C28.4571 44.9198 30.0567 44.3492 31.3919 43.5597C33.7992 42.087 35.0028 39.9272 35.0028 37.08C35.0028 35.362 34.3887 33.9874 33.1605 32.9566C31.9814 31.8766 30.3847 30.993 28.3705 30.3058C27.6566 30.0562 26.9169 29.8162 26.1512 29.586C25.0121 29.2435 24.2094 28.2094 24.2094 27.02V26.8707C24.2094 25.2285 25.7623 24.0294 27.3388 24.4888C29.7462 25.127 31.9322 25.9614 33.8974 26.9923C35.9116 27.974 37.5083 29.2504 38.6874 30.8212C39.9156 32.392 40.5297 34.4047 40.5297 36.8591C40.5297 41.3752 38.8103 44.8606 35.3712 47.3149ZM16.4439 23.712C16.4439 22.5395 15.6562 21.5179 14.5331 21.1812C14.2032 21.0823 13.8784 20.9822 13.5584 20.8808C11.5933 20.1936 9.99665 19.359 8.76845 18.3773C7.58937 17.3464 6.99984 16.021 6.99984 14.4011C6.99984 13.5666 7.14722 12.683 7.44199 11.7503C7.78589 10.8176 8.39999 9.93404 9.28429 9.09954C10.2177 8.21595 11.5442 7.50416 13.2637 6.96419C13.546 6.87554 13.8422 6.79416 14.1523 6.72006C15.4402 6.41235 16.4439 5.33035 16.4439 4.00625C16.4439 2.47591 15.1233 1.26056 13.621 1.55243C10.5744 2.14438 8.09712 3.21197 6.18923 4.75521C3.1433 7.25872 1.62032 10.4986 1.62032 14.4747C1.62032 16.8801 2.20986 18.8682 3.38893 20.439C4.61714 21.9608 6.21378 23.2126 8.17891 24.1943C10.1932 25.176 12.3794 25.9859 14.7375 26.6241C15.6001 26.8528 16.4439 26.2014 16.4439 25.3089V23.712ZM27.1407 1.76609C25.6019 1.39125 24.2094 2.63672 24.2094 4.22056C24.2094 5.51449 25.1581 6.58792 26.3964 6.9631C27.7936 7.3864 28.9675 7.97583 29.918 8.73138C31.3064 9.80337 32.3097 11.0374 32.928 12.4333C33.5247 13.7808 34.7117 14.9165 36.1854 14.9165C37.862 14.9165 39.2229 13.4848 38.7424 11.8785C38.3455 10.5518 37.7376 9.28188 36.9188 8.06869C35.5431 5.95787 33.4553 4.26432 30.655 2.98802C29.593 2.48541 28.4216 2.0781 27.1407 1.76609Z" fill="white"/>
</g>
<defs>
<clipPath id="clip0_3247_989">
<rect x="329.42" y="1" width="40.812" height="50.0703" rx="3" fill="white"/>
</clipPath>
<clipPath id="clip1_3247_989">
<rect x="271.23" y="1" width="42.0665" height="50.0703" rx="3" fill="white"/>
</clipPath>
<clipPath id="clip2_3247_989">
<rect x="107.1" y="1" width="33.0596" height="50.0703" rx="3" fill="white"/>
</clipPath>
<clipPath id="clip3_3247_989">
<rect x="156.453" y="1" width="33.0596" height="50.0703" rx="3" fill="white"/>
</clipPath>
<clipPath id="clip4_3247_989">
<rect width="40.5306" height="50.0703" fill="white" transform="translate(0 1)"/>
</clipPath>
</defs>
</svg>
