<svg width="95" height="95" viewBox="0 0 95 95" fill="none" xmlns="http://www.w3.org/2000/svg">
<g clip-path="url(#clip0_4780_412)">
<path d="M47.5 89.0625C36.4769 89.0625 25.9054 84.6836 18.1109 76.8891C10.3164 69.0946 5.9375 58.5231 5.9375 47.5C5.9375 36.4769 10.3164 25.9054 18.1109 18.1109C25.9054 10.3164 36.4769 5.9375 47.5 5.9375C58.5231 5.9375 69.0946 10.3164 76.8891 18.1109C84.6836 25.9054 89.0625 36.4769 89.0625 47.5C89.0625 58.5231 84.6836 69.0946 76.8891 76.8891C69.0946 84.6836 58.5231 89.0625 47.5 89.0625ZM47.5 95C60.0978 95 72.1796 89.9956 81.0876 81.0876C89.9956 72.1796 95 60.0978 95 47.5C95 34.9022 89.9956 22.8204 81.0876 13.9124C72.1796 5.00445 60.0978 0 47.5 0C34.9022 0 22.8204 5.00445 13.9124 13.9124C5.00445 22.8204 0 34.9022 0 47.5C0 60.0978 5.00445 72.1796 13.9124 81.0876C22.8204 89.9956 34.9022 95 47.5 95Z" fill="black"/>
<path fill-rule="evenodd" clip-rule="evenodd" d="M36.6322 70.5455C38.6229 71.3811 41.0033 71.9471 43.7733 72.2435V66.7483C42.856 66.5888 41.9672 66.3855 41.107 66.1384C38.7305 65.4413 36.8091 64.3705 35.3428 62.9264C33.8765 61.4324 33.0675 59.4903 32.9158 57.1H27C27.2528 60.038 28.1377 62.6775 29.6545 65.0179C31.222 67.3584 33.5479 69.201 36.6322 70.5455ZM63.2534 68.8275C60.3244 70.8468 56.4951 72.0305 51.7656 72.3788V67.0776C54.7656 66.8284 57.2296 66.1418 59.1578 65.0179C61.6355 63.524 62.8742 61.3329 62.8742 58.4446C62.8742 56.7017 62.2422 55.3073 60.9781 54.2615C59.7646 53.1659 58.1213 52.2695 56.0482 51.5724C54.7093 51.1109 53.2818 50.6821 51.7656 50.286V44.7938C52.8441 45.0718 53.9177 45.3644 54.9864 45.6713C57.4641 46.3188 59.714 47.1653 61.7365 48.211C63.8096 49.2069 65.4529 50.5018 66.6664 52.0953C67.9305 53.6888 68.5625 55.7306 68.5625 58.2205C68.5625 62.8018 66.7929 66.3376 63.2534 68.8275ZM43.7733 42.8678C42.7412 42.5927 41.7512 42.3071 40.8036 42.0112C38.7811 41.3141 37.1378 40.4674 35.8737 39.4715C34.6602 38.4257 34.0535 37.0812 34.0535 35.4378C34.0535 34.5912 34.2052 33.6949 34.5086 32.7487C34.8625 31.8025 35.4945 30.9062 36.4047 30.0596C37.3654 29.1632 38.7305 28.4412 40.5002 27.8934C41.4412 27.6021 42.5322 27.3883 43.7733 27.2519V22C39.2758 22.411 35.7578 23.6285 33.2192 25.6525C30.0843 28.1922 28.5169 31.4789 28.5169 35.5125C28.5169 37.9526 29.1236 39.9695 30.3371 41.563C31.6012 43.1068 33.2445 44.3766 35.267 45.3725C37.3401 46.3684 39.5901 47.1901 42.0171 47.8376C42.6039 47.9909 43.1893 48.1428 43.7733 48.2934V42.8678ZM51.7656 22.0875V27.387C54.2304 27.782 56.1888 28.5484 57.641 29.6861C59.8657 31.3793 61.1298 33.4708 61.4332 35.9607H67.2732C67.1215 33.4708 66.3124 31.1552 64.8461 29.0139C63.4303 26.8725 61.2815 25.1545 58.3994 23.8597C56.521 22.9834 54.3098 22.3927 51.7656 22.0875Z" fill="black"/>
</g>
<defs>
<clipPath id="clip0_4780_412">
<rect width="95" height="95" fill="white"/>
</clipPath>
</defs>
</svg>
