<svg width="34" height="34" viewBox="0 0 34 34" fill="none" xmlns="http://www.w3.org/2000/svg">
<circle cx="17" cy="17" r="16" stroke="black" stroke-width="2"/>
<g clip-path="url(#clip0_2365_5291)">
<path d="M17 8C14.6131 8 12.3239 8.94821 10.636 10.636C8.94821 12.3239 8 14.6131 8 17C8 19.3869 8.94821 21.6761 10.636 23.364C12.3239 25.0518 14.6131 26 17 26C19.3869 26 21.6761 25.0518 23.364 23.364C25.0518 21.6761 26 19.3869 26 17C26 14.6131 25.0518 12.3239 23.364 10.636C21.6761 8.94821 19.3869 8 17 8ZM10.295 12.8668C10.6606 14.3619 13.1435 15.7242 14.4766 16.4555C15.0166 16.7514 15.3688 16.9438 15.3125 17C15.2217 17.09 15.131 17.1778 15.0402 17.2633C14.5722 17.7087 14.1549 18.1059 14.1875 18.6875C14.2269 19.4008 14.8828 19.6145 15.5533 19.8316C16.2024 20.0431 16.8673 20.2591 17 20.9375C17.0922 21.4066 16.9156 22.049 16.7525 22.6475C16.5106 23.5273 16.2957 24.3125 17 24.3125C18.6875 23.75 21.2727 20.7282 21.5 18.6875C21.6552 17.2891 19.25 16.4375 17.5625 15.875C17.0247 15.695 16.7131 15.9661 16.4488 16.1945C16.2552 16.3632 16.0865 16.5084 15.875 16.4375C15.3744 16.271 13.0625 14.1875 14.1875 13.625C15.065 13.1863 15.2585 13.4326 15.5679 13.8298C15.6556 13.9411 15.7512 14.0637 15.875 14.1875C16.5601 14.5295 16.6198 14.039 16.6884 13.4754C16.7323 13.1131 16.7795 12.7205 17 12.5C17.4882 12.0118 18.4231 11.6101 19.2815 11.24C20.0825 10.8958 20.8171 10.5796 21.0579 10.25C22.3958 11.0545 23.4643 12.2385 24.1279 13.6517C24.7914 15.0648 25.02 16.6432 24.7845 18.1865C24.549 19.7298 23.8602 21.1683 22.8054 22.3192C21.7507 23.4702 20.3777 24.2817 18.8608 24.6507C17.3438 25.0196 15.7515 24.9294 14.286 24.3915C12.8204 23.8535 11.5478 22.8921 10.6299 21.6294C9.7119 20.3666 9.18995 18.8595 9.13032 17.2995C9.0707 15.7395 9.47609 14.1959 10.295 12.8668Z" fill="black"/>
</g>
<defs>
<clipPath id="clip0_2365_5291">
<rect width="18" height="18" fill="white" transform="translate(8 8)"/>
</clipPath>
</defs>
</svg>
