<svg width="161" height="123" viewBox="0 0 161 123" fill="none" xmlns="http://www.w3.org/2000/svg">
<path d="M10.0625 11.1875C10.0625 8.51876 11.1227 5.95932 13.0097 4.07224C14.8968 2.18515 17.4563 1.125 20.125 1.125H140.875C143.544 1.125 146.103 2.18515 147.99 4.07224C149.877 5.95932 150.938 8.51876 150.938 11.1875H10.0625ZM80.5 91.6875C85.8375 91.6875 90.9564 89.5672 94.7305 85.793C98.5047 82.0189 100.625 76.9 100.625 71.5625C100.625 66.225 98.5047 61.1061 94.7305 57.332C90.9564 53.5578 85.8375 51.4375 80.5 51.4375C75.1625 51.4375 70.0436 53.5578 66.2695 57.332C62.4953 61.1061 60.375 66.225 60.375 71.5625C60.375 76.9 62.4953 82.0189 66.2695 85.793C70.0436 89.5672 75.1625 91.6875 80.5 91.6875Z" fill="#0A630A"/>
<path d="M0 31.3125C0 28.6438 1.06015 26.0843 2.94724 24.1972C4.83432 22.3102 7.39376 21.25 10.0625 21.25H150.938C153.606 21.25 156.166 22.3102 158.053 24.1972C159.94 26.0843 161 28.6438 161 31.3125V111.812C161 114.481 159.94 117.041 158.053 118.928C156.166 120.815 153.606 121.875 150.938 121.875H10.0625C7.39376 121.875 4.83432 120.815 2.94724 118.928C1.06015 117.041 0 114.481 0 111.812V31.3125ZM30.1875 31.3125C30.1875 36.65 28.0672 41.7689 24.293 45.543C20.5189 49.3172 15.4 51.4375 10.0625 51.4375V91.6875C15.4 91.6875 20.5189 93.8078 24.293 97.582C28.0672 101.356 30.1875 106.475 30.1875 111.812H130.812C130.812 106.475 132.933 101.356 136.707 97.582C140.481 93.8078 145.6 91.6875 150.938 91.6875V51.4375C145.6 51.4375 140.481 49.3172 136.707 45.543C132.933 41.7689 130.812 36.65 130.812 31.3125H30.1875Z" fill="#0A630A"/>
</svg>
