<svg width="70" height="70" viewBox="0 0 70 70" fill="none" xmlns="http://www.w3.org/2000/svg">
<path d="M0 17.5C0 15.1794 0.921872 12.9538 2.56282 11.3128C4.20376 9.67187 6.42936 8.75 8.75 8.75H61.25C63.5706 8.75 65.7962 9.67187 67.4372 11.3128C69.0781 12.9538 70 15.1794 70 17.5V52.5C70 54.8206 69.0781 57.0462 67.4372 58.6872C65.7962 60.3281 63.5706 61.25 61.25 61.25H8.75C6.42936 61.25 4.20376 60.3281 2.56282 58.6872C0.921872 57.0462 0 54.8206 0 52.5V17.5ZM8.75 13.125C7.58968 13.125 6.47688 13.5859 5.65641 14.4064C4.83594 15.2269 4.375 16.3397 4.375 17.5V21.875H65.625V17.5C65.625 16.3397 65.1641 15.2269 64.3436 14.4064C63.5231 13.5859 62.4103 13.125 61.25 13.125H8.75ZM65.625 30.625H4.375V52.5C4.375 53.6603 4.83594 54.7731 5.65641 55.5936C6.47688 56.4141 7.58968 56.875 8.75 56.875H61.25C62.4103 56.875 63.5231 56.4141 64.3436 55.5936C65.1641 54.7731 65.625 53.6603 65.625 52.5V30.625Z" fill="url(#paint0_linear_4508_240)"/>
<path d="M8.75 43.75C8.75 42.5897 9.21094 41.4769 10.0314 40.6564C10.8519 39.8359 11.9647 39.375 13.125 39.375H17.5C18.6603 39.375 19.7731 39.8359 20.5936 40.6564C21.4141 41.4769 21.875 42.5897 21.875 43.75V48.125C21.875 49.2853 21.4141 50.3981 20.5936 51.2186C19.7731 52.0391 18.6603 52.5 17.5 52.5H13.125C11.9647 52.5 10.8519 52.0391 10.0314 51.2186C9.21094 50.3981 8.75 49.2853 8.75 48.125V43.75Z" fill="url(#paint1_linear_4508_240)"/>
<defs>
<linearGradient id="paint0_linear_4508_240" x1="35" y1="8.75" x2="35" y2="61.25" gradientUnits="userSpaceOnUse">
<stop stop-color="#9FFF04"/>
<stop offset="1" stop-color="#2D3A17"/>
</linearGradient>
<linearGradient id="paint1_linear_4508_240" x1="15.3125" y1="39.375" x2="15.3125" y2="52.5" gradientUnits="userSpaceOnUse">
<stop stop-color="#9FFF04"/>
<stop offset="1" stop-color="#2D3A17"/>
</linearGradient>
</defs>
</svg>
