<svg width="113" height="113" viewBox="0 0 113 113" fill="none" xmlns="http://www.w3.org/2000/svg">
<g clip-path="url(#clip0_4377_318)">
<path d="M56.5 105.938C43.3884 105.938 30.8137 100.729 21.5424 91.4576C12.2711 82.1863 7.0625 69.6116 7.0625 56.5C7.0625 43.3884 12.2711 30.8137 21.5424 21.5424C30.8137 12.2711 43.3884 7.0625 56.5 7.0625C69.6116 7.0625 82.1863 12.2711 91.4576 21.5424C100.729 30.8137 105.938 43.3884 105.938 56.5C105.938 69.6116 100.729 82.1863 91.4576 91.4576C82.1863 100.729 69.6116 105.938 56.5 105.938ZM56.5 113C71.4847 113 85.8557 107.047 96.4515 96.4515C107.047 85.8557 113 71.4847 113 56.5C113 41.5153 107.047 27.1443 96.4515 16.5485C85.8557 5.95266 71.4847 0 56.5 0C41.5153 0 27.1443 5.95266 16.5485 16.5485C5.95266 27.1443 0 41.5153 0 56.5C0 71.4847 5.95266 85.8557 16.5485 96.4515C27.1443 107.047 41.5153 113 56.5 113Z" fill="url(#paint0_linear_4377_318)"/>
<path d="M30.2626 67.5669C31.0736 67.0987 32.0375 66.9718 32.9421 67.2142C33.8467 67.4565 34.618 68.0483 35.0863 68.8594C37.2553 72.619 40.3765 75.7408 44.1357 77.9106C47.8949 80.0803 52.1594 81.2213 56.4998 81.2188C60.8402 81.2213 65.1047 80.0803 68.8639 77.9106C72.6231 75.7408 75.7443 72.619 77.9133 68.8594C78.1435 68.4545 78.4514 68.0992 78.8195 67.8139C79.1876 67.5286 79.6084 67.3188 80.0578 67.1968C80.5073 67.0748 80.9764 67.0429 81.4382 67.1029C81.9 67.1629 82.3454 67.3137 82.7487 67.5466C83.152 67.7794 83.5053 68.0898 83.7882 68.4597C84.0711 68.8296 84.278 69.2519 84.397 69.7021C84.516 70.1524 84.5449 70.6217 84.4818 71.0831C84.4187 71.5445 84.2649 71.9889 84.0294 72.3906C81.2406 77.2239 77.2279 81.2372 72.3951 84.0268C67.5623 86.8164 62.0799 88.2838 56.4998 88.2812C50.9197 88.2838 45.4373 86.8164 40.6045 84.0268C35.7717 81.2372 31.759 77.2239 28.9702 72.3906C28.5019 71.5796 28.375 70.6157 28.6174 69.7111C28.8598 68.8065 29.4516 68.0352 30.2626 67.5669ZM49.4373 45.9062C49.4373 51.754 46.2733 56.5 42.3748 56.5C38.4763 56.5 35.3123 51.754 35.3123 45.9062C35.3123 40.0585 38.4763 35.3125 42.3748 35.3125C46.2733 35.3125 49.4373 40.0585 49.4373 45.9062ZM77.6873 45.9062C77.6873 51.754 74.5233 56.5 70.6248 56.5C66.7263 56.5 63.5623 51.754 63.5623 45.9062C63.5623 40.0585 66.7263 35.3125 70.6248 35.3125C74.5233 35.3125 77.6873 40.0585 77.6873 45.9062Z" fill="url(#paint1_linear_4377_318)"/>
</g>
<defs>
<linearGradient id="paint0_linear_4377_318" x1="56.5" y1="0" x2="56.5" y2="134.402" gradientUnits="userSpaceOnUse">
<stop/>
<stop offset="1" stop-color="white"/>
</linearGradient>
<linearGradient id="paint1_linear_4377_318" x1="56.5057" y1="35.3125" x2="56.5057" y2="88.2813" gradientUnits="userSpaceOnUse">
<stop/>
<stop offset="1" stop-color="white"/>
</linearGradient>
<clipPath id="clip0_4377_318">
<rect width="113" height="113" fill="white"/>
</clipPath>
</defs>
</svg>
