<svg width="27" height="25" viewBox="0 0 27 25" fill="none" xmlns="http://www.w3.org/2000/svg">
<path d="M13.5002 4.58007L12.2903 3.35174C9.45011 0.468413 4.24233 1.46341 2.36239 5.0884C1.4798 6.79339 1.28067 9.25505 2.89229 12.3967C4.44483 15.4217 7.67481 19.045 13.5002 22.9917C19.3257 19.045 22.5539 15.4217 24.1082 12.3967C25.7198 9.25338 25.5224 6.79339 24.6381 5.0884C22.7581 1.46341 17.5504 0.466746 14.7102 3.35007L13.5002 4.58007ZM13.5002 25C-12.375 8.11339 5.5333 -5.06657 13.2032 1.90507C13.3045 1.99674 13.404 2.09174 13.5002 2.19007C13.5954 2.09183 13.6945 1.99731 13.7972 1.90674C21.4655 -5.0699 39.3755 8.11172 13.5002 25Z" fill="#929292"/>
</svg>
