<svg width="205" height="174" viewBox="0 0 205 174" fill="none" xmlns="http://www.w3.org/2000/svg">
<g filter="url(#filter0_d_4447_93)">
<path d="M117.894 20.5188C104.253 20.5188 93.1953 31.5381 93.1953 45.1311C93.1953 51.6587 95.7975 57.919 100.429 62.5347L136.934 98.9116C138.129 100.102 140.066 100.102 141.261 98.9116L177.766 62.5347C182.397 57.919 185 51.6587 185 45.1311C185 31.5381 173.942 20.5188 160.301 20.5188C153.751 20.5188 147.468 23.1119 142.837 27.7276L139.098 31.4535L135.359 27.7276C130.727 23.1119 124.444 20.5188 117.894 20.5188Z" fill="url(#paint0_linear_4447_93)"/>
</g>
<g filter="url(#filter1_d_4447_93)">
<path d="M71.2722 139.803C71.2698 142.458 71.938 145.071 73.215 147.399H24.829C21.9037 147.392 19.1001 146.227 17.0316 144.159C14.9631 142.09 13.7979 139.287 13.791 136.361V119.809C13.8117 112.498 16.7252 105.492 21.895 100.322C27.0647 95.1522 34.0705 92.2387 41.3816 92.218H89.1055C90.1159 95.5975 91.763 98.7526 93.958 101.514C87.6151 102.604 81.8609 105.899 77.7104 110.818C73.56 115.736 71.2798 121.963 71.2722 128.399V139.803ZM66.2106 83.9417C60.6348 83.9417 55.1842 82.2883 50.5481 79.1906C45.912 76.0928 42.2986 71.6899 40.1648 66.5385C38.031 61.3871 37.4728 55.7187 38.5605 50.25C39.6483 44.7814 42.3333 39.7581 46.276 35.8154C50.2187 31.8727 55.242 29.1877 60.7106 28.0999C66.1793 27.0122 71.8477 27.5704 76.9991 29.7042C82.1505 31.838 86.5534 35.4514 89.6512 40.0875C92.7489 44.7236 94.4023 50.1742 94.4023 55.75C94.4023 63.2269 91.4321 70.3976 86.1452 75.6846C80.8582 80.9715 73.6875 83.9417 66.2106 83.9417ZM151.735 139.803C151.729 141.815 150.926 143.743 149.503 145.167C148.08 146.59 146.151 147.392 144.139 147.399H87.1453C85.1326 147.392 83.2044 146.59 81.7812 145.167C80.358 143.743 79.5554 141.815 79.5485 139.803V128.399C79.5646 123.367 81.5707 118.545 85.1289 114.987C88.6871 111.429 93.5084 109.423 98.5405 109.407H132.735C137.767 109.423 142.588 111.429 146.146 114.987C149.705 118.545 151.711 123.367 151.727 128.399L151.735 139.803ZM135.052 84.2902C135.052 88.1292 133.914 91.8819 131.781 95.0739C129.648 98.2659 126.617 100.754 123.07 102.223C119.523 103.692 115.62 104.076 111.855 103.327C108.09 102.578 104.631 100.73 101.917 98.0153C99.2024 95.3007 97.3537 91.8421 96.6048 88.0769C95.8558 84.3117 96.2402 80.409 97.7093 76.8623C99.1784 73.3155 101.666 70.2841 104.858 68.1513C108.05 66.0185 111.803 64.8801 115.642 64.8801C120.79 64.8801 125.727 66.9251 129.367 70.5652C133.007 74.2053 135.052 79.1423 135.052 84.2902Z" fill="url(#paint1_linear_4447_93)"/>
</g>
<defs>
<filter id="filter0_d_4447_93" x="73.1953" y="0.518799" width="131.805" height="119.286" filterUnits="userSpaceOnUse" color-interpolation-filters="sRGB">
<feFlood flood-opacity="0" result="BackgroundImageFix"/>
<feColorMatrix in="SourceAlpha" type="matrix" values="0 0 0 0 0 0 0 0 0 0 0 0 0 0 0 0 0 0 127 0" result="hardAlpha"/>
<feOffset/>
<feGaussianBlur stdDeviation="10"/>
<feComposite in2="hardAlpha" operator="out"/>
<feColorMatrix type="matrix" values="0 0 0 0 0.133333 0 0 0 0 0.133333 0 0 0 0 0.133333 0 0 0 1 0"/>
<feBlend mode="normal" in2="BackgroundImageFix" result="effect1_dropShadow_4447_93"/>
<feBlend mode="normal" in="SourceGraphic" in2="effect1_dropShadow_4447_93" result="shape"/>
</filter>
<filter id="filter1_d_4447_93" x="3.79102" y="17.5582" width="157.944" height="139.841" filterUnits="userSpaceOnUse" color-interpolation-filters="sRGB">
<feFlood flood-opacity="0" result="BackgroundImageFix"/>
<feColorMatrix in="SourceAlpha" type="matrix" values="0 0 0 0 0 0 0 0 0 0 0 0 0 0 0 0 0 0 127 0" result="hardAlpha"/>
<feOffset/>
<feGaussianBlur stdDeviation="5"/>
<feComposite in2="hardAlpha" operator="out"/>
<feColorMatrix type="matrix" values="0 0 0 0 0 0 0 0 0 0 0 0 0 0 0 0 0 0 1 0"/>
<feBlend mode="normal" in2="BackgroundImageFix" result="effect1_dropShadow_4447_93"/>
<feBlend mode="normal" in="SourceGraphic" in2="effect1_dropShadow_4447_93" result="shape"/>
</filter>
<linearGradient id="paint0_linear_4447_93" x1="166.222" y1="33.7331" x2="118.233" y2="92.1541" gradientUnits="userSpaceOnUse">
<stop/>
<stop offset="0.850518" stop-color="white"/>
</linearGradient>
<linearGradient id="paint1_linear_4447_93" x1="58.4212" y1="56.6845" x2="134.229" y2="147.098" gradientUnits="userSpaceOnUse">
<stop/>
<stop offset="1" stop-color="white"/>
</linearGradient>
</defs>
</svg>
