<svg width="70" height="70" viewBox="0 0 70 70" fill="none" xmlns="http://www.w3.org/2000/svg">
<path d="M47.4861 34.3611C47.8968 33.9503 48.1276 33.3932 48.1276 32.8123C48.1276 32.2314 47.8968 31.6743 47.4861 31.2636C47.0753 30.8528 46.5182 30.6221 45.9373 30.6221C45.3564 30.6221 44.7993 30.8528 44.3886 31.2636L32.8123 42.8442L27.7986 37.8261C27.3878 37.4153 26.8307 37.1846 26.2498 37.1846C25.6689 37.1846 25.1118 37.4153 24.7011 37.8261C24.2903 38.2368 24.0596 38.7939 24.0596 39.3748C24.0596 39.9557 24.2903 40.5128 24.7011 40.9236L31.2636 47.4861C31.4668 47.6898 31.7082 47.8514 31.9739 47.9617C32.2397 48.072 32.5246 48.1287 32.8123 48.1287C33.1001 48.1287 33.385 48.072 33.6507 47.9617C33.9165 47.8514 34.1579 47.6898 34.3611 47.4861L47.4861 34.3611Z" fill="url(#paint0_linear_4507_233)"/>
<path d="M61.25 61.25V19.6875L41.5625 0H17.5C15.1794 0 12.9538 0.921872 11.3128 2.56282C9.67187 4.20376 8.75 6.42936 8.75 8.75V61.25C8.75 63.5706 9.67187 65.7962 11.3128 67.4372C12.9538 69.0781 15.1794 70 17.5 70H52.5C54.8206 70 57.0462 69.0781 58.6872 67.4372C60.3281 65.7962 61.25 63.5706 61.25 61.25ZM41.5625 13.125C41.5625 14.8655 42.2539 16.5347 43.4846 17.7654C44.7153 18.9961 46.3845 19.6875 48.125 19.6875H56.875V61.25C56.875 62.4103 56.4141 63.5231 55.5936 64.3436C54.7731 65.1641 53.6603 65.625 52.5 65.625H17.5C16.3397 65.625 15.2269 65.1641 14.4064 64.3436C13.5859 63.5231 13.125 62.4103 13.125 61.25V8.75C13.125 7.58968 13.5859 6.47688 14.4064 5.65641C15.2269 4.83594 16.3397 4.375 17.5 4.375H41.5625V13.125Z" fill="url(#paint1_linear_4507_233)"/>
<defs>
<linearGradient id="paint0_linear_4507_233" x1="36.0936" y1="30.6221" x2="36.0936" y2="48.1287" gradientUnits="userSpaceOnUse">
<stop stop-color="#33FF00"/>
<stop offset="1" stop-color="#153A0B" stop-opacity="0.57"/>
</linearGradient>
<linearGradient id="paint1_linear_4507_233" x1="35" y1="0" x2="35" y2="70" gradientUnits="userSpaceOnUse">
<stop stop-color="#33FF00"/>
<stop offset="1" stop-color="#153A0B" stop-opacity="0.57"/>
</linearGradient>
</defs>
</svg>
