<svg width="100" height="100" viewBox="0 0 100 100" fill="none" xmlns="http://www.w3.org/2000/svg">
<circle cx="50" cy="50" r="47.5" fill="white" stroke="url(#paint0_linear_4369_71)" stroke-width="5"/>
<path d="M39.25 50.4167C44.6501 50.4167 49.0208 46.0366 49.0208 40.625C49.0208 35.2134 44.6501 30.8333 39.25 30.8333C33.8499 30.8333 29.4792 35.2134 29.4792 40.625C29.4792 46.0366 33.8499 50.4167 39.25 50.4167ZM45.95 53.2143H45.2259C43.4113 54.0885 41.3961 54.6131 39.25 54.6131C37.1039 54.6131 35.0974 54.0885 33.2741 53.2143H32.55C27.0016 53.2143 22.5 57.7255 22.5 63.2857V65.8036C22.5 68.1204 24.3757 70 26.6875 70H51.8125C54.1243 70 56 68.1204 56 65.8036V63.2857C56 57.7255 51.4984 53.2143 45.95 53.2143ZM64.375 50.4167C68.9987 50.4167 72.75 46.6574 72.75 42.0238C72.75 37.3903 68.9987 33.631 64.375 33.631C59.7513 33.631 56 37.3903 56 42.0238C56 46.6574 59.7513 50.4167 64.375 50.4167ZM68.5625 53.2143H68.231C67.0184 53.6339 65.7359 53.9137 64.375 53.9137C63.0141 53.9137 61.7316 53.6339 60.519 53.2143H60.1875C58.4078 53.2143 56.7677 53.7301 55.3283 54.5606C57.4569 56.8599 58.7917 59.9111 58.7917 63.2857V66.6429C58.7917 66.8352 58.748 67.0188 58.7393 67.2024H74.1458C76.4577 67.2024 78.3333 65.3227 78.3333 63.006C78.3333 57.5943 73.9626 53.2143 68.5625 53.2143Z" fill="url(#paint1_linear_4369_71)"/>
<defs>
<linearGradient id="paint0_linear_4369_71" x1="50" y1="0" x2="46.6667" y2="120" gradientUnits="userSpaceOnUse">
<stop/>
<stop offset="1" stop-opacity="0"/>
</linearGradient>
<linearGradient id="paint1_linear_4369_71" x1="50.4167" y1="30.8333" x2="50.4167" y2="70" gradientUnits="userSpaceOnUse">
<stop/>
<stop offset="1" stop-opacity="0"/>
</linearGradient>
</defs>
</svg>
