<svg width="112" height="112" viewBox="0 0 112 112" fill="none" xmlns="http://www.w3.org/2000/svg">
<path d="M0 56C0 41.1479 5.89998 26.9041 16.402 16.402C26.9041 5.89998 41.1479 0 56 0C70.8521 0 85.0959 5.89998 95.598 16.402C106.1 26.9041 112 41.1479 112 56C112 70.8521 106.1 85.0959 95.598 95.598C85.0959 106.1 70.8521 112 56 112C41.1479 112 26.9041 106.1 16.402 95.598C5.89998 85.0959 0 70.8521 0 56ZM52.5 7.539C47.81 8.967 43.155 13.279 39.291 20.524C38.0179 22.9327 36.923 25.4314 36.015 28H52.5V7.539ZM28.63 28C29.7967 24.2817 31.2961 20.6761 33.11 17.227C34.3204 14.9384 35.7181 12.7539 37.289 10.696C28.616 14.2928 21.154 20.2974 15.785 28H28.63ZM24.556 52.5C24.766 46.361 25.522 40.474 26.74 35H11.718C9.10783 40.4954 7.55029 46.4311 7.126 52.5H24.556ZM33.929 35C32.5522 40.7386 31.7595 46.6018 31.563 52.5H52.5V35H33.929ZM59.5 35V52.5H80.43C80.236 46.602 79.4457 40.7388 78.071 35H59.5ZM31.57 59.5C31.7642 65.398 32.5546 71.2611 33.929 77H52.5V59.5H31.57ZM59.5 59.5V77H78.071C79.38 71.645 80.213 65.744 80.437 59.5H59.5ZM36.015 84C36.981 86.702 38.08 89.208 39.291 91.476C43.155 98.721 47.817 103.026 52.5 104.461V84H36.015ZM37.289 101.304C35.718 99.2461 34.3202 97.0617 33.11 94.773C31.2961 91.3238 29.7967 87.7183 28.63 84H15.785C21.1538 91.7029 28.6158 97.7076 37.289 101.304ZM26.74 77C25.4742 71.2465 24.743 65.3882 24.556 59.5H7.126C7.56 65.73 9.163 71.631 11.718 77H26.74ZM74.711 101.304C83.3842 97.7076 90.8462 91.7029 96.215 84H83.37C82.2032 87.7182 80.7038 91.3238 78.89 94.773C77.68 97.0618 76.2822 99.2463 74.711 101.304ZM59.5 84V104.461C64.19 103.033 68.845 98.721 72.709 91.476C73.92 89.208 75.019 86.702 75.985 84H59.5ZM85.26 77H100.282C102.837 71.631 104.44 65.73 104.874 59.5H87.444C87.257 65.3882 86.5259 71.2465 85.26 77ZM104.874 52.5C104.45 46.4311 102.892 40.4954 100.282 35H85.26C86.478 40.474 87.234 46.361 87.444 52.5H104.874ZM78.89 17.227C80.619 20.475 82.124 24.087 83.37 28H96.215C90.8462 20.2971 83.3842 14.2924 74.711 10.696C76.237 12.684 77.637 14.882 78.89 17.227ZM75.985 28C75.0771 25.4313 73.9822 22.9326 72.709 20.524C68.845 13.279 64.19 8.974 59.5 7.539V28H75.985Z" fill="url(#paint0_linear_4411_1423)"/>
<defs>
<linearGradient id="paint0_linear_4411_1423" x1="-12" y1="-1.52205e-06" x2="122" y2="112" gradientUnits="userSpaceOnUse">
<stop/>
<stop offset="0.976896" stop-opacity="0"/>
</linearGradient>
</defs>
</svg>
