<svg width="101" height="100" viewBox="0 0 101 100" fill="none" xmlns="http://www.w3.org/2000/svg">
<circle cx="50.2285" cy="50" r="47.5" fill="white" stroke="url(#paint0_linear_4369_66)" stroke-width="5"/>
<path fill-rule="evenodd" clip-rule="evenodd" d="M60.4481 45.9262C60.6106 46.0882 60.7395 46.2808 60.8275 46.4928C60.9155 46.7047 60.9607 46.932 60.9607 47.1615C60.9607 47.391 60.9155 47.6182 60.8275 47.8302C60.7395 48.0422 60.6106 48.2347 60.4481 48.3968L49.9794 58.8655C49.8173 59.028 49.6248 59.1569 49.4128 59.2449C49.2008 59.3329 48.9736 59.3781 48.7441 59.3781C48.5146 59.3781 48.2873 59.3329 48.0753 59.2449C47.8634 59.1569 47.6708 59.028 47.5088 58.8655L42.2744 53.6312C42.1122 53.4689 41.9835 53.2764 41.8957 53.0644C41.8079 52.8525 41.7627 52.6253 41.7627 52.3959C41.7627 52.1664 41.8079 51.9393 41.8957 51.7273C41.9835 51.5154 42.1122 51.3228 42.2744 51.1605C42.602 50.8329 43.0464 50.6489 43.5097 50.6489C43.7391 50.6489 43.9663 50.6941 44.1782 50.7818C44.3902 50.8696 44.5828 50.9983 44.745 51.1605L48.7441 55.1631L57.9775 45.9262C58.1396 45.7637 58.3321 45.6348 58.5441 45.5468C58.7561 45.4589 58.9833 45.4136 59.2128 45.4136C59.4423 45.4136 59.6696 45.4589 59.8815 45.5468C60.0935 45.6348 60.2861 45.7637 60.4481 45.9262Z" fill="url(#paint1_linear_4369_66)"/>
<path d="M50.4891 21.8229C52.8028 21.8229 55.0218 22.7421 56.6579 24.3781C58.2939 26.0142 59.2131 28.2331 59.2131 30.5469V32.2917H41.7651V30.5469C41.7651 28.2331 42.6843 26.0142 44.3203 24.3781C45.9564 22.7421 48.1754 21.8229 50.4891 21.8229ZM62.7026 32.2917V30.5469C62.7026 27.3077 61.4159 24.2011 59.1254 21.9106C56.8349 19.6201 53.7283 18.3333 50.4891 18.3333C47.2499 18.3333 44.1433 19.6201 41.8528 21.9106C39.5623 24.2011 38.2756 27.3077 38.2756 30.5469V32.2917H36.062C30.5392 32.2917 26.062 36.7688 26.062 42.2917V67.1875C26.062 69.0385 26.7973 70.8137 28.1062 72.1225C29.415 73.4314 31.1902 74.1667 33.0412 74.1667H67.937C69.788 74.1667 71.5632 73.4314 72.872 72.1225C74.1809 70.8137 74.9162 69.0385 74.9162 67.1875V42.2917C74.9162 36.7688 70.439 32.2917 64.9162 32.2917H62.7026ZM29.5516 40.7813C29.5516 38.0198 31.7902 35.7813 34.5516 35.7813H66.4266C69.188 35.7813 71.4266 38.0198 71.4266 40.7813V67.1875C71.4266 68.113 71.0589 69.0006 70.4045 69.655C69.7501 70.3094 68.8625 70.6771 67.937 70.6771H33.0412C32.1157 70.6771 31.2281 70.3094 30.5737 69.655C29.9192 69.0006 29.5516 68.113 29.5516 67.1875V40.7813Z" fill="url(#paint2_linear_4369_66)"/>
<defs>
<linearGradient id="paint0_linear_4369_66" x1="50.2285" y1="0" x2="46.8952" y2="120" gradientUnits="userSpaceOnUse">
<stop/>
<stop offset="1" stop-opacity="0"/>
</linearGradient>
<linearGradient id="paint1_linear_4369_66" x1="51.3617" y1="45.4136" x2="51.3617" y2="59.3781" gradientUnits="userSpaceOnUse">
<stop stop-opacity="0"/>
<stop offset="1"/>
</linearGradient>
<linearGradient id="paint2_linear_4369_66" x1="50.2287" y1="-21.25" x2="50.4891" y2="74.1667" gradientUnits="userSpaceOnUse">
<stop stop-opacity="0"/>
<stop offset="1"/>
</linearGradient>
</defs>
</svg>
