<svg width="100" height="100" viewBox="0 0 100 100" fill="none" xmlns="http://www.w3.org/2000/svg">
    <circle cx="50" cy="50" r="47.5" fill="white" stroke="url(#paint0_linear_4369_76)" stroke-width="5"/>
    <g clip-path="url(#clip0_4369_76)">
        <path fill-rule="evenodd" clip-rule="evenodd" d="M50.2286 32.1563L47.6145 29.4693C43.4948 25.2365 35.7911 26.6365 32.9948 32.0943C31.7187 34.5917 31.3505 38.3177 33.8552 43.2578C36.2286 47.9536 41.1869 53.6667 50.2286 59.9448C59.2666 53.663 64.225 47.95 66.602 43.2578C69.1067 38.3177 68.7421 34.5917 67.4625 32.0979C64.6661 26.6365 56.9625 25.2365 52.8427 29.4693L50.2286 32.1563ZM48.4422 63.1458C9.14007 36.0208 37.5046 15.1849 49.751 26.4578C49.9151 26.6073 50.0755 26.7641 50.2323 26.9281C50.389 26.7641 50.5494 26.6073 50.7135 26.4578C62.9635 15.1849 91.3171 36.0245 52.0151 63.1458L52.8718 64.8521C52.9255 64.9593 52.9574 65.0761 52.9659 65.1957C52.9744 65.3153 52.9593 65.4354 52.9214 65.5492C52.8835 65.6629 52.8235 65.7681 52.7449 65.8587C52.6664 65.9492 52.5707 66.0235 52.4635 66.0771C52.3563 66.1307 52.2395 66.1627 52.1199 66.1712C52.0003 66.1797 51.8802 66.1645 51.7664 66.1266C51.6527 66.0887 51.5475 66.0288 51.4569 65.9502C51.3663 65.8716 51.2921 65.776 51.2385 65.6688L51.2093 65.6068C51.2385 66.0078 51.2823 66.3432 51.3442 66.6641C51.5411 67.6484 51.9312 68.4432 52.8718 70.3208C53.9218 72.4281 53.7286 74.5135 53.1489 76.2599C52.5765 77.9698 51.6104 79.4208 51.0052 80.325L50.9906 80.3505C50.924 80.4501 50.8385 80.5356 50.7389 80.6021C50.6393 80.6687 50.5276 80.715 50.4101 80.7383C50.2927 80.7617 50.1717 80.7617 50.0543 80.7383C49.9368 80.7149 49.8251 80.6686 49.7255 80.6021C49.6259 80.5355 49.5404 80.45 49.4739 80.3504C49.4073 80.2508 49.361 80.1391 49.3377 80.0216C49.3143 79.9042 49.3143 79.7832 49.3377 79.6658C49.3611 79.5483 49.4074 79.4366 49.4739 79.337C50.0864 78.4182 50.9323 77.1495 51.4172 75.6802C51.902 74.2365 52.0114 72.676 51.2385 71.1375L51.1911 71.0354C50.3161 69.2854 49.8057 68.2719 49.5578 67.0177C49.4556 66.476 49.3923 65.9278 49.3682 65.3771L49.2224 65.6688C49.1693 65.7767 49.0954 65.8731 49.0049 65.9524C48.9144 66.0316 48.8092 66.0922 48.6952 66.1306C48.5812 66.1689 48.4607 66.1844 48.3407 66.176C48.2207 66.1676 48.1035 66.1355 47.996 66.0816C47.8885 66.0277 47.7927 65.9531 47.7141 65.862C47.6355 65.7709 47.5758 65.6651 47.5383 65.5508C47.5008 65.4365 47.4863 65.316 47.4956 65.196C47.505 65.0761 47.5379 64.9592 47.5927 64.8521L48.4494 63.1458H48.4422ZM42.9843 30.8438C40.6182 30.1875 37.5776 31.1464 36.2395 33.7531C35.7619 34.6938 35.3463 36.2651 35.9479 38.6203C36.1776 39.5099 37.4573 39.3422 37.7234 38.4635C38.489 35.9224 40.0093 33.188 42.6781 32.2948C43.4692 32.0286 43.7864 31.0661 42.9843 30.8438Z" fill="url(#paint1_linear_4369_76)"/>
    </g>
    <defs>
        <linearGradient id="paint0_linear_4369_76" x1="50" y1="0" x2="46.6667" y2="120" gradientUnits="userSpaceOnUse">
            <stop/>
            <stop offset="1" stop-opacity="0"/>
        </linearGradient>
        <linearGradient id="paint1_linear_4369_76" x1="50.2303" y1="23.3325" x2="50.2303" y2="80.7558" gradientUnits="userSpaceOnUse">
            <stop/>
            <stop offset="1" stop-opacity="0"/>
        </linearGradient>
        <clipPath id="clip0_4369_76">
            <rect width="58.3333" height="58.3333" fill="white" transform="translate(21.062 23.3333)"/>
        </clipPath>
    </defs>
</svg>
