<svg width="54" height="54" viewBox="0 0 54 54" fill="white" xmlns="http://www.w3.org/2000/svg">
<path fill-rule="evenodd" clip-rule="evenodd" d="M20.6109 17.4381C22.5021 16.1745 24.7255 15.5 27 15.5C30.0489 15.5035 32.972 16.7162 35.1279 18.8721C37.2838 21.028 38.4965 23.9511 38.5 27C38.5 29.2745 37.8255 31.4979 36.5619 33.3891C35.2983 35.2802 33.5022 36.7542 31.4009 37.6246C29.2995 38.495 26.9872 38.7228 24.7565 38.279C22.5257 37.8353 20.4766 36.74 18.8683 35.1317C17.26 33.5234 16.1647 31.4743 15.721 29.2435C15.2772 27.0128 15.505 24.7005 16.3754 22.5991C17.2458 20.4978 18.7198 18.7017 20.6109 17.4381ZM23.9444 31.5731C24.8488 32.1774 25.9122 32.5 27 32.5C28.4582 32.4984 29.8562 31.9184 30.8873 30.8873C31.9184 29.8562 32.4984 28.4582 32.5 27C32.5 25.9122 32.1774 24.8488 31.5731 23.9444C30.9687 23.0399 30.1098 22.3349 29.1048 21.9187C28.0998 21.5024 26.9939 21.3935 25.927 21.6057C24.8601 21.8179 23.8801 22.3417 23.1109 23.1109C22.3417 23.8801 21.8179 24.8601 21.6057 25.927C21.3935 26.9939 21.5024 28.0998 21.9187 29.1048C22.3349 30.1098 23.0399 30.9687 23.9444 31.5731ZM15 0H39C42.9769 0.00450739 46.7896 1.58631 49.6016 4.39838C52.4137 7.21045 53.9955 11.0231 54 15V39C53.9955 42.9769 52.4137 46.7896 49.6016 49.6016C46.7896 52.4137 42.9769 53.9955 39 54H15C11.0231 53.9955 7.21045 52.4137 4.39838 49.6016C1.58631 46.7896 0.00450739 42.9769 0 39V15C0.00450739 11.0231 1.58631 7.21045 4.39838 4.39838C7.21045 1.58631 11.0231 0.00450739 15 0ZM45.361 45.361C47.0482 43.6737 47.9973 41.3861 48 39V15C47.9973 12.6139 47.0482 10.3263 45.361 8.63901C43.6737 6.95176 41.3861 6.00269 39 6H15C12.6139 6.00269 10.3263 6.95176 8.63901 8.63901C6.95176 10.3263 6.00269 12.6139 6 15V39C6.00269 41.3861 6.95176 43.6737 8.63901 45.361C10.3263 47.0482 12.6139 47.9973 15 48H39C41.3861 47.9973 43.6737 47.0482 45.361 45.361Z" fill="w"/>
</svg>
