<svg width="59" height="56" viewBox="0 0 59 56" fill="none" xmlns="http://www.w3.org/2000/svg">
<path d="M25 6C18.2156 6 17.3625 6.03125 14.6969 6.15C12.0313 6.275 10.2156 6.69375 8.625 7.3125C6.95576 7.93852 5.44419 8.92312 4.19688 10.1969C2.92312 11.4442 1.93852 12.9558 1.3125 14.625C0.69375 16.2125 0.271875 18.0312 0.15 20.6875C0.03125 23.3594 0 24.2094 0 31.0031C0 37.7906 0.03125 38.6406 0.15 41.3063C0.275 43.9688 0.69375 45.7844 1.3125 47.375C1.95312 49.0187 2.80625 50.4125 4.19688 51.8031C5.58438 53.1937 6.97813 54.05 8.62188 54.6875C10.2156 55.3062 12.0281 55.7281 14.6906 55.85C17.3594 55.9687 18.2094 56 25 56C31.7906 56 32.6375 55.9687 35.3063 55.85C37.9656 55.725 39.7875 55.3062 41.3781 54.6875C43.0462 54.0611 44.5567 53.0765 45.8031 51.8031C47.1937 50.4125 48.0469 49.0187 48.6875 47.375C49.3031 45.7844 49.725 43.9688 49.85 41.3063C49.9687 38.6406 50 37.7906 50 31C50 24.2094 49.9687 23.3594 49.85 20.6906C49.725 18.0313 49.3031 16.2125 48.6875 14.625C48.0615 12.9558 47.0769 11.4442 45.8031 10.1969C44.5558 8.92312 43.0442 7.93852 41.375 7.3125C39.7812 6.69375 37.9625 6.27188 35.3031 6.15C32.6344 6.03125 31.7875 6 24.9938 6H25ZM22.7594 10.5063H25.0031C31.6781 10.5063 32.4687 10.5281 35.1031 10.65C37.5406 10.7594 38.8656 11.1688 39.7469 11.5094C40.9125 11.9625 41.7469 12.5062 42.6219 13.3812C43.4969 14.2562 44.0375 15.0875 44.4906 16.2563C44.8344 17.1344 45.2406 18.4594 45.35 20.8969C45.4719 23.5313 45.4969 24.3219 45.4969 30.9938C45.4969 37.6656 45.4719 38.4594 45.35 41.0937C45.2406 43.5312 44.8313 44.8531 44.4906 45.7344C44.087 46.8184 43.4476 47.7993 42.6187 48.6062C41.7437 49.4812 40.9125 50.0219 39.7438 50.475C38.8688 50.8188 37.5437 51.225 35.1031 51.3375C32.4687 51.4563 31.6781 51.4844 25.0031 51.4844C18.3281 51.4844 17.5344 51.4563 14.9 51.3375C12.4625 51.225 11.1406 50.8188 10.2594 50.475C9.17448 50.0727 8.19249 49.4344 7.38437 48.6062C6.55398 47.7988 5.91353 46.8167 5.50938 45.7312C5.16875 44.8531 4.75938 43.5281 4.65 41.0906C4.53125 38.4563 4.50625 37.6656 4.50625 30.9875C4.50625 24.3094 4.53125 23.525 4.65 20.8906C4.7625 18.4531 5.16875 17.1281 5.5125 16.2469C5.96563 15.0813 6.50937 14.2469 7.38437 13.3719C8.25937 12.4969 9.09062 11.9563 10.2594 11.5031C11.1406 11.1594 12.4625 10.7531 14.9 10.6406C17.2063 10.5344 18.1 10.5031 22.7594 10.5V10.5063ZM38.3469 14.6562C37.9529 14.6562 37.5628 14.7338 37.1988 14.8846C36.8348 15.0354 36.5041 15.2564 36.2256 15.5349C35.947 15.8135 35.726 16.1442 35.5752 16.5082C35.4245 16.8722 35.3469 17.2623 35.3469 17.6563C35.3469 18.0502 35.4245 18.4403 35.5752 18.8043C35.726 19.1683 35.947 19.499 36.2256 19.7776C36.5041 20.0561 36.8348 20.2771 37.1988 20.4279C37.5628 20.5787 37.9529 20.6563 38.3469 20.6563C39.1425 20.6563 39.9056 20.3402 40.4682 19.7776C41.0308 19.215 41.3469 18.4519 41.3469 17.6563C41.3469 16.8606 41.0308 16.0975 40.4682 15.5349C39.9056 14.9723 39.1425 14.6562 38.3469 14.6562ZM25.0031 18.1625C23.3002 18.1359 21.609 18.4484 20.0281 19.0817C18.4471 19.715 17.0079 20.6565 15.7942 21.8513C14.5806 23.0462 13.6168 24.4705 12.9589 26.0414C12.301 27.6124 11.9622 29.2985 11.9622 31.0016C11.9622 32.7047 12.301 34.3908 12.9589 35.9617C13.6168 37.5326 14.5806 38.9569 15.7942 40.1518C17.0079 41.3467 18.4471 42.2881 20.0281 42.9214C21.609 43.5547 23.3002 43.8672 25.0031 43.8406C28.3736 43.788 31.5882 42.4122 33.9531 40.0102C36.3179 37.6081 37.6434 34.3724 37.6434 31.0016C37.6434 27.6307 36.3179 24.395 33.9531 21.993C31.5882 19.5909 28.3736 18.2151 25.0031 18.1625ZM25.0031 22.6656C26.0976 22.6656 27.1814 22.8812 28.1926 23.3C29.2037 23.7189 30.1225 24.3328 30.8964 25.1067C31.6703 25.8806 32.2842 26.7994 32.7031 27.8106C33.1219 28.8217 33.3375 29.9055 33.3375 31C33.3375 32.0945 33.1219 33.1783 32.7031 34.1894C32.2842 35.2006 31.6703 36.1194 30.8964 36.8933C30.1225 37.6672 29.2037 38.2811 28.1926 38.7C27.1814 39.1188 26.0976 39.3344 25.0031 39.3344C22.7927 39.3344 20.6728 38.4563 19.1098 36.8933C17.5468 35.3303 16.6688 33.2104 16.6688 31C16.6688 28.7896 17.5468 26.6697 19.1098 25.1067C20.6728 23.5437 22.7927 22.6656 25.0031 22.6656Z" fill="black"/>
<path d="M53.5 0C53.7064 0 53.9043 0.0790176 54.0503 0.21967C54.1962 0.360322 54.2782 0.551088 54.2782 0.75V4.701L57.8283 2.7255C57.9168 2.67548 58.0147 2.64283 58.1164 2.62943C58.2181 2.61603 58.3215 2.62214 58.4207 2.64743C58.5199 2.67271 58.613 2.71665 58.6945 2.77674C58.776 2.83682 58.8444 2.91185 58.8957 2.9975C58.9471 3.08316 58.9803 3.17776 58.9935 3.27584C59.0067 3.37393 58.9997 3.47356 58.9728 3.56902C58.9459 3.66447 58.8997 3.75386 58.8368 3.83203C58.774 3.9102 58.6957 3.97561 58.6064 4.0245L55.0564 6L58.6064 7.9755C58.6957 8.02439 58.774 8.0898 58.8368 8.16797C58.8997 8.24614 58.9459 8.33553 58.9728 8.43098C58.9997 8.52644 59.0067 8.62607 58.9935 8.72416C58.9803 8.82224 58.9471 8.91684 58.8957 9.0025C58.8444 9.08815 58.776 9.16318 58.6945 9.22326C58.613 9.28335 58.5199 9.32729 58.4207 9.35257C58.3215 9.37786 58.2181 9.38397 58.1164 9.37057C58.0147 9.35717 57.9168 9.32452 57.8283 9.2745L54.2782 7.299V11.25C54.2782 11.4489 54.1962 11.6397 54.0503 11.7803C53.9043 11.921 53.7064 12 53.5 12C53.2936 12 53.0957 11.921 52.9497 11.7803C52.8038 11.6397 52.7218 11.4489 52.7218 11.25V7.299L49.1717 9.2745C49.0832 9.32452 48.9853 9.35717 48.8836 9.37057C48.7819 9.38397 48.6785 9.37786 48.5793 9.35257C48.4801 9.32729 48.387 9.28335 48.3055 9.22326C48.224 9.16318 48.1556 9.08815 48.1043 9.0025C48.0529 8.91684 48.0197 8.82224 48.0065 8.72416C47.9933 8.62607 48.0003 8.52644 48.0272 8.43098C48.0541 8.33553 48.1003 8.24614 48.1632 8.16797C48.226 8.0898 48.3043 8.02439 48.3936 7.9755L51.9436 6L48.3936 4.0245C48.2163 3.92434 48.0873 3.76066 48.0348 3.56919C47.9823 3.37772 48.0105 3.17399 48.1132 3.00248C48.216 2.83096 48.3849 2.70558 48.5832 2.65369C48.7815 2.6018 48.9931 2.62761 49.1717 2.7255L52.7218 4.701V0.75C52.7218 0.551088 52.8038 0.360322 52.9497 0.21967C53.0957 0.0790176 53.2936 0 53.5 0Z" fill="black"/>
</svg>
