<svg width="91" height="91" viewBox="0 0 91 91" fill="none" xmlns="http://www.w3.org/2000/svg">
<path d="M1.5 1.5C1.82014 1.17986 2.25435 1 2.70711 1H88.7929C89.2456 1 89.6799 1.17986 90 1.5V1.5C90.3201 1.82014 90.5 2.25435 90.5 2.70711V6.79289C90.5 7.24565 90.3201 7.67986 90 8V8C89.6799 8.32014 89.2456 8.5 88.7929 8.5H2.70711C2.25436 8.5 1.82014 8.32014 1.5 8V8C1.17986 7.67986 1 7.24565 1 6.79289V2.70711C1 2.25435 1.17986 1.82014 1.5 1.5V1.5Z" fill="black" stroke="black"/>
<path d="M1.5 83.5C1.82014 83.1799 2.25435 83 2.70711 83H88.7929C89.2456 83 89.6799 83.1799 90 83.5V83.5C90.3201 83.8201 90.5 84.2544 90.5 84.7071V88.7929C90.5 89.2456 90.3201 89.6799 90 90V90C89.6799 90.3201 89.2456 90.5 88.7929 90.5H2.70711C2.25436 90.5 1.82014 90.3201 1.5 90V90C1.17986 89.6799 1 89.2456 1 88.7929V84.7071C1 84.2544 1.17986 83.8201 1.5 83.5V83.5Z" fill="black" stroke="black"/>
<path d="M1.5 42.5C1.82014 42.1799 2.25435 42 2.70711 42H88.7929C89.2456 42 89.6799 42.1799 90 42.5V42.5C90.3201 42.8201 90.5 43.2544 90.5 43.7071V47.7929C90.5 48.2456 90.3201 48.6799 90 49V49C89.6799 49.3201 89.2456 49.5 88.7929 49.5H2.70711C2.25436 49.5 1.82014 49.3201 1.5 49V49C1.17986 48.6799 1 48.2456 1 47.7929V43.7071C1 43.2544 1.17986 42.8201 1.5 42.5V42.5Z" fill="black" stroke="black"/>
</svg>
