<svg width="231" height="196" viewBox="0 0 231 196" fill="none" xmlns="http://www.w3.org/2000/svg">
<path d="M194.611 78.1077C202.426 69.8622 207.25 58.7532 207.25 46.5C207.25 21.0965 186.653 0.5 161.25 0.5C135.846 0.5 115.25 21.0965 115.25 46.5C115.25 58.7532 120.074 69.8622 127.888 78.1077C122.357 81.1667 117.297 84.9617 112.829 89.3605C106.711 71.1445 89.5302 58 69.25 58C43.8465 58 23.25 78.5965 23.25 104C23.25 116.253 28.0742 127.362 35.8885 135.608C14.6422 147.366 0.25 169.987 0.25 196H138.25C138.25 171.982 125.979 150.857 107.372 138.5H230.25C230.25 112.487 215.858 89.8665 194.611 78.1077ZM138.25 46.5C138.25 33.8155 148.565 23.5 161.25 23.5C173.934 23.5 184.25 33.8155 184.25 46.5C184.25 59.1845 173.934 69.5 161.25 69.5C148.565 69.5 138.25 59.1845 138.25 46.5ZM46.25 104C46.25 91.3155 56.5655 81 69.25 81C81.9345 81 92.25 91.3155 92.25 104C92.25 116.684 81.9345 127 69.25 127C56.5655 127 46.25 116.684 46.25 104ZM29.4255 173C37.3892 159.257 52.2587 150 69.25 150C86.2412 150 101.111 159.257 109.074 173H29.4255ZM121.425 115.5C129.389 101.757 144.259 92.5 161.25 92.5C178.241 92.5 193.111 101.757 201.074 115.5H121.425Z" fill="black"/>
</svg>
