<svg width="112" height="112" viewBox="0 0 112 112" fill="none" xmlns="http://www.w3.org/2000/svg">
<g clip-path="url(#clip0_4507_220)">
<path fill-rule="evenodd" clip-rule="evenodd" d="M72.4775 43.0224C72.8035 43.3475 73.0621 43.7337 73.2385 44.159C73.415 44.5842 73.5058 45.04 73.5058 45.5004C73.5058 45.9608 73.415 46.4166 73.2385 46.8418C73.0621 47.267 72.8035 47.6533 72.4775 47.9784L51.4775 68.9784C51.1524 69.3043 50.7662 69.5629 50.341 69.7394C49.9158 69.9158 49.4599 70.0067 48.9995 70.0067C48.5392 70.0067 48.0833 69.9158 47.6581 69.7394C47.2329 69.5629 46.8467 69.3043 46.5215 68.9784L36.0215 58.4784C35.6961 58.153 35.438 57.7667 35.2619 57.3415C35.0858 56.9163 34.9951 56.4606 34.9951 56.0004C34.9951 55.5402 35.0858 55.0845 35.2619 54.6593C35.438 54.2341 35.6961 53.8478 36.0215 53.5224C36.347 53.197 36.7333 52.9388 37.1585 52.7627C37.5836 52.5866 38.0393 52.496 38.4995 52.496C38.9597 52.496 39.4154 52.5866 39.8406 52.7627C40.2658 52.9388 40.6521 53.197 40.9775 53.5224L48.9995 61.5514L67.5215 43.0224C67.8467 42.6965 68.2329 42.4379 68.6581 42.2614C69.0833 42.085 69.5392 41.9941 69.9995 41.9941C70.4599 41.9941 70.9158 42.085 71.341 42.2614C71.7662 42.4379 72.1524 42.6965 72.4775 43.0224Z" fill="url(#paint0_linear_4507_220)"/>
<path d="M71.9102 17.5903L65.4632 10.9823L70.4683 6.09625L74.8223 10.5553L81.0523 10.4783C83.749 10.4463 86.4249 10.954 88.9226 11.9713C91.4203 12.9886 93.6894 14.495 95.5964 16.4021C97.5035 18.3091 99.0099 20.5782 100.027 23.0759C101.045 25.5736 101.552 28.2495 101.52 30.9462L101.45 37.1762L105.902 41.5303C107.83 43.4144 109.363 45.665 110.409 48.1498C111.455 50.6345 111.994 53.3033 111.994 55.9992C111.994 58.6952 111.455 61.364 110.409 63.8487C109.363 66.3335 107.83 68.5841 105.902 70.4683L101.443 74.8223L101.52 81.0523C101.552 83.749 101.045 86.4249 100.027 88.9226C99.0099 91.4203 97.5035 93.6894 95.5964 95.5964C93.6894 97.5035 91.4203 99.0099 88.9226 100.027C86.4249 101.045 83.749 101.552 81.0523 101.52L74.8223 101.45L70.4683 105.902C68.5841 107.83 66.3335 109.363 63.8487 110.409C61.364 111.455 58.6952 111.994 55.9992 111.994C53.3033 111.994 50.6345 111.455 48.1498 110.409C45.665 109.363 43.4144 107.83 41.5303 105.902L37.1762 101.443L30.9462 101.52C28.2495 101.552 25.5736 101.045 23.0759 100.027C20.5782 99.0099 18.3091 97.5035 16.4021 95.5964C14.495 93.6894 12.9886 91.4203 11.9713 88.9226C10.954 86.4249 10.4463 83.749 10.4783 81.0523L10.5483 74.8223L6.09625 70.4683C4.16803 68.5841 2.63587 66.3335 1.58981 63.8487C0.543747 61.364 0.00488281 58.6952 0.00488281 55.9992C0.00488281 53.3033 0.543747 50.6345 1.58981 48.1498C2.63587 45.665 4.16803 43.4144 6.09625 41.5303L10.5553 37.1762L10.4783 30.9462C10.4463 28.2495 10.954 25.5736 11.9713 23.0759C12.9886 20.5782 14.495 18.3091 16.4021 16.4021C18.3091 14.495 20.5782 12.9886 23.0759 11.9713C25.5736 10.954 28.2495 10.4463 30.9462 10.4783L37.1762 10.5483L41.5303 6.09625C43.4144 4.16803 45.665 2.63587 48.1498 1.58981C50.6345 0.543747 53.3033 0.00488281 55.9992 0.00488281C58.6952 0.00488281 61.364 0.543747 63.8487 1.58981C66.3335 2.63587 68.5841 4.16803 70.4683 6.09625L65.4632 10.9823C64.231 9.72075 62.7589 8.71835 61.1337 8.03396C59.5084 7.34957 57.7627 6.99701 55.9992 6.99701C54.2358 6.99701 52.4901 7.34957 50.8648 8.03396C49.2396 8.71835 47.7675 9.72075 46.5352 10.9823L40.0952 17.5903L30.8552 17.4783C29.0925 17.4585 27.3436 17.7913 25.7112 18.457C24.0789 19.1228 22.5961 20.108 21.3499 21.3548C20.1037 22.6017 19.1192 24.0851 18.4543 25.7177C17.7895 27.3504 17.4576 29.0995 17.4783 30.8622L17.5903 40.0882L10.9823 46.5352C9.72075 47.7675 8.71835 49.2396 8.03396 50.8648C7.34957 52.4901 6.99701 54.2358 6.99701 55.9992C6.99701 57.7627 7.34957 59.5084 8.03396 61.1337C8.71835 62.7589 9.72075 64.231 10.9823 65.4632L17.5903 71.9033L17.4783 81.1432C17.4585 82.906 17.7913 84.6549 18.457 86.2873C19.1228 87.9196 20.108 89.4024 21.3548 90.6486C22.6017 91.8948 24.0851 92.8793 25.7177 93.5441C27.3504 94.209 29.0995 94.5409 30.8622 94.5202L40.0882 94.4082L46.5352 101.016C47.7675 102.278 49.2396 103.28 50.8648 103.965C52.4901 104.649 54.2358 105.001 55.9992 105.001C57.7627 105.001 59.5084 104.649 61.1337 103.965C62.7589 103.28 64.231 102.278 65.4632 101.016L71.9033 94.4082L81.1432 94.5202C82.906 94.54 84.6549 94.2072 86.2873 93.5415C87.9196 92.8757 89.4024 91.8905 90.6486 90.6437C91.8948 89.3968 92.8793 87.9135 93.5441 86.2808C94.209 84.6481 94.5409 82.899 94.5202 81.1362L94.4082 71.9102L101.016 65.4632C102.278 64.231 103.28 62.7589 103.965 61.1337C104.649 59.5084 105.001 57.7627 105.001 55.9992C105.001 54.2358 104.649 52.4901 103.965 50.8648C103.28 49.2396 102.278 47.7675 101.016 46.5352L94.4082 40.0952L94.5202 30.8552C94.54 29.0925 94.2072 27.3436 93.5415 25.7112C92.8757 24.0789 91.8905 22.5961 90.6437 21.3499C89.3968 20.1037 87.9135 19.1192 86.2808 18.4543C84.6481 17.7895 82.899 17.4576 81.1362 17.4783L71.9102 17.5903Z" fill="url(#paint1_linear_4507_220)"/>
</g>
<defs>
<linearGradient id="paint0_linear_4507_220" x1="54.2505" y1="41.9941" x2="54.2505" y2="70.0067" gradientUnits="userSpaceOnUse">
<stop stop-color="#52FF00"/>
<stop offset="1" stop-color="#42533A" stop-opacity="0.49"/>
</linearGradient>
<linearGradient id="paint1_linear_4507_220" x1="55.9992" y1="0.00488281" x2="55.9992" y2="111.994" gradientUnits="userSpaceOnUse">
<stop stop-color="#52FF00"/>
<stop offset="1" stop-color="#42533A" stop-opacity="0.49"/>
</linearGradient>
<clipPath id="clip0_4507_220">
<rect width="112" height="112" fill="white"/>
</clipPath>
</defs>
</svg>
