<svg width="70" height="70" viewBox="0 0 70 70" fill="none" xmlns="http://www.w3.org/2000/svg">
<path d="M54.6875 70C58.7486 70 62.6434 68.3867 65.5151 65.5151C68.3867 62.6434 70 58.7486 70 54.6875C70 50.6264 68.3867 46.7316 65.5151 43.8599C62.6434 40.9883 58.7486 39.375 54.6875 39.375C50.6264 39.375 46.7316 40.9883 43.8599 43.8599C40.9883 46.7316 39.375 50.6264 39.375 54.6875C39.375 58.7486 40.9883 62.6434 43.8599 65.5151C46.7316 68.3867 50.6264 70 54.6875 70ZM62.0331 50.3431L56.1925 60.0819C55.9358 60.5097 55.585 60.8734 55.1666 61.1453C54.7483 61.4172 54.2734 61.59 53.7782 61.6508C53.2829 61.7115 52.7804 61.6585 52.3087 61.4958C51.8371 61.3331 51.4087 61.065 51.0562 60.7119L47.67 57.33C47.2592 56.9192 47.0285 56.3621 47.0285 55.7812C47.0285 55.2004 47.2592 54.6433 47.67 54.2325C48.0808 53.8217 48.6379 53.591 49.2188 53.591C49.7996 53.591 50.3567 53.8217 50.7675 54.2325L53.1606 56.63L58.2794 48.0944C58.427 47.8479 58.6218 47.6329 58.8525 47.4617C59.0833 47.2905 59.3455 47.1664 59.6242 47.0965C59.9028 47.0267 60.1926 47.0124 60.4768 47.0545C60.761 47.0966 61.0341 47.1942 61.2806 47.3419C61.5271 47.4895 61.7421 47.6843 61.9133 47.915C62.0845 48.1458 62.2086 48.408 62.2785 48.6867C62.3483 48.9653 62.3626 49.2551 62.3205 49.5393C62.2784 49.8235 62.1808 50.0966 62.0331 50.3431ZM48.125 21.875C48.125 25.356 46.7422 28.6944 44.2808 31.1558C41.8194 33.6172 38.481 35 35 35C31.519 35 28.1806 33.6172 25.7192 31.1558C23.2578 28.6944 21.875 25.356 21.875 21.875C21.875 18.394 23.2578 15.0556 25.7192 12.5942C28.1806 10.1328 31.519 8.75 35 8.75C38.481 8.75 41.8194 10.1328 44.2808 12.5942C46.7422 15.0556 48.125 18.394 48.125 21.875ZM35 30.625C37.3206 30.625 39.5462 29.7031 41.1872 28.0622C42.8281 26.4212 43.75 24.1956 43.75 21.875C43.75 19.5544 42.8281 17.3288 41.1872 15.6878C39.5462 14.0469 37.3206 13.125 35 13.125C32.6794 13.125 30.4538 14.0469 28.8128 15.6878C27.1719 17.3288 26.25 19.5544 26.25 21.875C26.25 24.1956 27.1719 26.4212 28.8128 28.0622C30.4538 29.7031 32.6794 30.625 35 30.625Z" fill="url(#paint0_linear_4507_223)"/>
<path d="M36.12 61.25C35.6181 59.8293 35.2819 58.3553 35.1181 56.8575H13.125C13.1294 55.7813 13.7988 52.5437 16.765 49.5775C19.6175 46.725 24.9856 43.75 35 43.75C36.1375 43.75 37.2181 43.7894 38.2375 43.8594C39.2262 42.3675 40.4075 41.0156 41.755 39.8431C39.7119 39.5413 37.4675 39.375 35 39.375C13.125 39.375 8.75 52.5 8.75 56.875C8.75 61.25 13.125 61.25 13.125 61.25H36.12Z" fill="url(#paint1_linear_4507_223)"/>
<defs>
<linearGradient id="paint0_linear_4507_223" x1="45.9375" y1="8.75" x2="45.9375" y2="70" gradientUnits="userSpaceOnUse">
<stop stop-color="#52FF00"/>
<stop offset="1" stop-color="#225709" stop-opacity="0.42"/>
</linearGradient>
<linearGradient id="paint1_linear_4507_223" x1="25.2525" y1="39.375" x2="25.2525" y2="61.25" gradientUnits="userSpaceOnUse">
<stop stop-color="#52FF00"/>
<stop offset="1" stop-color="#225709" stop-opacity="0.42"/>
</linearGradient>
</defs>
</svg>
