<svg width="34" height="34" viewBox="0 0 34 34" fill="none" xmlns="http://www.w3.org/2000/svg">
<circle cx="17" cy="17" r="16" stroke="black" stroke-width="2"/>
<path d="M15.4692 13.4846C15.4692 13.9944 15.2667 14.4833 14.9063 14.8438C14.5458 15.2042 14.0569 15.4067 13.5471 15.4067C13.0373 15.4067 12.5484 15.2042 12.188 14.8438C11.8275 14.4833 11.625 13.9944 11.625 13.4846C11.625 12.9748 11.8275 12.4859 12.188 12.1255C12.5484 11.765 13.0373 11.5625 13.5471 11.5625C14.0569 11.5625 14.5458 11.765 14.9063 12.1255C15.2667 12.4859 15.4692 12.9748 15.4692 13.4846ZM14.1878 13.4846C14.1878 13.3147 14.1203 13.1517 14.0002 13.0316C13.88 12.9114 13.717 12.8439 13.5471 12.8439C13.3772 12.8439 13.2142 12.9114 13.0941 13.0316C12.9739 13.1517 12.9064 13.3147 12.9064 13.4846C12.9064 13.6545 12.9739 13.8175 13.0941 13.9377C13.2142 14.0578 13.3772 14.1253 13.5471 14.1253C13.717 14.1253 13.88 14.0578 14.0002 13.9377C14.1203 13.8175 14.1878 13.6545 14.1878 13.4846Z" fill="black"/>
<path d="M10.3439 9H16.2205C16.5603 9.00007 16.8862 9.13513 17.1264 9.37545L26.0963 18.3453C26.3366 18.5856 26.4715 18.9115 26.4715 19.2513C26.4715 19.5911 26.3366 19.917 26.0963 20.1573L20.2198 26.0338C19.9795 26.2741 19.6536 26.409 19.3138 26.409C18.974 26.409 18.6481 26.2741 18.4078 26.0338L9.43795 17.0639C9.19763 16.8237 9.06257 16.4978 9.0625 16.158V10.2814C9.0625 9.94156 9.19751 9.61563 9.43782 9.37532C9.67813 9.13501 10.0041 9 10.3439 9ZM10.3439 16.158L19.3138 25.1279L25.1904 19.2513L16.2205 10.2814H10.3439V16.158Z" fill="black"/>
</svg>
