<svg width="81" height="94" viewBox="0 0 81 94" fill="none" xmlns="http://www.w3.org/2000/svg">
<path d="M80.465 78.2948L69.2911 59.1625C71.0219 58.6021 72.7574 57.8498 73.6703 56.2802C74.7821 54.3679 74.2304 52.0044 73.7439 49.9187C73.4214 48.5366 73.0878 47.1074 73.3281 46.1597C73.587 45.139 74.585 43.9968 75.5501 42.8922C76.9818 41.2535 78.4624 39.5591 78.4624 37.459C78.4624 35.4277 76.9476 33.4992 75.4826 31.6339C74.4806 30.3584 73.445 29.0395 73.1798 28.0015C72.9378 27.0533 73.2687 25.6233 73.5885 24.2404C74.0714 22.1542 74.6186 19.7896 73.5031 17.8794C72.3876 15.9691 70.0539 15.2747 67.9948 14.6617C66.6301 14.2553 65.2189 13.8352 64.5113 13.157C63.7596 12.4361 63.2678 11.0101 62.7924 9.63059C62.0735 7.54568 61.3302 5.39007 59.4406 4.38349C58.7473 4.01427 57.9624 3.83464 57.0409 3.83464C55.7827 3.83464 54.4669 4.17532 53.1945 4.50473C52.0293 4.80639 50.9291 5.09156 50.0044 5.09156C49.7405 5.09156 49.5111 5.06851 49.3032 5.02085C48.3033 4.7912 47.1544 3.81526 46.0431 2.87179C44.3807 1.46012 42.6612 0 40.5366 0C37.9243 0 34.7429 2.53871 32.6378 4.21878C32.2022 4.56627 31.6705 4.99048 31.4387 5.14131C31.261 5.17299 31.0634 5.18897 30.8491 5.18897C29.9263 5.18923 28.8284 4.90695 27.6664 4.60817C26.3979 4.28189 25.0864 3.94488 23.8321 3.94488C22.9048 3.94488 22.1155 4.12582 21.4198 4.49819C19.532 5.50843 18.7927 7.66561 18.0777 9.75183C17.6049 11.1321 17.1157 12.5592 16.3656 13.2811C15.6591 13.9609 14.2487 14.3836 12.8845 14.7923C10.8265 15.409 8.49406 16.1079 7.38172 18.0202C6.26991 19.9326 6.82161 22.2958 7.30813 24.381C7.63089 25.7631 7.96444 27.1926 7.7242 28.1416C7.48318 29.0921 6.50962 30.2616 5.56812 31.3923C4.11041 33.143 2.4582 35.1271 2.4582 37.4451C2.4582 39.5475 3.94377 41.2404 5.38072 42.8776C6.34797 43.9797 7.34781 45.1193 7.60829 46.1385C7.85036 47.0864 7.51945 48.5164 7.19957 49.899C6.71673 51.9852 6.1695 54.3498 7.28526 56.2608C8.22964 57.8778 10.0064 58.6113 11.748 59.1614L0.531842 78.4472C-0.100289 79.5337 -0.172307 80.6846 0.333923 81.6039C0.840153 82.5236 1.85288 83.0813 3.11293 83.1345L11.2139 83.4707C12.428 83.5215 14.1241 84.5006 14.772 85.5242L19.0949 92.3584C19.7549 93.4014 20.7259 94 21.7591 94C22.8317 94 23.8161 93.3653 24.4598 92.2584C24.5649 92.0777 33.7417 76.2932 36.0402 72.3418C37.1909 73.1766 38.9788 74.218 40.7346 74.218C42.3531 74.218 43.7438 73.3845 45.021 72.3808C46.051 74.1488 48.8568 79.0037 56.5623 92.1987C57.2068 93.3024 58.1903 93.9856 59.2611 93.9856C60.2959 93.9856 61.2676 93.3357 61.9268 92.2893L66.2374 85.4226C66.8843 84.3972 68.5783 83.4024 69.7918 83.3497L77.8923 82.9918C79.1518 82.9368 80.1635 82.3743 80.6684 81.4541C81.1731 80.5335 81.0989 79.3802 80.465 78.2948ZM51.1969 46.7067L52.1757 52.3919C52.3069 53.1547 52.1944 53.6135 52.0582 53.7743C52.0325 53.8046 51.9726 53.8759 51.741 53.8759C51.5688 53.8759 51.1932 53.83 50.6105 53.525L45.4854 50.8407C44.1586 50.146 42.4173 49.7631 40.5821 49.7631C38.747 49.7631 37.0056 50.146 35.6791 50.8407L30.554 53.525C29.9715 53.83 29.5954 53.8759 29.4235 53.8759C29.1922 53.8759 29.132 53.8049 29.1062 53.7745C28.9701 53.6137 28.8576 53.155 28.989 52.3922L29.9678 46.7065C30.4927 43.6566 29.1617 39.5753 26.9376 37.4155L22.7913 33.3889C22.1696 32.7851 22.0261 32.3145 22.0813 32.1456C22.1363 31.9767 22.53 31.6803 23.3892 31.5559L29.1194 30.7263C32.1933 30.2815 35.678 27.759 37.0527 24.9841L39.6151 19.8111C39.9991 19.0357 40.4039 18.7542 40.5824 18.7542C40.7606 18.7542 41.1654 19.0357 41.5496 19.8111L44.1123 24.9841C45.487 27.759 48.9717 30.2812 52.0456 30.7263L57.7755 31.5559C58.6345 31.6803 59.0285 31.977 59.0834 32.1456C59.1386 32.3145 58.9949 32.7851 58.3732 33.3889L54.2272 37.4152C52.0028 39.5753 50.6718 43.6566 51.1969 46.7067Z" fill="url(#paint0_linear_3266_2845)"/>
<defs>
<linearGradient id="paint0_linear_3266_2845" x1="15" y1="18" x2="66.5" y2="79.5" gradientUnits="userSpaceOnUse">
<stop stop-color="#7E7F84"/>
<stop offset="1" stop-color="#E7E7E9"/>
</linearGradient>
</defs>
</svg>
