<svg width="34" height="34" viewBox="0 0 34 34" fill="none" xmlns="http://www.w3.org/2000/svg">
<circle cx="17" cy="17" r="16" stroke="black" stroke-width="2"/>
<path fill-rule="evenodd" clip-rule="evenodd" d="M13.2445 24.8814C13.9151 25.1633 14.7169 25.3543 15.65 25.4543V23.6C15.341 23.5462 15.0416 23.4776 14.7518 23.3942C13.9513 23.159 13.3041 22.7977 12.8102 22.3103C12.3163 21.8062 12.0438 21.1509 11.9927 20.3443H10C10.0852 21.3357 10.3832 22.2264 10.8941 23.0161C11.4221 23.8059 12.2056 24.4277 13.2445 24.8814ZM22.2117 24.3016C21.2251 24.983 19.9352 25.3825 18.3421 25.5V23.7111C19.3526 23.6271 20.1826 23.3954 20.8321 23.0161C21.6667 22.512 22.0839 21.7726 22.0839 20.798C22.0839 20.2099 21.8711 19.7393 21.4453 19.3864C21.0365 19.0167 20.483 18.7142 19.7847 18.479C19.3337 18.3233 18.8528 18.1786 18.3421 18.0449V16.1916C18.7054 16.2854 19.067 16.3842 19.427 16.4877C20.2616 16.7062 21.0195 16.9919 21.7007 17.3447C22.399 17.6808 22.9526 18.1177 23.3613 18.6555C23.7871 19.1932 24 19.8822 24 20.7224C24 22.2683 23.4039 23.4614 22.2117 24.3016ZM15.65 15.5417C15.3023 15.4489 14.9688 15.3525 14.6496 15.2526C13.9684 15.0174 13.4148 14.7317 12.989 14.3956C12.5803 14.0427 12.3759 13.5891 12.3759 13.0345C12.3759 12.7488 12.427 12.4464 12.5292 12.1271C12.6484 11.8078 12.8613 11.5053 13.1679 11.2197C13.4915 10.9172 13.9513 10.6735 14.5474 10.4887C14.8644 10.3904 15.2319 10.3182 15.65 10.2722V8.5C14.135 8.63869 12.95 9.04953 12.0949 9.73251C11.0389 10.5895 10.511 11.6986 10.511 13.0597C10.511 13.8831 10.7153 14.5637 11.1241 15.1014C11.5499 15.6224 12.1034 16.0508 12.7847 16.3869C13.483 16.723 14.2409 17.0002 15.0584 17.2187C15.2561 17.2705 15.4532 17.3217 15.65 17.3725V15.5417ZM18.3421 8.52953V10.3178C19.1723 10.4511 19.832 10.7097 20.3212 11.0936C21.0706 11.665 21.4964 12.3707 21.5986 13.2109H23.5657C23.5146 12.3707 23.2421 11.5894 22.7482 10.8668C22.2713 10.1442 21.5475 9.56447 20.5766 9.12754C19.9439 8.83184 19.1991 8.63251 18.3421 8.52953Z" fill="black"/>
</svg>
