<svg width="32" height="36" viewBox="0 0 32 36" fill="none" xmlns="http://www.w3.org/2000/svg">
<path d="M9.91543 3.5775C7.73849 4.16809 5.57634 4.81027 3.43087 5.5035C3.23496 5.56597 3.06081 5.68135 2.92826 5.83649C2.79571 5.99163 2.71009 6.1803 2.68115 6.381C1.41487 15.7343 4.34058 22.5585 7.83086 27.054C9.30861 28.9764 11.0706 30.6699 13.0583 32.0783C13.8491 32.6273 14.5486 33.0233 15.0994 33.2775C15.3737 33.4058 15.5977 33.4912 15.7691 33.543C15.8441 33.5689 15.9214 33.5877 16 33.5993C16.0777 33.5868 16.1541 33.568 16.2286 33.543C16.4023 33.4912 16.6263 33.4058 16.9006 33.2775C17.4491 33.0233 18.1509 32.625 18.9417 32.0783C20.9293 30.6699 22.6914 28.9764 24.1691 27.054C27.6594 22.5608 30.5851 15.7343 29.3188 6.381C29.2902 6.1802 29.2046 5.99141 29.0721 5.83623C28.9395 5.68104 28.7652 5.56574 28.5691 5.5035C27.0811 5.02425 24.5691 4.2435 22.0846 3.57975C19.5474 2.9025 17.2137 2.40075 16 2.40075C14.7886 2.40075 12.4526 2.90025 9.91543 3.5775ZM9.30743 1.26C11.7874 0.59625 14.4229 0 16 0C17.5771 0 20.2126 0.59625 22.6926 1.26C25.2297 1.935 27.7874 2.73375 29.2914 3.2175C29.9202 3.42192 30.4777 3.7968 30.8998 4.29908C31.3219 4.80136 31.5916 5.41066 31.6777 6.057C33.04 16.1303 29.8788 23.5958 26.0434 28.5345C24.417 30.6472 22.4777 32.5077 20.2903 34.0537C19.5339 34.5888 18.7325 35.0592 17.8949 35.46C17.2549 35.757 16.5669 36 16 36C15.4331 36 14.7474 35.757 14.1051 35.46C13.2675 35.0592 12.4661 34.5888 11.7097 34.0537C9.52235 32.5076 7.58305 30.6472 5.95658 28.5345C2.12115 23.5958 -1.03999 16.1303 0.322298 6.057C0.40844 5.41066 0.678053 4.80136 1.10016 4.29908C1.52228 3.7968 2.07976 3.42192 2.70858 3.2175C4.89188 2.51282 7.09213 1.86013 9.30743 1.26Z" fill="black"/>
<path d="M22.5204 11.5805C22.6268 11.685 22.7113 11.8092 22.7689 11.9458C22.8265 12.0825 22.8562 12.229 22.8562 12.377C22.8562 12.525 22.8265 12.6715 22.7689 12.8082C22.7113 12.9449 22.6268 13.069 22.5204 13.1735L15.6633 19.9235C15.5571 20.0283 15.431 20.1114 15.2921 20.1681C15.1533 20.2248 15.0044 20.254 14.8541 20.254C14.7038 20.254 14.5549 20.2248 14.4161 20.1681C14.2773 20.1114 14.1511 20.0283 14.045 19.9235L10.6164 16.5485C10.5101 16.4439 10.4259 16.3197 10.3684 16.1831C10.3108 16.0464 10.2813 15.8999 10.2812 15.752C10.2812 15.6041 10.3108 15.4576 10.3684 15.3209C10.4259 15.1843 10.5101 15.0601 10.6164 14.9555C10.7227 14.8509 10.8488 14.7679 10.9876 14.7113C11.1265 14.6547 11.2753 14.6256 11.4256 14.6256C11.5758 14.6256 11.7246 14.6547 11.8635 14.7113C12.0023 14.7679 12.1284 14.8509 12.2347 14.9555L14.8541 17.5363L20.9021 11.5805C21.0083 11.4757 21.1344 11.3926 21.2732 11.3359C21.4121 11.2792 21.5609 11.25 21.7113 11.25C21.8616 11.25 22.0104 11.2792 22.1493 11.3359C22.2881 11.3926 22.4142 11.4757 22.5204 11.5805Z" fill="black"/>
</svg>
