<svg width="13" height="20" viewBox="0 0 13 20" fill="none" xmlns="http://www.w3.org/2000/svg">
<path d="M7.45589 15H5.41982C5.09405 15 4.84972 14.7507 4.84972 14.4184V13.7952C4.84972 12.0502 5.9492 10.4715 7.57805 9.88982C8.06671 9.72364 8.51464 9.43281 8.88113 9.01735C10.9172 6.52458 9.04402 3.53326 6.60074 3.45017C5.70487 3.40862 4.84972 3.74099 4.19818 4.36418C3.6688 4.86274 3.34303 5.48593 3.26159 6.19221C3.22087 6.44149 2.97654 6.64922 2.65077 6.64922H0.6147C0.248208 6.64922 -0.0368419 6.3584 0.00387948 5.98448C0.166765 4.40573 0.859028 2.99316 1.9585 1.87141C3.26159 0.625028 4.93116 -0.0397101 6.7229 0.0018361C10.1028 0.126475 12.8718 2.95161 12.994 6.39994C13.1162 9.30818 11.3651 11.9256 8.71825 12.9227C8.35176 13.0889 8.10743 13.3797 8.10743 13.7536V14.3768C8.10743 14.7507 7.78166 15 7.45589 15Z" fill="url(#paint0_linear_3350_255)"/>
<path d="M8 19.4375C8 19.7375 7.7375 20 7.4375 20H5.5625C5.2625 20 5 19.7375 5 19.4375V17.5625C5 17.2625 5.2625 17 5.5625 17H7.4375C7.7375 17 8 17.2625 8 17.5625V19.4375Z" fill="url(#paint1_linear_3350_255)"/>
<defs>
<linearGradient id="paint0_linear_3350_255" x1="6.5" y1="0" x2="6.5" y2="15" gradientUnits="userSpaceOnUse">
<stop/>
<stop offset="1" stop-opacity="0"/>
</linearGradient>
<linearGradient id="paint1_linear_3350_255" x1="6.5" y1="17" x2="6.5" y2="20" gradientUnits="userSpaceOnUse">
<stop/>
<stop offset="1" stop-opacity="0"/>
</linearGradient>
</defs>
</svg>
