<svg width="93" height="93" viewBox="0 0 93 93" fill="none" xmlns="http://www.w3.org/2000/svg">
<g clip-path="url(#clip0_3284_2968)">
<path d="M61.9285 22.1374C61.9549 22.0243 61.9982 21.8212 61.9982 21.7003V12.4005C61.9982 11.5433 61.3054 10.8505 60.4483 10.8505C59.5911 10.8505 58.8983 11.5433 58.8983 12.4005V19.3707C55.4806 16.9032 51.3003 15.5004 46.7775 15.5004C46.7326 15.5004 46.6861 15.5004 46.6427 15.5004C43.2343 15.5004 40.0305 16.3142 37.1987 17.7928V10.8505C37.1987 9.99338 36.5043 9.30054 35.6487 9.30054C34.7931 9.30054 34.0987 9.99338 34.0987 10.8505V19.7877C29.1512 23.6176 25.9629 29.7989 26.0063 36.5243C26.0791 47.9305 35.3821 57.3497 46.7729 57.3497C46.8178 57.3497 46.8643 57.3497 46.9077 57.3497C58.3605 57.3497 67.6185 47.7089 67.5441 36.2561C67.51 30.8312 65.371 25.8186 61.9285 22.1374ZM46.8875 54.2498C46.8488 54.2498 46.8116 54.2498 46.7729 54.2498C37.0824 54.2498 29.1682 46.2426 29.1062 36.5382C29.0427 26.7966 36.9197 18.6004 46.6613 18.6004C46.7 18.6004 46.7372 18.6004 46.776 18.6004C56.4664 18.6004 64.3806 26.6075 64.4426 36.3119C64.5061 46.0535 56.6307 54.2498 46.8875 54.2498Z" fill="black"/>
<path d="M35.6496 0.000732422C34.794 0.000732422 34.0996 0.693571 34.0996 1.55071V4.65066C34.0996 5.50779 34.794 6.20063 35.6496 6.20063C36.5052 6.20063 37.1996 5.50779 37.1996 4.65066V1.55071C37.1996 0.693571 36.5052 0.000732422 35.6496 0.000732422Z" fill="black"/>
<path d="M60.4484 1.55078C59.5913 1.55078 58.8984 2.24362 58.8984 3.10076V6.2007C58.8984 7.05784 59.5913 7.75068 60.4484 7.75068C61.3055 7.75068 61.9984 7.05784 61.9984 6.2007V3.10076C61.9984 2.24362 61.3055 1.55078 60.4484 1.55078Z" fill="black"/>
<path d="M18.5988 35.6501C17.7432 35.6501 17.0488 36.343 17.0488 37.2001V49.5999C17.0488 50.4571 17.7432 51.1499 18.5988 51.1499C19.4544 51.1499 20.1488 50.4571 20.1488 49.5999V37.2001C20.1488 36.343 19.4544 35.6501 18.5988 35.6501Z" fill="black"/>
<path d="M18.5988 26.3503C17.7432 26.3503 17.0488 27.0432 17.0488 27.9003V31.0003C17.0488 31.8574 17.7432 32.5502 18.5988 32.5502C19.4544 32.5502 20.1488 31.8574 20.1488 31.0003V27.9003C20.1488 27.0432 19.4544 26.3503 18.5988 26.3503Z" fill="black"/>
<path d="M77.4992 21.7004C76.6421 21.7004 75.9492 22.3933 75.9492 23.2504V35.6502C75.9492 36.5073 76.6421 37.2002 77.4992 37.2002C78.3563 37.2002 79.0492 36.5073 79.0492 35.6502V23.2504C79.0492 22.3933 78.3563 21.7004 77.4992 21.7004Z" fill="black"/>
<path d="M77.4992 12.4006C76.6421 12.4006 75.9492 13.0935 75.9492 13.9506V17.0506C75.9492 17.9077 76.6421 18.6005 77.4992 18.6005C78.3563 18.6005 79.0492 17.9077 79.0492 17.0506V13.9506C79.0492 13.0935 78.3563 12.4006 77.4992 12.4006Z" fill="black"/>
<path d="M52.6795 40.2305L52.6686 38.682C52.6609 37.439 52.1711 36.2749 51.2861 35.4023C50.401 34.5312 49.1827 34.029 47.9893 34.0709L44.8893 34.1003C44.8862 34.1003 44.8831 34.1003 44.88 34.1003C44.0306 34.1003 43.3347 33.4013 43.33 32.5503L43.3207 30.9973C43.3161 30.1417 44.0058 29.4395 44.8614 29.4349L46.3742 29.424C46.4238 29.4271 46.4672 29.4504 46.5199 29.4504C46.523 29.4504 46.5261 29.4504 46.5292 29.4504C46.5819 29.4504 46.6268 29.424 46.678 29.4194L51.0582 29.3915C51.9153 29.3853 52.6051 28.7172 52.5989 27.8617C52.5927 27.0076 51.9014 26.3504 51.0489 26.3504C51.0458 26.3504 51.0427 26.3504 51.0396 26.3504L48.059 26.3396L48.0497 24.8051C48.0451 23.9526 47.3507 23.2505 46.4997 23.2505C46.4966 23.2505 46.4935 23.2505 46.4904 23.2505C45.6348 23.2567 44.9451 23.965 44.9498 24.8206L44.9591 26.3504H44.8413C42.2776 26.3504 40.2053 28.4553 40.2208 31.0205L40.2301 32.5751C40.2471 35.1295 42.3303 37.2003 44.8816 37.2003C44.8909 37.2003 44.9017 37.2003 44.911 37.2003H48.011C48.0141 37.2003 48.0172 37.2003 48.0203 37.2003C48.4295 37.2003 48.8154 37.3398 49.1099 37.6265C49.4028 37.9179 49.5671 38.2961 49.5702 38.7115L49.5811 40.2553C49.5873 41.1108 48.896 41.8083 48.0404 41.813L41.8405 41.8517C40.9849 41.8579 40.2952 42.5554 40.2998 43.411C40.3045 44.2635 40.9989 44.9501 41.8498 44.9501C41.8529 44.9501 41.856 44.9501 41.8591 44.9501L44.9591 44.93L44.9684 46.511C44.973 47.3634 45.6674 48.0501 46.5183 48.0501C46.5214 48.0501 46.5245 48.0501 46.5276 48.0501C47.3832 48.0439 48.0745 47.3464 48.0683 46.4893L48.059 44.9098C50.6227 44.8928 52.695 42.7957 52.6795 40.2305Z" fill="black"/>
<path d="M35.6496 38.7501C36.5056 38.7501 37.1996 38.0561 37.1996 37.2001C37.1996 36.3441 36.5056 35.6501 35.6496 35.6501C34.7936 35.6501 34.0996 36.3441 34.0996 37.2001C34.0996 38.0561 34.7936 38.7501 35.6496 38.7501Z" fill="black"/>
<path d="M57.3488 38.7501C58.2048 38.7501 58.8988 38.0561 58.8988 37.2001C58.8988 36.3441 58.2048 35.6501 57.3488 35.6501C56.4928 35.6501 55.7988 36.3441 55.7988 37.2001C55.7988 38.0561 56.4928 38.7501 57.3488 38.7501Z" fill="black"/>
<path d="M91.4485 60.4497H74.3988C72.3807 60.4497 70.6757 61.7501 70.034 63.5497H62.2749C61.4363 63.5497 60.7621 64.2177 60.7342 65.05L47.8028 62.1159C46.8697 61.9051 45.9009 61.978 45.0097 62.3329L32.8734 67.1471C31.3064 67.7687 30.1578 69.0304 29.6851 70.5555L5.98445 63.6039C4.53987 63.1839 3.024 63.452 1.82742 64.3479C0.666489 65.219 0 66.5396 0 67.9733V71.3352C0 72.8727 0.781187 74.2956 2.08782 75.1404L19.3065 86.2831C19.4584 86.3808 19.6273 86.4521 19.804 86.4924L45.4406 92.3466C45.7878 92.4272 46.1443 92.466 46.4992 92.466C46.8557 92.466 47.2107 92.4272 47.5579 92.3466L61.0504 89.2513C61.3309 89.6342 61.7634 89.8992 62.2764 89.8992H70.0356C70.6773 91.6987 72.3822 92.9992 74.4003 92.9992H91.45C92.3072 92.9992 93 92.3063 93 91.4492V61.9997C92.9985 61.1425 92.3056 60.4497 91.4485 60.4497ZM60.3513 86.232L46.8635 89.3257C46.6263 89.3815 46.3737 89.3815 46.1334 89.3257L20.7619 83.5319L3.77109 72.5364C3.35104 72.2636 3.09995 71.8157 3.09995 71.3336V67.9717C3.09995 67.3579 3.46574 66.9937 3.68429 66.831C4.09348 66.5256 4.61117 66.4295 5.11026 66.5799L29.7192 73.8074C30.4415 75.9432 32.5076 77.4994 34.9364 77.4994H46.4992C47.3548 77.4994 48.0492 76.8066 48.0492 75.9494C48.0492 75.0923 47.3548 74.3995 46.4992 74.3995H34.9364C33.6205 74.3995 32.5495 73.3811 32.5495 72.1365C32.5495 71.2158 33.126 70.3897 34.0188 70.0348L46.1551 65.2174C46.462 65.095 46.7968 65.0686 47.1192 65.1415L60.4428 68.1639L60.3513 86.232ZM69.7488 86.7993H63.5489V66.6496H69.7488V86.7993ZM89.8985 89.8992H74.3988C73.5432 89.8992 72.8488 89.2048 72.8488 88.3492V65.0996C72.8488 64.244 73.5432 63.5497 74.3988 63.5497H89.8985V89.8992Z" fill="black"/>
<path d="M83.9753 83.6995H79.3254C78.4682 83.6995 77.7754 84.3923 77.7754 85.2494C77.7754 86.1066 78.4682 86.7994 79.3254 86.7994H83.9753C84.8324 86.7994 85.5253 86.1066 85.5253 85.2494C85.5253 84.3923 84.8324 83.6995 83.9753 83.6995Z" fill="black"/>
</g>
<defs>
<clipPath id="clip0_3284_2968">
<rect width="93" height="93" fill="white"/>
</clipPath>
</defs>
</svg>
