<svg width="16" height="18" viewBox="0 0 16 18" fill="none" xmlns="http://www.w3.org/2000/svg">
<path d="M4.65372 0.63C5.89372 0.298125 7.21143 0 8 0C8.78857 0 10.1063 0.298125 11.3463 0.63C12.6149 0.9675 13.8937 1.36687 14.6457 1.60875C14.9601 1.71096 15.2389 1.8984 15.4499 2.14954C15.661 2.40068 15.7958 2.70533 15.8389 3.0285C16.52 8.06512 14.9394 11.7979 13.0217 14.2672C12.2085 15.3236 11.2388 16.2538 10.1451 17.0269C9.76696 17.2944 9.36627 17.5296 8.94743 17.73C8.62743 17.8785 8.28343 18 8 18C7.71657 18 7.37371 17.8785 7.05257 17.73C6.63373 17.5296 6.23304 17.2944 5.85486 17.0269C4.76118 16.2538 3.79153 15.3236 2.97829 14.2672C1.06058 11.7979 -0.519993 8.06512 0.161149 3.0285C0.20422 2.70533 0.339027 2.40068 0.550082 2.14954C0.761138 1.8984 1.03988 1.71096 1.35429 1.60875C2.44594 1.25641 3.54607 0.930065 4.65372 0.63Z" fill="url(#paint0_linear_4696_10439)"/>
<path d="M11.9537 5.70697C12.013 5.765 12.06 5.83394 12.092 5.90984C12.1241 5.98574 12.1406 6.0671 12.1406 6.14927C12.1406 6.23145 12.1241 6.31281 12.092 6.38871C12.06 6.46461 12.013 6.53355 11.9537 6.59158L8.1366 10.3399C8.0775 10.3981 8.0073 10.4442 7.93001 10.4757C7.85272 10.5072 7.76986 10.5234 7.68618 10.5234C7.6025 10.5234 7.51964 10.5072 7.44235 10.4757C7.36506 10.4442 7.29485 10.3981 7.23576 10.3399L5.3272 8.46574C5.26805 8.40766 5.22112 8.3387 5.18911 8.26281C5.1571 8.18692 5.14063 8.10558 5.14062 8.02344C5.14062 7.94129 5.1571 7.85996 5.18911 7.78406C5.22112 7.70817 5.26805 7.63922 5.3272 7.58113C5.38635 7.52305 5.45657 7.47698 5.53385 7.44554C5.61113 7.41411 5.69397 7.39793 5.77762 7.39793C5.86127 7.39793 5.9441 7.41411 6.02138 7.44554C6.09867 7.47698 6.16889 7.52305 6.22804 7.58113L7.68618 9.01425L11.0529 5.70697C11.112 5.64879 11.1822 5.60264 11.2595 5.57114C11.3368 5.53965 11.4196 5.52344 11.5033 5.52344C11.587 5.52344 11.6698 5.53965 11.7471 5.57114C11.8244 5.60264 11.8946 5.64879 11.9537 5.70697Z" fill="#0BDF1F"/>
<defs>
<linearGradient id="paint0_linear_4696_10439" x1="8" y1="0" x2="8" y2="18" gradientUnits="userSpaceOnUse">
<stop stop-color="#005913"/>
<stop offset="0.0001" stop-color="#002408"/>
<stop offset="1" stop-color="#007318"/>
</linearGradient>
</defs>
</svg>
