<svg width="112" height="112" viewBox="0 0 112 112" fill="none" xmlns="http://www.w3.org/2000/svg">
<path d="M37.366 11.13C30.6992 12.9674 24.0776 14.9653 17.507 17.122C16.9071 17.3164 16.3737 17.6753 15.9678 18.158C15.5619 18.6406 15.2997 19.2276 15.211 19.852C11.333 48.951 20.293 70.182 30.982 84.168C35.5076 90.1487 40.9039 95.4176 46.991 99.799C49.413 101.507 51.555 102.739 53.242 103.53C54.082 103.929 54.768 104.195 55.293 104.356C55.5226 104.437 55.7594 104.495 56 104.531C56.2379 104.492 56.472 104.434 56.7 104.356C57.232 104.195 57.918 103.929 58.758 103.53C60.438 102.739 62.587 101.5 65.009 99.799C71.0961 95.4175 76.4924 90.1487 81.018 84.168C91.707 70.189 100.667 48.951 96.789 19.852C96.7012 19.2273 96.4393 18.6399 96.0332 18.1572C95.6272 17.6744 95.0934 17.3156 94.493 17.122C89.936 15.631 82.243 13.202 74.634 11.137C66.864 9.03 59.717 7.469 56 7.469C52.29 7.469 45.136 9.023 37.366 11.13ZM35.504 3.92C43.099 1.855 51.17 0 56 0C60.83 0 68.901 1.855 76.496 3.92C84.266 6.02 92.099 8.505 96.705 10.01C98.6308 10.646 100.338 11.8123 101.631 13.3749C102.924 14.9376 103.749 16.8332 104.013 18.844C108.185 50.183 98.504 73.409 86.758 88.774C81.7771 95.3469 75.838 101.135 69.139 105.945C66.8227 107.609 64.3684 109.073 61.803 110.32C59.843 111.244 57.736 112 56 112C54.264 112 52.164 111.244 50.197 110.32C47.6316 109.073 45.1774 107.609 42.861 105.945C36.1622 101.135 30.2231 95.3467 25.242 88.774C13.496 73.409 3.81504 50.183 7.98704 18.844C8.25085 16.8332 9.07654 14.9376 10.3693 13.3749C11.662 11.8123 13.3693 10.646 15.295 10.01C21.9814 7.81766 28.7197 5.78707 35.504 3.92Z" fill="url(#paint0_linear_4503_204)"/>
<path d="M75.9775 36.0224C76.3035 36.3475 76.5621 36.7337 76.7385 37.159C76.915 37.5842 77.0058 38.04 77.0058 38.5004C77.0058 38.9608 76.915 39.4166 76.7385 39.8418C76.5621 40.267 76.3035 40.6533 75.9775 40.9784L54.9775 61.9784C54.6524 62.3043 54.2662 62.5629 53.841 62.7394C53.4158 62.9158 52.9599 63.0067 52.4995 63.0067C52.0392 63.0067 51.5833 62.9158 51.1581 62.7394C50.7329 62.5629 50.3467 62.3043 50.0215 61.9784L39.5215 51.4784C39.1961 51.153 38.938 50.7667 38.7619 50.3415C38.5858 49.9163 38.4951 49.4606 38.4951 49.0004C38.4951 48.5402 38.5858 48.0845 38.7619 47.6593C38.938 47.2341 39.1961 46.8478 39.5215 46.5224C39.847 46.197 40.2333 45.9388 40.6585 45.7627C41.0836 45.5866 41.5393 45.496 41.9995 45.496C42.4597 45.496 42.9154 45.5866 43.3406 45.7627C43.7658 45.9388 44.1521 46.197 44.4775 46.5224L52.4995 54.5514L71.0215 36.0224C71.3467 35.6965 71.7329 35.4379 72.1581 35.2614C72.5833 35.085 73.0392 34.9941 73.4995 34.9941C73.9599 34.9941 74.4158 35.085 74.841 35.2614C75.2662 35.4379 75.6524 35.6965 75.9775 36.0224Z" fill="url(#paint1_linear_4503_204)"/>
<defs>
<linearGradient id="paint0_linear_4503_204" x1="56" y1="0" x2="56" y2="112" gradientUnits="userSpaceOnUse">
<stop stop-color="#008000"/>
<stop offset="1" stop-color="#022D06"/>
</linearGradient>
<linearGradient id="paint1_linear_4503_204" x1="57.7505" y1="34.9941" x2="57.7505" y2="63.0067" gradientUnits="userSpaceOnUse">
<stop stop-color="#008000"/>
<stop offset="1" stop-color="#022D06"/>
</linearGradient>
</defs>
</svg>
