<svg width="413" height="347" viewBox="0 0 413 347" fill="black" xmlns="http://www.w3.org/2000/svg">
<path fill-rule="evenodd" d="M377.79 3.06342C377.79 3.06342 415.995 -11.9567 412.811 24.5208C411.75 39.5411 402.199 92.1116 394.77 148.974L369.3 317.415C369.3 317.415 367.178 342.09 348.075 346.382C328.971 350.673 300.318 331.362 295.011 327.07C290.766 323.852 215.417 275.572 188.885 251.969C181.456 245.532 172.965 232.657 189.946 217.637L301.379 110.351C314.114 97.4762 326.849 67.4359 273.786 103.914L125.209 205.836C125.209 205.836 108.229 216.565 76.3913 206.909L7.40865 185.452C7.40865 185.452 -18.0618 169.359 25.4502 153.265C131.577 102.84 262.113 51.3421 377.79 3.06342Z" fill="black"/>
</svg>
