<svg width="60" height="50" viewBox="0 0 60 50" fill="none" xmlns="http://www.w3.org/2000/svg">
<path d="M54.4366 0.441414C54.4366 0.441414 59.9417 -1.72287 59.4829 3.53326C59.33 5.69757 57.9538 13.2726 56.8833 21.466L53.2133 45.737C53.2133 45.737 52.9075 49.2925 50.1549 49.911C47.4022 50.5293 43.2735 47.7467 42.5088 47.1283C41.8971 46.6646 31.0399 39.7078 27.2169 36.3068C26.1464 35.3793 24.9229 33.5241 27.3697 31.3598L43.4264 15.9007C45.2614 14.0456 47.0964 9.71699 39.4504 14.9732L18.0416 29.6594C18.0416 29.6594 15.595 31.2053 11.0074 29.814L1.06753 26.7222C1.06753 26.7222 -2.60257 24.4033 3.66718 22.0843C18.9592 14.8184 37.7685 7.398 54.4366 0.441414Z" fill="black"/>
</svg>
