<svg width="585" height="71" viewBox="0 0 585 71" fill="none" xmlns="http://www.w3.org/2000/svg">
<path d="M583.768 20.7678C584.744 19.7915 584.744 18.2085 583.768 17.2322L567.858 1.32233C566.882 0.34602 565.299 0.34602 564.322 1.32233C563.346 2.29864 563.346 3.88155 564.322 4.85786L578.464 19L564.322 33.1421C563.346 34.1184 563.346 35.7014 564.322 36.6777C565.299 37.654 566.882 37.654 567.858 36.6777L583.768 20.7678ZM3 21.5H582V16.5H3V21.5Z" fill="black"/>
<path d="M1.23223 50.2322C0.255922 51.2085 0.255922 52.7915 1.23223 53.7678L17.1421 69.6777C18.1184 70.654 19.7014 70.654 20.6777 69.6777C21.654 68.7014 21.654 67.1184 20.6777 66.1421L6.53553 52L20.6777 37.8579C21.654 36.8816 21.654 35.2986 20.6777 34.3223C19.7014 33.346 18.1184 33.346 17.1421 34.3223L1.23223 50.2322ZM3 54.5H582V49.5H3V54.5Z" fill="black"/>
</svg>
