<svg width="356" height="84" viewBox="0 0 356 84" fill="none" xmlns="http://www.w3.org/2000/svg">
<path d="M354.768 20.7677C355.744 19.7914 355.744 18.2085 354.768 17.2322L338.858 1.3223C337.882 0.34599 336.299 0.345991 335.322 1.3223C334.346 2.29861 334.346 3.88152 335.322 4.85784L349.464 19L335.322 33.1421C334.346 34.1184 334.346 35.7013 335.322 36.6776C336.299 37.654 337.882 37.654 338.858 36.6776L354.768 20.7677ZM3 21.5L353 21.5L353 16.5L3 16.5L3 21.5Z" fill="black"/>
<path d="M1.23223 63.2322C0.255922 64.2085 0.255922 65.7915 1.23223 66.7678L17.1421 82.6777C18.1184 83.654 19.7014 83.654 20.6777 82.6777C21.654 81.7014 21.654 80.1184 20.6777 79.1421L6.53553 65L20.6777 50.8579C21.654 49.8816 21.654 48.2986 20.6777 47.3223C19.7014 46.346 18.1184 46.346 17.1421 47.3223L1.23223 63.2322ZM3 67.5L353 67.5L353 62.5L3 62.5L3 67.5Z" fill="black"/>
</svg>
