<svg width="584" height="347" viewBox="0 0 584 347" fill="none" xmlns="http://www.w3.org/2000/svg">
<path d="M570.785 23.8556C564.214 44.4803 555.355 62.4328 544.257 78.7333L544.719 78.0045C533.816 96.1432 520.796 117.1 505.658 140.875C492.678 159.645 485.807 169.362 485.044 170.026C481.686 174.229 479.349 179.379 478.546 185.039L478.522 185.209C479.179 190.359 481.564 194.853 485.044 198.206L494.779 209.041C546.861 262.469 576.155 299.297 582.661 319.525C583.513 321.76 584 324.335 584 327.031C584 331.744 582.491 336.092 579.936 339.664L579.984 339.591C575.701 343.988 569.714 346.708 563.094 346.708C562.364 346.708 561.61 346.684 560.904 346.611H561.001H496.969C496.945 346.611 496.896 346.611 496.848 346.611C488.646 346.611 481.102 343.745 475.188 338.983L475.261 339.032C466.645 331.963 458.979 324.31 452.116 316.002L451.897 315.711C440.685 303.062 430.739 292.414 422.059 283.766C393.146 256.331 371.81 242.613 358.052 242.613C357.541 242.565 356.957 242.54 356.348 242.54C352.332 242.54 348.584 243.779 345.494 245.893L345.567 245.844C343.036 249.002 341.502 253.084 341.502 257.481C341.502 258.355 341.551 259.181 341.673 260.031V259.934C341.016 267.562 340.626 276.429 340.626 285.393C340.626 288.284 340.675 291.151 340.748 294.017V293.604V321.76C340.991 322.901 341.137 324.213 341.137 325.549C341.137 331.428 338.46 336.676 334.274 340.149L334.25 340.174C324.831 344.474 313.831 347 302.222 347C299.739 347 297.306 346.879 294.896 346.66L295.213 346.684C256.905 345.955 221.373 334.756 191.17 315.881L192.022 316.367C155.248 294.066 124.778 265.036 101.56 230.734L100.903 229.714C78.8532 200.514 58.288 167.524 40.7651 132.736L39.0615 128.995C28.8155 109.512 18.2044 85.5596 9.05351 60.9266L7.59327 56.4324C3.86964 45.3549 1.16819 32.4796 0.0486748 19.1428L0 18.5355C0 6.25948 7.23632 0.121467 21.709 0.121467H85.7163C86.3004 0.0728815 86.9818 0.0485823 87.6876 0.0485823C93.7233 0.0485823 99.2966 2.11348 103.702 5.58737L103.653 5.53879C108.52 10.8589 112.122 17.3937 113.899 24.6816L113.972 24.9731C125.751 58.1815 138.236 86.0698 152.595 112.792L150.965 109.464C162.695 133.028 175.667 153.313 190.464 172.042L189.905 171.289C202.885 187.193 213.009 195.145 220.278 195.145C220.497 195.169 220.764 195.169 221.057 195.169C224.658 195.169 227.798 193.226 229.502 190.311L229.526 190.262C231.327 185.646 232.373 180.278 232.373 174.69C232.373 173.5 232.325 172.31 232.227 171.144V171.289V77.0571C231.716 65.9553 228.991 55.5822 224.439 46.278L224.634 46.7396C221.616 40.3262 217.99 34.7875 213.682 29.856L213.755 29.9532C209.764 25.9691 207.038 20.7461 206.186 14.9158L206.162 14.7701C206.162 10.6403 208.06 6.92348 211.029 4.49419L211.054 4.4699C213.999 1.77338 217.941 0.145759 222.249 0.145759H222.444H323.347C323.882 0.0728798 324.49 0.0485823 325.123 0.0485823C329.869 0.0485823 334.128 2.18637 336.951 5.53879L336.975 5.56308C339.482 10.1301 340.967 15.5961 340.967 21.3778C340.967 22.3009 340.918 23.1997 340.845 24.0986V23.9771V149.644C340.796 150.227 340.772 150.908 340.772 151.588C340.772 156.058 342.013 160.26 344.155 163.831L344.106 163.734C345.883 166.358 348.852 168.058 352.211 168.058C356.494 167.767 360.412 166.358 363.698 164.123L363.625 164.172C370.245 159.629 375.94 154.454 380.88 148.6L380.978 148.478C395.75 131.813 409.379 113.399 421.256 93.8192L422.205 92.1187C430.577 78.2718 439.631 61.2181 447.832 43.7029L449.341 40.1319L460.196 18.4626C463.968 7.62797 474.092 0 485.993 0C486.456 0 486.918 -1.7609e-06 487.381 0.0242912H487.308H551.339C568.635 0.0242912 575.125 7.96808 570.809 23.8556H570.785Z" fill="white"/>
</svg>
