<svg width="85" height="51" viewBox="0 0 85 51" fill="none" xmlns="http://www.w3.org/2000/svg">
<path d="M82.7554 3.64786C81.8086 6.61971 80.5321 9.20653 78.933 11.5553L78.9995 11.4503C77.4285 14.0639 75.5524 17.0836 73.3711 20.5094C71.5008 23.2141 70.5108 24.6142 70.4008 24.7099C69.917 25.3155 69.5802 26.0576 69.4645 26.8731L69.4611 26.8976C69.5557 27.6397 69.8994 28.2872 70.4008 28.7704L71.8036 30.3316C79.3082 38.0302 83.5292 43.3368 84.4667 46.2515C84.5894 46.5736 84.6596 46.9446 84.6596 47.3331C84.6596 48.0122 84.4422 48.6387 84.074 49.1534L84.0809 49.1429C83.4638 49.7764 82.6011 50.1684 81.6472 50.1684C81.542 50.1684 81.4334 50.1649 81.3317 50.1544H81.3456H72.1191C72.1157 50.1544 72.1086 50.1544 72.1017 50.1544C70.9199 50.1544 69.8328 49.7414 68.9807 49.0553L68.9912 49.0623C67.7497 48.0437 66.6451 46.941 65.6562 45.7439L65.6246 45.7019C64.009 43.8793 62.5759 42.345 61.3252 41.0989C57.159 37.1458 54.0847 35.1691 52.1023 35.1691C52.0286 35.1622 51.9445 35.1586 51.8567 35.1586C51.2781 35.1586 50.738 35.3371 50.2928 35.6417L50.3033 35.6347C49.9386 36.0897 49.7175 36.6779 49.7175 37.3115C49.7175 37.4374 49.7246 37.5564 49.7422 37.6789V37.6649C49.6475 38.764 49.5913 40.0417 49.5913 41.3334C49.5913 41.7499 49.5984 42.163 49.6089 42.576V42.5165V46.5736C49.6439 46.738 49.665 46.927 49.665 47.1195C49.665 47.9666 49.2792 48.7228 48.676 49.2233L48.6726 49.2269C47.3154 49.8465 45.7304 50.2104 44.0576 50.2104C43.6998 50.2104 43.3492 50.193 43.002 50.1615L43.0477 50.1649C37.5278 50.0599 32.4079 48.4462 28.0559 45.7264L28.1786 45.7965C22.8798 42.5831 18.4893 38.4001 15.1438 33.4574L15.0491 33.3104C11.8719 29.103 8.90861 24.3494 6.3837 19.3367L6.13822 18.7976C4.66185 15.9903 3.13288 12.5389 1.81431 8.9895L1.6039 8.34192C1.06735 6.74574 0.678093 4.89051 0.516779 2.96878L0.509766 2.88127C0.509766 1.11239 1.55246 0.227952 3.63786 0.227952H12.8608C12.945 0.220951 13.0432 0.21745 13.1449 0.21745C14.0146 0.21745 14.8176 0.514985 15.4524 1.01555L15.4454 1.00855C16.1467 1.77513 16.6657 2.71675 16.9217 3.76688L16.9322 3.80888C18.6295 8.59395 20.4285 12.6124 22.4975 16.4629L22.2626 15.9834C23.9528 19.3787 25.822 22.3017 27.9541 25.0004L27.8736 24.8919C29.7439 27.1835 31.2027 28.3293 32.2501 28.3293C32.2817 28.3328 32.3201 28.3328 32.3624 28.3328C32.8812 28.3328 33.3337 28.0528 33.5792 27.6328L33.5827 27.6257C33.8422 26.9606 33.9929 26.1871 33.9929 25.3819C33.9929 25.2104 33.986 25.039 33.9719 24.871V24.8919V11.3138C33.8982 9.71409 33.5056 8.21941 32.8497 6.87875L32.8778 6.94526C32.4429 6.02114 31.9204 5.22306 31.2997 4.51247L31.3102 4.52647C30.7351 3.95239 30.3423 3.1998 30.2196 2.3597L30.2161 2.33871C30.2161 1.74363 30.4896 1.20807 30.9174 0.858027L30.921 0.854527C31.3454 0.465979 31.9134 0.231452 32.5341 0.231452H32.5622H47.1016C47.1786 0.220951 47.2662 0.21745 47.3575 0.21745C48.0413 0.21745 48.655 0.525488 49.0618 1.00855L49.0652 1.01205C49.4265 1.67012 49.6405 2.45773 49.6405 3.29082C49.6405 3.42384 49.6334 3.55335 49.6229 3.68287V3.66536V21.773C49.6158 21.857 49.6124 21.9551 49.6124 22.0531C49.6124 22.6972 49.7912 23.3027 50.0998 23.8172L50.0928 23.8032C50.3488 24.1813 50.7766 24.4263 51.2606 24.4263C51.8778 24.3844 52.4423 24.1813 52.9158 23.8593L52.9053 23.8664C53.8592 23.2117 54.6798 22.4661 55.3916 21.6226L55.4057 21.605C57.5343 19.2037 59.4981 16.5504 61.2095 13.7291L61.3462 13.484C62.5526 11.4888 63.8572 9.0315 65.0389 6.5077L65.2563 5.99314L66.8204 2.87077C67.3639 1.30958 68.8227 0.210449 70.5376 0.210449C70.6043 0.210449 70.6709 0.210449 70.7376 0.213949H70.7271H79.9534C82.4456 0.213949 83.3808 1.35859 82.7589 3.64786H82.7554Z" fill="black"/>
</svg>
