<svg width="1000" height="1000" viewBox="0 0 1000 1000" fill="none" xmlns="http://www.w3.org/2000/svg">
<circle cx="500" cy="500" r="500" fill="black"/>
<g filter="url(#filter0_d_4445_16)">
<path fill-rule="evenodd" clip-rule="evenodd" d="M365.876 784.657C389.025 794.501 416.553 801.275 448.462 804.978C450.235 805.184 451.784 803.793 451.784 802.008V740.895C451.784 739.439 450.738 738.195 449.306 737.931C439.146 736.058 429.28 733.729 419.708 730.944C391.119 722.448 368.005 709.397 350.365 691.797C333.296 674.179 323.631 651.446 321.37 623.599C321.242 622.02 319.934 620.787 318.35 620.787H253.266C251.509 620.787 250.126 622.291 250.298 624.04C253.695 658.546 264.24 689.63 281.934 717.288C300.791 745.813 328.771 768.27 365.876 784.657ZM686.131 763.718C651.564 787.861 606.574 802.204 551.161 806.747C549.422 806.89 547.932 805.513 547.932 803.768V745.149C547.932 743.59 549.129 742.292 550.682 742.148C585.531 738.923 614.257 730.636 636.861 717.288C666.667 699.08 681.569 672.377 681.569 637.174C681.569 615.933 673.967 598.938 658.759 586.193C644.161 572.84 624.391 561.915 599.453 553.419C584.004 548.024 567.574 542.996 550.164 538.335C548.849 537.983 547.932 536.793 547.932 535.431V474.688C547.932 472.723 549.789 471.288 551.689 471.79C563.4 474.882 575.064 478.118 586.679 481.498C616.485 489.389 643.552 499.706 667.883 512.451C692.822 524.589 712.591 540.371 727.19 559.792C742.397 579.212 750 604.098 750 634.443C750 690.279 728.711 733.372 686.131 763.718ZM451.784 449.627C451.784 448.271 450.875 447.085 449.567 446.728C437.948 443.561 426.778 440.281 416.058 436.89C391.727 428.393 371.959 418.075 356.752 405.936C342.153 393.191 334.854 376.804 334.854 356.776C334.854 346.458 336.679 335.533 340.328 324.002C344.586 312.47 352.19 301.546 363.139 291.228C374.696 280.303 391.119 271.503 412.409 264.827C423.049 261.49 435.286 258.987 449.117 257.318C450.635 257.135 451.784 255.853 451.784 254.324V196.291C451.784 194.524 450.259 193.14 448.502 193.317C395.965 198.616 354.737 213.349 324.818 237.515C287.105 268.468 268.248 308.525 268.248 357.686C268.248 387.425 275.547 412.006 290.146 431.427C305.353 450.243 325.122 465.719 349.453 477.857C374.392 489.995 401.46 500.009 430.657 507.9C436.458 509.435 442.248 510.96 448.027 512.473C449.927 512.97 451.784 511.536 451.784 509.571V449.627ZM551.294 194.491C549.508 194.257 547.932 195.653 547.932 197.453V256.103C547.932 257.574 549.001 258.826 550.45 259.077C578.92 264.005 601.641 273.205 618.613 286.676C644.597 306.711 659.688 331.322 663.885 360.51C664.101 362.013 665.376 363.148 666.894 363.148H731.303C733.031 363.148 734.404 361.692 734.268 359.97C731.973 330.829 722.314 303.667 705.292 278.482C688.26 252.385 662.409 231.446 627.737 215.666C605.971 205.379 580.49 198.32 551.294 194.491Z" fill="white"/>
</g>
<defs>
<filter id="filter0_d_4445_16" x="200.283" y="143.302" width="599.717" height="713.456" filterUnits="userSpaceOnUse" color-interpolation-filters="sRGB">
<feFlood flood-opacity="0" result="BackgroundImageFix"/>
<feColorMatrix in="SourceAlpha" type="matrix" values="0 0 0 0 0 0 0 0 0 0 0 0 0 0 0 0 0 0 127 0" result="hardAlpha"/>
<feOffset/>
<feGaussianBlur stdDeviation="25"/>
<feComposite in2="hardAlpha" operator="out"/>
<feColorMatrix type="matrix" values="0 0 0 0 1 0 0 0 0 1 0 0 0 0 1 0 0 0 1 0"/>
<feBlend mode="normal" in2="BackgroundImageFix" result="effect1_dropShadow_4445_16"/>
<feBlend mode="normal" in="SourceGraphic" in2="effect1_dropShadow_4445_16" result="shape"/>
</filter>
</defs>
</svg>
