<svg width="27" height="25" viewBox="0 0 27 25" fill="none" xmlns="http://www.w3.org/2000/svg">
<path d="M1.91853 4.85821L1.91836 4.85854C0.949574 6.73005 0.77464 9.36405 2.44741 12.6249L2.44745 12.625C4.05177 15.7509 7.35413 19.4317 13.2198 23.4056L13.5002 23.5956L13.7807 23.4056C19.6465 19.4316 22.947 15.7508 24.5529 12.6252L24.5531 12.6248C26.2256 9.36267 26.0528 6.73015 25.0819 4.8582C23.0609 0.961172 17.4555 -0.149412 14.354 2.99919L14.3538 2.99943L13.5 3.86733L12.6465 3.00086C12.6465 3.00086 12.6465 3.00086 12.6465 3.00085C9.54517 -0.147575 3.93966 0.960955 1.91853 4.85821ZM12.8669 2.27507L12.8677 2.27574C12.9624 2.36156 13.0546 2.44954 13.1428 2.53971L13.5019 2.9068L13.8593 2.53805C13.9454 2.4492 14.035 2.3637 14.1279 2.28177L14.128 2.28181L14.1337 2.27658C17.6992 -0.967348 23.7089 0.461446 25.7778 4.72241C26.7973 6.82223 26.878 9.66631 25.0985 13.0533C23.3381 16.4038 19.7595 20.2734 13.5002 24.402C7.24097 20.2738 3.66225 16.4046 1.90174 13.0544C0.122064 9.66774 0.202646 6.82387 1.22209 4.72406C3.29078 0.463077 9.30058 -0.966584 12.8669 2.27507Z" fill="#929292" stroke="black"/>
</svg>
