<svg width="37" height="37" viewBox="0 0 37 37" fill="none" xmlns="http://www.w3.org/2000/svg">
<path d="M6.9375 5.78125C6.9375 4.24797 7.54659 2.77748 8.63079 1.69329C9.71498 0.609094 11.1855 0 12.7188 0C14.252 0 15.7225 0.609094 16.8067 1.69329C17.8909 2.77748 18.5 4.24797 18.5 5.78125C18.5 4.24797 19.1091 2.77748 20.1933 1.69329C21.2775 0.609094 22.748 0 24.2812 0C25.8145 0 27.285 0.609094 28.3692 1.69329C29.4534 2.77748 30.0625 4.24797 30.0625 5.78125V5.79513C30.0625 5.957 30.0625 6.4195 29.9746 6.9375H34.6875C35.3008 6.9375 35.889 7.18114 36.3227 7.61482C36.7564 8.04849 37 8.63669 37 9.25V13.875C37 14.4883 36.7564 15.0765 36.3227 15.5102C35.889 15.9439 35.3008 16.1875 34.6875 16.1875V33.5312C34.6875 34.4512 34.322 35.3335 33.6715 35.984C33.021 36.6345 32.1387 37 31.2188 37H5.78125C4.86128 37 3.97899 36.6345 3.32847 35.984C2.67796 35.3335 2.3125 34.4512 2.3125 33.5312V16.1875C1.69919 16.1875 1.11099 15.9439 0.677316 15.5102C0.243638 15.0765 0 14.4883 0 13.875V9.25C0 8.63669 0.243638 8.04849 0.677316 7.61482C1.11099 7.18114 1.69919 6.9375 2.3125 6.9375H7.02538C6.9643 6.55982 6.9349 6.1777 6.9375 5.79513V5.78125ZM9.40725 6.9375H16.1875V5.78125C16.1875 5.32573 16.0978 4.87466 15.9235 4.45382C15.7491 4.03297 15.4936 3.65058 15.1715 3.32847C14.8494 3.00637 14.467 2.75086 14.0462 2.57654C13.6253 2.40222 13.1743 2.3125 12.7188 2.3125C12.2632 2.3125 11.8122 2.40222 11.3913 2.57654C10.9705 2.75086 10.5881 3.00637 10.266 3.32847C9.94387 3.65058 9.68836 4.03297 9.51404 4.45382C9.33972 4.87466 9.25 5.32573 9.25 5.78125C9.25 5.97781 9.25463 6.41488 9.35406 6.77563C9.36796 6.83077 9.38573 6.88486 9.40725 6.9375ZM20.8125 6.9375H27.5928C27.614 6.88477 27.6318 6.83069 27.6459 6.77563C27.7454 6.41488 27.75 5.97781 27.75 5.78125C27.75 4.86128 27.3845 3.97899 26.734 3.32847C26.0835 2.67796 25.2012 2.3125 24.2812 2.3125C23.3613 2.3125 22.479 2.67796 21.8285 3.32847C21.178 3.97899 20.8125 4.86128 20.8125 5.78125V6.9375ZM2.3125 9.25V13.875H16.1875V9.25H2.3125ZM20.8125 9.25V13.875H34.6875V9.25H20.8125ZM32.375 16.1875H20.8125V34.6875H31.2188C31.5254 34.6875 31.8195 34.5657 32.0363 34.3488C32.2532 34.132 32.375 33.8379 32.375 33.5312V16.1875ZM16.1875 34.6875V16.1875H4.625V33.5312C4.625 33.8379 4.74682 34.132 4.96366 34.3488C5.1805 34.5657 5.47459 34.6875 5.78125 34.6875H16.1875Z" fill="black"/>
</svg>
