<svg width="149" height="45" viewBox="0 0 149 45" fill="none" xmlns="http://www.w3.org/2000/svg">
<g clip-path="url(#clip0_3661_10804)">
<path fill-rule="evenodd" clip-rule="evenodd" d="M134.129 0.09375H148.757C148.891 0.09375 149 0.20334 149 0.339101V1.09887C149 1.23463 148.891 1.34422 148.757 1.34422H142.335C142.184 1.34422 142.061 1.47055 142.061 1.6264V7.33632C142.061 7.49217 141.938 7.6185 141.787 7.6185H141.098C140.948 7.6185 140.825 7.49217 140.825 7.33632V1.6264C140.825 1.47055 140.702 1.34422 140.551 1.34422H134.128C133.994 1.34422 133.887 1.23382 133.887 1.09887V0.339101V0.338283C133.887 0.20334 133.995 0.09375 134.129 0.09375ZM141.098 11.3809C140.948 11.3809 140.825 11.5072 140.825 11.6631V18.6595C140.825 18.7952 140.933 18.9056 141.067 18.9056H141.818C141.953 18.9056 142.061 18.7961 142.061 18.6603V11.6631C142.061 11.5072 141.938 11.3809 141.787 11.3809H141.098Z" fill="black"/>
<path fill-rule="evenodd" clip-rule="evenodd" d="M125.606 0.09375H124.865C124.732 0.09375 124.625 0.20192 124.625 0.335922V7.33632C124.625 7.49217 124.747 7.6185 124.898 7.6185H125.572C125.724 7.6185 125.846 7.49217 125.846 7.33632V0.335922C125.846 0.20192 125.739 0.09375 125.607 0.09375H125.606ZM124.625 11.6502C124.625 11.5015 124.741 11.3809 124.886 11.3809H125.585C125.729 11.3809 125.846 11.5015 125.846 11.6502V11.6618C125.846 11.6643 125.846 11.6667 125.846 11.6692C125.847 11.6932 125.851 11.83 125.851 11.9021C125.851 13.8324 125.082 15.5824 123.839 16.855C122.48 18.1277 120.661 18.9056 118.662 18.9056C118.508 18.9056 118.356 18.9008 118.225 18.8929C118.083 18.9011 117.941 18.9048 117.796 18.9048C115.798 18.9048 113.979 18.1275 112.623 16.8593C111.369 15.5887 110.594 13.8345 110.594 11.898C110.594 11.8205 110.595 11.743 110.596 11.6768V11.6631C110.596 11.5072 110.72 11.3809 110.87 11.3809H111.567C111.705 11.3809 111.817 11.4964 111.817 11.6389C111.814 11.7188 111.813 11.7995 111.813 11.8802C111.813 13.4883 112.456 14.9437 113.496 15.9987L113.49 15.9931C114.641 17.0361 116.162 17.6705 117.829 17.6705C117.965 17.6705 118.101 17.6658 118.218 17.6586C118.349 17.6668 118.48 17.6705 118.613 17.6705C120.281 17.6705 121.803 17.0369 122.948 15.9987C123.987 14.9437 124.629 13.4883 124.629 11.8811C124.629 11.7995 124.627 11.7188 124.625 11.6502ZM118.218 17.6586L118.203 17.6576L118.221 17.6584L118.218 17.6586ZM110.596 7.33632C110.596 7.49217 110.72 7.6185 110.87 7.6185H111.543C111.694 7.6185 111.817 7.49217 111.817 7.33632V0.335922V0.335114C111.817 0.20192 111.71 0.09375 111.578 0.09375H110.837C110.704 0.09375 110.596 0.20192 110.596 0.335114V0.335922V7.33632ZM123.839 16.855L123.839 16.8545L123.835 16.8593L123.839 16.855Z" fill="black"/>
<path fill-rule="evenodd" clip-rule="evenodd" d="M99.8618 2.82071C98.223 1.1373 95.9442 0.09375 93.4243 0.09375C93.3668 0.09375 93.3084 0.0945015 93.2499 0.0952747C93.2143 0.0945476 93.1732 0.0945476 93.1321 0.0945476C88.7679 0.0945476 85.113 3.16343 84.1641 7.28273C84.1242 7.45574 84.254 7.6185 84.4266 7.6185H85.1374C85.2649 7.6185 85.3751 7.52751 85.4073 7.40043C86.2951 3.90041 89.4366 1.31363 93.176 1.31363C93.2034 1.31363 93.2308 1.31363 93.2581 1.31442H93.3275C97.0626 1.31442 100.2 3.90166 101.081 7.39991C101.113 7.52725 101.223 7.6185 101.351 7.6185H102.07C102.242 7.6185 102.372 7.45677 102.333 7.28408C101.943 5.5598 101.069 4.02147 99.8636 2.82231L99.8618 2.82071ZM102.32 11.7166C102.361 11.5436 102.231 11.3809 102.058 11.3809H101.351C101.223 11.3809 101.113 11.4721 101.081 11.5995C100.201 15.0974 97.0635 17.6849 93.3284 17.6849H93.2536H93.249H93.1732C89.4344 17.6849 86.2936 15.0983 85.4062 11.599C85.374 11.4719 85.2638 11.3809 85.1364 11.3809H84.426C84.2534 11.3809 84.1237 11.5436 84.1635 11.7166C85.1113 15.836 88.766 18.9056 93.1294 18.9056C93.1723 18.9056 93.2171 18.9056 93.26 18.9049C93.2727 18.9049 93.2864 18.9051 93.3001 18.9052C93.3184 18.9054 93.3367 18.9056 93.3549 18.9056C97.719 18.9056 101.374 15.8362 102.32 11.7166Z" fill="black"/>
<path fill-rule="evenodd" clip-rule="evenodd" d="M44.9199 17.3729C44.9199 17.5288 45.0425 17.6551 45.1938 17.6551H55.5254C55.6597 17.6551 55.7689 17.7647 55.7689 17.9005V18.6595C55.7689 18.7952 55.6597 18.9056 55.5254 18.9056H43.9263C43.792 18.9056 43.6836 18.7952 43.6836 18.6595V11.6631C43.6836 11.5072 43.8062 11.3809 43.9575 11.3809H44.646C44.7973 11.3809 44.9199 11.5072 44.9199 11.6631V17.3729ZM43.6836 7.33632C43.6836 7.49217 43.8062 7.6185 43.9575 7.6185H44.646C44.7973 7.6185 44.9199 7.49217 44.9199 7.33632V0.339111V0.338294C44.9199 0.203344 44.8114 0.09375 44.6779 0.09375H43.9263C43.7928 0.09375 43.6836 0.203344 43.6836 0.338294V0.339111V7.33632Z" fill="black"/>
<path fill-rule="evenodd" clip-rule="evenodd" d="M65.041 17.3729C65.041 17.5288 65.1636 17.6551 65.3149 17.6551H75.6465C75.7808 17.6551 75.89 17.7647 75.89 17.9005V18.6595C75.89 18.7952 75.7808 18.9056 75.6465 18.9056H64.0474C63.9131 18.9056 63.8047 18.7952 63.8047 18.6595V11.6631C63.8047 11.5072 63.9273 11.3809 64.0786 11.3809H64.7671C64.9184 11.3809 65.041 11.5072 65.041 11.6631V17.3729ZM63.8047 7.33632C63.8047 7.49217 63.9273 7.6185 64.0786 7.6185H64.7671C64.9184 7.6185 65.041 7.49217 65.041 7.33632V0.339111V0.338294C65.041 0.203344 64.9325 0.09375 64.799 0.09375H64.0474C63.9139 0.09375 63.8047 0.203344 63.8047 0.338294V0.339111V7.33632Z" fill="black"/>
<path d="M21.9064 0.170759C21.9552 0.121401 22.0209 0.09375 22.0893 0.09375H35.3893C35.4577 0.09375 35.5233 0.121401 35.5722 0.170759C35.6222 0.221358 35.6504 0.290569 35.6504 0.362815V0.995545C35.6504 1.06779 35.6222 1.13701 35.5722 1.1876C35.5233 1.23697 35.4577 1.26461 35.3893 1.26461H22.0893C22.0209 1.26461 21.9552 1.23697 21.9064 1.1876C21.8563 1.13701 21.8281 1.06779 21.8281 0.995545V0.362815C21.8281 0.290569 21.8563 0.221358 21.9064 0.170759Z" fill="black" stroke="black" stroke-width="0.183168"/>
<path d="M21.9064 17.8114C21.9552 17.762 22.0209 17.7344 22.0893 17.7344H35.3893C35.4577 17.7344 35.5233 17.762 35.5722 17.8114C35.6222 17.862 35.6504 17.9311 35.6504 18.0034V18.6361C35.6504 18.7085 35.6222 18.7776 35.5722 18.8282C35.5233 18.8776 35.4577 18.9052 35.3893 18.9052H22.0893C22.0209 18.9052 21.9552 18.8776 21.9064 18.8282C21.8563 18.7776 21.8281 18.7085 21.8281 18.6361V18.0034C21.8281 17.9311 21.8563 17.862 21.9064 17.8114Z" fill="black" stroke="black" stroke-width="0.183168"/>
<path d="M21.9064 8.91294C21.9552 8.86358 22.0209 8.83594 22.0893 8.83594H35.3893C35.4577 8.83594 35.5233 8.86358 35.5722 8.91294C35.6222 8.96354 35.6504 9.03276 35.6504 9.105V9.73776C35.6504 9.81 35.6222 9.87923 35.5722 9.92983C35.5233 9.97912 35.4577 10.0068 35.3893 10.0068H22.0893C22.0209 10.0068 21.9552 9.97912 21.9064 9.92983C21.8563 9.87923 21.8281 9.81 21.8281 9.73776V9.105C21.8281 9.03276 21.8563 8.96354 21.9064 8.91294Z" fill="black" stroke="black" stroke-width="0.183168"/>
<path fill-rule="evenodd" clip-rule="evenodd" d="M12.4011 10.9816C12.7937 11.3347 13.1209 11.7603 13.3731 12.2615L13.3629 12.24C13.6364 12.769 13.7917 13.3715 13.7917 14.0106V14.06V14.0602C13.7925 14.1024 13.7933 14.1446 13.7933 14.1867C13.7933 15.6147 13.0783 16.8738 11.9762 17.6284L12.0117 17.6077C11.1298 18.1677 10.138 18.5672 9.07666 18.7657C8.91258 18.7964 8.76471 18.6641 8.76471 18.4924V17.8413C8.76471 17.7039 8.86085 17.5871 8.99147 17.5595C9.77447 17.3943 10.5054 17.1028 11.154 16.712L11.1666 16.7049C12.0062 16.1741 12.5643 15.2314 12.5643 14.1573C12.5643 14.1254 12.5635 14.0935 12.5627 14.0664V14.0186C12.5627 13.6361 12.4941 13.2703 12.3759 12.9531L12.3711 12.9388C12.2387 12.6089 12.0282 12.3205 11.7602 12.0926L11.7681 12.0997C11.4977 11.8567 11.2107 11.632 10.8796 11.4112L10.9048 11.4255C10.5226 11.1976 10.1103 11.016 9.63725 10.8781C9.39083 10.799 9.1656 10.728 8.96178 10.6654C8.84509 10.6297 8.76471 10.5193 8.76471 10.3939V9.62126C8.76471 9.4875 8.88751 9.38991 9.01289 9.42458L9.12089 9.45167C9.72873 9.63095 10.3207 9.84691 10.7961 10.0589L10.8371 10.0732C11.4086 10.2972 11.9375 10.6072 12.3971 10.9777L12.4011 10.9816ZM2.93098 16.6969C3.54034 17.0429 4.19998 17.309 4.89607 17.4814C5.02196 17.5126 5.11275 17.6272 5.11275 17.7606V18.4225C5.11275 18.598 4.9588 18.7312 4.79223 18.6944C3.86052 18.4887 2.98996 18.1375 2.21519 17.6714L2.19548 17.6595C1.0059 16.9137 0.170278 15.6443 0.00236517 14.1477C0.00236517 14.1479 0.00216596 14.1479 0.00214675 14.1477C0.000715702 14.1371 0 14.1273 0 14.1166C0 14.0042 0.0764673 13.9102 0.181314 13.8847L0.912099 13.7056L0.912078 13.7054L0.912055 13.7052C0.930748 13.7005 0.950195 13.6983 0.969641 13.6983C1.09025 13.6983 1.18958 13.7899 1.20377 13.9094L1.20455 13.923C1.30625 15.1135 1.98342 16.1367 2.9704 16.7176L2.93098 16.6969ZM4.91948 8.33392C5.03408 8.37181 5.11275 8.48101 5.11275 8.605V9.3741C5.11275 9.51582 4.98202 9.619 4.84976 9.57996L4.74807 9.55212C4.18442 9.37518 3.63575 9.16401 3.19507 8.95761L3.15644 8.94327C2.60541 8.71297 2.09694 8.399 1.65626 8.02448L1.65311 8.02129C1.25422 7.65313 0.922339 7.21165 0.667709 6.6921L0.677957 6.71521C0.40441 6.16615 0.250687 5.54618 0.250687 4.88956V4.84254C0.24911 4.79632 0.248321 4.74931 0.248321 4.70309C0.248321 3.32529 0.919975 2.10606 1.96213 1.35301L1.93296 1.37134C2.78657 0.802471 3.75864 0.401728 4.8038 0.214988C4.9669 0.185844 5.11275 0.317786 5.11275 0.488336V1.16434C5.11275 1.30272 5.01519 1.42005 4.88345 1.44703C4.11859 1.60369 3.40707 1.89469 2.78199 2.28935L2.77175 2.29572C1.99288 2.82405 1.48047 3.72133 1.48047 4.74054C1.48047 4.77401 1.48126 4.80748 1.48205 4.83616V4.87681C1.48205 5.34218 1.5932 5.78206 1.78397 6.1534L1.79265 6.17253C1.9779 6.5383 2.22623 6.86661 2.52579 7.14392L2.51869 7.13834C2.87659 7.44036 3.28021 7.68819 3.74927 7.88024L3.66492 7.84597C4.05622 8.02273 4.45717 8.18106 4.91948 8.33392ZM9.09624 0.391012C8.92693 0.344891 8.76471 0.479144 8.76471 0.659577V1.34555C8.76471 1.474 8.84908 1.58571 8.96878 1.62167C9.55864 1.79891 10.1171 2.04996 10.6337 2.36425L10.6014 2.34592C11.4993 2.9149 12.0874 3.9102 12.0874 5.04415C12.0874 5.09595 12.0858 5.14774 12.0834 5.19954V5.34537C12.0834 5.47765 12.1891 5.58443 12.3199 5.58443H13.0523C13.1831 5.58443 13.2896 5.47765 13.2896 5.34537V5.16687C13.2911 5.12066 13.292 5.06726 13.292 5.01307C13.292 3.51734 12.5398 2.1985 11.3968 1.42314L11.381 1.41358C10.6934 0.965375 9.92283 0.616162 9.09624 0.391012Z" fill="black"/>
</g>
<path d="M7.76735 42V28H12.7873C13.9607 28 14.9673 28.1867 15.8073 28.56C16.6473 28.9333 17.294 29.4733 17.7473 30.18C18.2007 30.8733 18.4273 31.72 18.4273 32.72C18.4273 33.6933 18.2007 34.5333 17.7473 35.24C17.294 35.9467 16.6473 36.4867 15.8073 36.86C14.9673 37.2333 13.9607 37.42 12.7873 37.42H8.32735L8.78735 36.94V42H7.76735ZM8.78735 37L8.32735 36.5H12.7873C14.294 36.5 15.434 36.1733 16.2073 35.52C16.994 34.8533 17.3873 33.92 17.3873 32.72C17.3873 31.5067 16.994 30.5733 16.2073 29.92C15.434 29.2533 14.294 28.92 12.7873 28.92H8.32735L8.78735 28.42V37ZM23.4689 42V28H28.4889C29.6622 28 30.6689 28.1867 31.5089 28.56C32.3489 28.9333 32.9956 29.4733 33.4489 30.18C33.9022 30.8733 34.1289 31.72 34.1289 32.72C34.1289 33.6933 33.9022 34.5333 33.4489 35.24C32.9956 35.9333 32.3489 36.4733 31.5089 36.86C30.6689 37.2333 29.6622 37.42 28.4889 37.42H24.0289L24.4889 36.94V42H23.4689ZM33.1889 42L29.5489 36.92H30.7089L34.3489 42H33.1889ZM24.4889 37L24.0289 36.52H28.4889C29.9956 36.52 31.1356 36.1867 31.9089 35.52C32.6956 34.8533 33.0889 33.92 33.0889 32.72C33.0889 31.5067 32.6956 30.5733 31.9089 29.92C31.1356 29.2533 29.9956 28.92 28.4889 28.92H24.0289L24.4889 28.42V37ZM39.4634 42V28H40.4834V42H39.4634ZM50.7061 42L44.4661 28H45.5861L51.5461 41.38H50.9261L56.9061 28H57.9661L51.7261 42H50.7061ZM61.8236 42V28H62.8436V42H61.8236ZM69.322 42V28H70.342V41.08H78.402V42H69.322ZM83.5213 34.44H91.1013V35.34H83.5213V34.44ZM83.6413 41.08H92.2813V42H82.6213V28H91.9813V28.92H83.6413V41.08ZM103.522 42.1C102.468 42.1 101.495 41.9267 100.602 41.58C99.7082 41.22 98.9282 40.72 98.2616 40.08C97.6082 39.44 97.1016 38.6933 96.7416 37.84C96.3816 36.9733 96.2016 36.0267 96.2016 35C96.2016 33.9733 96.3816 33.0333 96.7416 32.18C97.1016 31.3133 97.6149 30.56 98.2816 29.92C98.9482 29.28 99.7216 28.7867 100.602 28.44C101.495 28.08 102.475 27.9 103.542 27.9C104.555 27.9 105.495 28.06 106.362 28.38C107.228 28.7 107.968 29.18 108.582 29.82L107.942 30.5C107.328 29.9 106.655 29.4733 105.922 29.22C105.202 28.9667 104.415 28.84 103.562 28.84C102.655 28.84 101.815 28.9933 101.042 29.3C100.268 29.6067 99.5949 30.04 99.0216 30.6C98.4482 31.16 98.0016 31.8133 97.6816 32.56C97.3749 33.3067 97.2216 34.12 97.2216 35C97.2216 35.88 97.3749 36.6933 97.6816 37.44C98.0016 38.1867 98.4482 38.84 99.0216 39.4C99.5949 39.96 100.268 40.3933 101.042 40.7C101.815 41.0067 102.655 41.16 103.562 41.16C104.388 41.16 105.168 41.0333 105.902 40.78C106.648 40.5267 107.328 40.1067 107.942 39.52L108.522 40.3C107.895 40.9 107.142 41.3533 106.262 41.66C105.395 41.9533 104.482 42.1 103.522 42.1ZM107.542 40.2V35.06H108.522V40.3L107.542 40.2ZM115.51 34.44H123.09V35.34H115.51V34.44ZM115.63 41.08H124.27V42H114.61V28H123.97V28.92H115.63V41.08ZM129.589 42V28H135.129C136.609 28 137.909 28.3 139.029 28.9C140.149 29.5 141.016 30.3267 141.629 31.38C142.256 32.4333 142.569 33.64 142.569 35C142.569 36.36 142.256 37.5667 141.629 38.62C141.016 39.6733 140.149 40.5 139.029 41.1C137.909 41.7 136.609 42 135.129 42H129.589ZM130.609 41.08H135.049C136.369 41.08 137.516 40.82 138.489 40.3C139.463 39.78 140.216 39.0667 140.749 38.16C141.283 37.24 141.549 36.1867 141.549 35C141.549 33.8133 141.283 32.7667 140.749 31.86C140.216 30.94 139.463 30.22 138.489 29.7C137.516 29.18 136.369 28.92 135.049 28.92H130.609V41.08Z" fill="black"/>
<defs>
<clipPath id="clip0_3661_10804">
<rect width="149" height="19" fill="white"/>
</clipPath>
</defs>
</svg>
