<svg width="32" height="32" viewBox="0 0 32 32" fill="none" xmlns="http://www.w3.org/2000/svg">
<path fill-rule="evenodd" clip-rule="evenodd" d="M3.29379 13.2938C3.38668 13.2007 3.49703 13.1268 3.61852 13.0764C3.74001 13.0259 3.87025 13 4.00179 13C4.13332 13 4.26356 13.0259 4.38506 13.0764C4.50655 13.1268 4.6169 13.2007 4.70979 13.2938L16.0018 24.5878L27.2938 13.2938C27.4816 13.106 27.7362 13.0005 28.0018 13.0005C28.2673 13.0005 28.522 13.106 28.7098 13.2938C28.8976 13.4816 29.003 13.7362 29.003 14.0018C29.003 14.2673 28.8976 14.522 28.7098 14.7098L16.7098 26.7098C16.6169 26.8029 16.5065 26.8768 16.3851 26.9272C16.2636 26.9776 16.1333 27.0036 16.0018 27.0036C15.8703 27.0036 15.74 26.9776 15.6185 26.9272C15.497 26.8768 15.3867 26.8029 15.2938 26.7098L3.29379 14.7098C3.20066 14.6169 3.12678 14.5065 3.07636 14.3851C3.02595 14.2636 3 14.1333 3 14.0018C3 13.8703 3.02595 13.74 3.07636 13.6185C3.12678 13.497 3.20066 13.3867 3.29379 13.2938Z" fill="black"/>
<path fill-rule="evenodd" clip-rule="evenodd" d="M3.29379 5.29379C3.38668 5.20066 3.49703 5.12678 3.61852 5.07636C3.74001 5.02595 3.87025 5 4.00179 5C4.13332 5 4.26356 5.02595 4.38506 5.07636C4.50655 5.12678 4.6169 5.20066 4.70979 5.29379L16.0018 16.5878L27.2938 5.29379C27.3868 5.20081 27.4971 5.12706 27.6186 5.07674C27.7401 5.02642 27.8703 5.00052 28.0018 5.00052C28.1333 5.00052 28.2635 5.02642 28.385 5.07674C28.5064 5.12706 28.6168 5.20081 28.7098 5.29379C28.8028 5.38676 28.8765 5.49714 28.9268 5.61862C28.9772 5.7401 29.003 5.8703 29.003 6.00179C29.003 6.13328 28.9772 6.26348 28.9268 6.38495C28.8765 6.50643 28.8028 6.61681 28.7098 6.70979L16.7098 18.7098C16.6169 18.8029 16.5065 18.8768 16.3851 18.9272C16.2636 18.9776 16.1333 19.0036 16.0018 19.0036C15.8703 19.0036 15.74 18.9776 15.6185 18.9272C15.497 18.8768 15.3867 18.8029 15.2938 18.7098L3.29379 6.70979C3.20066 6.6169 3.12678 6.50655 3.07636 6.38506C3.02595 6.26356 3 6.13332 3 6.00179C3 5.87025 3.02595 5.74001 3.07636 5.61852C3.12678 5.49703 3.20066 5.38668 3.29379 5.29379Z" fill="black"/>
</svg>
