<svg width="32" height="32" viewBox="0 0 32 32" fill="none" xmlns="http://www.w3.org/2000/svg">
<g clip-path="url(#clip0_2378_5409)">
<path d="M16 30C12.287 30 8.72601 28.525 6.1005 25.8995C3.475 23.274 2 19.713 2 16C2 12.287 3.475 8.72601 6.1005 6.1005C8.72601 3.475 12.287 2 16 2C19.713 2 23.274 3.475 25.8995 6.1005C28.525 8.72601 30 12.287 30 16C30 19.713 28.525 23.274 25.8995 25.8995C23.274 28.525 19.713 30 16 30ZM16 32C20.2435 32 24.3131 30.3143 27.3137 27.3137C30.3143 24.3131 32 20.2435 32 16C32 11.7565 30.3143 7.68687 27.3137 4.68629C24.3131 1.68571 20.2435 0 16 0C11.7565 0 7.68687 1.68571 4.68629 4.68629C1.68571 7.68687 0 11.7565 0 16C0 20.2435 1.68571 24.3131 4.68629 27.3137C7.68687 30.3143 11.7565 32 16 32Z" fill="black"/>
<path d="M24.6603 19C24.8358 19.304 24.9282 19.6489 24.9282 20C24.9282 20.3511 24.8358 20.696 24.6603 21C23.7824 22.5204 22.5198 23.783 20.9993 24.6607C19.4787 25.5384 17.7539 26.0003 15.9983 26C14.2429 26 12.5185 25.5379 10.9984 24.6602C9.47826 23.7825 8.21592 22.5202 7.33826 21C7.16281 20.6961 7.0704 20.3514 7.07031 20.0005C7.07022 19.6496 7.16246 19.3049 7.33775 19.0009C7.51304 18.6969 7.76523 18.4444 8.06898 18.2687C8.37273 18.093 8.71736 18.0004 9.06826 18H22.9283C23.2793 18 23.6242 18.0924 23.9282 18.268C24.2323 18.4435 24.4847 18.696 24.6603 19ZM13.9983 13C13.9983 14.656 13.1023 13 11.9983 13C10.8943 13 9.99826 14.656 9.99826 13C9.99826 11.344 10.8943 10 11.9983 10C13.1023 10 13.9983 11.344 13.9983 13ZM21.9983 13C21.9983 14.656 21.1023 13 19.9983 13C18.8943 13 17.9983 14.656 17.9983 13C17.9983 11.344 18.8943 10 19.9983 10C21.1023 10 21.9983 11.344 21.9983 13Z" fill="black"/>
</g>
<defs>
<clipPath id="clip0_2378_5409">
<rect width="32" height="32" fill="white"/>
</clipPath>
</defs>
</svg>
