<svg width="32" height="32" viewBox="0 0 32 32" fill="none" xmlns="http://www.w3.org/2000/svg">
<path d="M6 5C6 3.67392 6.52678 2.40215 7.46447 1.46447C8.40215 0.526784 9.67392 0 11 0C12.3261 0 13.5979 0.526784 14.5355 1.46447C15.4732 2.40215 16 3.67392 16 5C16 3.67392 16.5268 2.40215 17.4645 1.46447C18.4021 0.526784 19.6739 0 21 0C22.3261 0 23.5979 0.526784 24.5355 1.46447C25.4732 2.40215 26 3.67392 26 5V5.012C26 5.152 26 5.552 25.924 6H30C30.5304 6 31.0391 6.21071 31.4142 6.58579C31.7893 6.96086 32 7.46957 32 8V12C32 12.5304 31.7893 13.0391 31.4142 13.4142C31.0391 13.7893 30.5304 14 30 14V29C30 29.7956 29.6839 30.5587 29.1213 31.1213C28.5587 31.6839 27.7956 32 27 32H5C4.20435 32 3.44129 31.6839 2.87868 31.1213C2.31607 30.5587 2 29.7956 2 29V14C1.46957 14 0.960859 13.7893 0.585786 13.4142C0.210714 13.0391 0 12.5304 0 12V8C0 7.46957 0.210714 6.96086 0.585786 6.58579C0.960859 6.21071 1.46957 6 2 6H6.076C6.02317 5.67336 5.99775 5.34288 6 5.012V5ZM8.136 6H14V5C14 4.60603 13.9224 4.21593 13.7716 3.85195C13.6209 3.48797 13.3999 3.15726 13.1213 2.87868C12.8427 2.6001 12.512 2.37913 12.1481 2.22836C11.7841 2.0776 11.394 2 11 2C10.606 2 10.2159 2.0776 9.85195 2.22836C9.48797 2.37913 9.15726 2.6001 8.87868 2.87868C8.6001 3.15726 8.37913 3.48797 8.22836 3.85195C8.0776 4.21593 8 4.60603 8 5C8 5.17 8.004 5.548 8.09 5.86C8.10202 5.90769 8.11739 5.95447 8.136 6ZM18 6H23.864C23.8824 5.95439 23.8978 5.90763 23.91 5.86C23.996 5.548 24 5.17 24 5C24 4.20435 23.6839 3.44129 23.1213 2.87868C22.5587 2.31607 21.7956 2 21 2C20.2044 2 19.4413 2.31607 18.8787 2.87868C18.3161 3.44129 18 4.20435 18 5V6ZM2 8V12H14V8H2ZM18 8V12H30V8H18ZM28 14H18V30H27C27.2652 30 27.5196 29.8946 27.7071 29.7071C27.8946 29.5196 28 29.2652 28 29V14ZM14 30V14H4V29C4 29.2652 4.10536 29.5196 4.29289 29.7071C4.48043 29.8946 4.73478 30 5 30H14Z" fill="black"/>
</svg>
