<svg width="32" height="32" viewBox="0 0 32 32" fill="none" xmlns="http://www.w3.org/2000/svg">
<path d="M27.1744 4.61073L21.3344 2.66406C21.3344 4.07855 20.7725 5.4351 19.7723 6.4353C18.7721 7.43549 17.4155 7.9974 16.001 7.9974C14.5865 7.9974 13.23 7.43549 12.2298 6.4353C11.2296 5.4351 10.6677 4.07855 10.6677 2.66406L4.8277 4.61073C4.22421 4.81179 3.71247 5.22195 3.38484 5.76719C3.05721 6.31242 2.93527 6.95682 3.04103 7.58406L3.81436 12.2107C3.86513 12.5239 4.02594 12.8088 4.26788 13.0141C4.50983 13.2194 4.81706 13.3316 5.13436 13.3307H8.00103V26.6641C8.00103 28.1307 9.20103 29.3307 10.6677 29.3307H21.3344C22.0416 29.3307 22.7199 29.0498 23.22 28.5497C23.7201 28.0496 24.001 27.3713 24.001 26.6641V13.3307H26.8677C27.185 13.3316 27.4922 13.2194 27.7342 13.0141C27.9761 12.8088 28.1369 12.5239 28.1877 12.2107L28.961 7.58406C29.0668 6.95682 28.9449 6.31242 28.6172 5.76719C28.2896 5.22195 27.7779 4.81179 27.1744 4.61073Z" stroke="black" stroke-width="2" stroke-linecap="round" stroke-linejoin="round"/>
</svg>
