<svg width="32" height="32" viewBox="0 0 32 32" fill="none" xmlns="http://www.w3.org/2000/svg">
<g clip-path="url(#clip0_2422_9211)">
<path d="M15.9995 15.9639C19.3275 12.6179 27.6495 18.4719 15.9995 25.9999C4.34948 18.4719 12.6715 12.6199 15.9995 15.9639Z" fill="black"/>
<path d="M7.5 0C7.18951 0 6.88328 0.0722902 6.60557 0.211146C6.32786 0.350001 6.08629 0.551608 5.9 0.8L0.2 8.4C0.0701779 8.5731 0 8.78363 0 9L0 30C0 30.5304 0.210714 31.0391 0.585786 31.4142C0.960859 31.7893 1.46957 32 2 32H30C30.5304 32 31.0391 31.7893 31.4142 31.4142C31.7893 31.0391 32 30.5304 32 30V9C32 8.78363 31.9298 8.5731 31.8 8.4L26.1 0.8C25.9137 0.551608 25.6721 0.350001 25.3944 0.211146C25.1167 0.0722902 24.8105 0 24.5 0L7.5 0ZM7.5 2H15V8H3L7.5 2ZM17 8V2H24.5L29 8H17ZM30 10V30H2V10H30Z" fill="black"/>
</g>
<defs>
<clipPath id="clip0_2422_9211">
<rect width="32" height="32" fill="white"/>
</clipPath>
</defs>
</svg>
