<svg width="32" height="32" viewBox="0 0 32 32" fill="none" xmlns="http://www.w3.org/2000/svg">
<path d="M11.7771 8.24404C11.7771 9.18108 11.4049 10.0797 10.7423 10.7423C10.0797 11.4049 9.18108 11.7771 8.24404 11.7771C7.307 11.7771 6.40835 11.4049 5.74576 10.7423C5.08317 10.0797 4.71094 9.18108 4.71094 8.24404C4.71094 7.307 5.08317 6.40835 5.74576 5.74576C6.40835 5.08317 7.307 4.71094 8.24404 4.71094C9.18108 4.71094 10.0797 5.08317 10.7423 5.74576C11.4049 6.40835 11.7771 7.307 11.7771 8.24404ZM9.42174 8.24404C9.42174 7.9317 9.29766 7.63214 9.0768 7.41128C8.85594 7.19042 8.55639 7.06634 8.24404 7.06634C7.9317 7.06634 7.63214 7.19042 7.41128 7.41128C7.19042 7.63214 7.06634 7.9317 7.06634 8.24404C7.06634 8.55639 7.19042 8.85594 7.41128 9.0768C7.63214 9.29766 7.9317 9.42174 8.24404 9.42174C8.55639 9.42174 8.85594 9.29766 9.0768 9.0768C9.29766 8.85594 9.42174 8.55639 9.42174 8.24404Z" fill="black"/>
<path d="M2.3554 0H13.1573C13.7819 0.000133404 14.3809 0.248379 14.8225 0.690133L31.3104 17.178C31.7519 17.6197 32 18.2187 32 18.8432C32 19.4678 31.7519 20.0668 31.3104 20.5085L20.5085 31.3104C20.0668 31.7519 19.4678 32 18.8432 32C18.2187 32 17.6197 31.7519 17.178 31.3104L0.690133 14.8225C0.248379 14.3809 0.000133404 13.7819 0 13.1573V2.3554C0 1.73071 0.248158 1.13161 0.689881 0.689881C1.13161 0.248158 1.73071 0 2.3554 0ZM2.3554 13.1573L18.8432 29.6451L29.6451 18.8432L13.1573 2.3554H2.3554V13.1573Z" fill="black"/>
</svg>
