<svg width="32" height="32" viewBox="0 0 32 32" fill="none" xmlns="http://www.w3.org/2000/svg">
<path d="M24.1396 5L21.0233 8.09791L21.313 8.39701C21.1066 8.56271 20.8977 8.72437 20.695 8.8679C20.3678 9.10027 20.0536 9.28666 19.8407 9.37408C19.8269 9.38017 19.7691 9.39632 19.6542 9.39582C19.4707 9.39781 19.1637 9.35134 18.7877 9.2943C18.4101 9.2377 17.9583 9.17613 17.4491 9.17557C17.0049 9.17408 16.515 9.22764 15.9992 9.36855C15.4844 9.22813 14.9955 9.17557 14.5524 9.17613C14.0426 9.17613 13.5909 9.23776 13.2133 9.29486C12.8372 9.3519 12.5308 9.39843 12.3473 9.39638C12.2319 9.39738 12.1745 9.38023 12.1628 9.37464C11.9356 9.28219 11.5931 9.07604 11.2404 8.82093C11.058 8.68908 10.872 8.54457 10.6875 8.39608L10.9767 8.09797L7.86037 5.00006L0 13.0933L3.11631 16.1912L4.0285 15.252L6.042 16.999C6.09837 17.3339 6.20463 17.6502 6.32713 17.9503C6.40688 18.1413 6.49431 18.3252 6.58381 18.4979C6.38913 18.8183 6.28294 19.184 6.28394 19.5548C6.28344 19.9227 6.38506 20.2985 6.59394 20.6324C6.91156 21.1402 7.42031 21.4595 7.96962 21.5605C7.97275 21.9217 8.07337 22.29 8.27812 22.6174C8.66694 23.2388 9.33981 23.5834 10.0259 23.5823C10.0523 23.5823 10.0793 23.5783 10.1056 23.5773C10.1402 23.8662 10.2358 24.1542 10.3994 24.4159C10.7882 25.0373 11.4615 25.3819 12.1466 25.3808C12.2147 25.3808 12.2823 25.3737 12.3509 25.3671C12.3834 25.6273 12.4703 25.887 12.6172 26.1214C12.9714 26.6873 13.5843 27.0015 14.2078 27C14.5442 27.0005 14.8888 26.9095 15.1947 26.7206L16.1289 26.1427C16.3129 26.2609 16.5059 26.365 16.7087 26.4498C17.0863 26.6079 17.4944 26.7049 17.9188 26.7054C18.3843 26.7075 18.8757 26.5807 19.2985 26.2851C19.5739 26.0942 19.8072 25.8324 19.9982 25.5238C20.0277 25.5248 20.0516 25.5299 20.0821 25.5304C20.2757 25.5304 20.4882 25.5016 20.6986 25.4364C20.9105 25.3723 21.1209 25.2762 21.3456 25.1485C21.8812 24.8484 22.2024 24.4068 22.3584 24.0285C22.393 23.9456 22.4179 23.8678 22.4403 23.7925C22.5699 23.7517 22.6939 23.7016 22.8061 23.637C23.2203 23.4 23.4902 23.0398 23.6564 22.6781C23.8231 22.3128 23.8962 21.9334 23.8972 21.5687C23.8972 21.5328 23.8927 21.4979 23.8911 21.4626C24.162 21.3525 24.4054 21.1994 24.6127 21.019C24.8252 20.8341 25.0036 20.6189 25.1362 20.3734C25.2684 20.1289 25.3568 19.849 25.3573 19.5424C25.3578 19.3428 25.3166 19.1326 25.2267 18.9356C25.1977 18.873 25.1566 18.8154 25.1189 18.7573C25.2771 18.4758 25.4381 18.1586 25.5702 17.8161C25.6693 17.5569 25.7527 17.2851 25.8004 16.9997L27.8998 15.1784L28.8837 16.1913L32 13.0933L24.1396 5ZM8.6715 20.003L8.63538 20.0257C8.54138 20.0834 8.44275 20.1091 8.34112 20.1096C8.15256 20.1086 7.97162 20.0172 7.86544 19.8469C7.8075 19.7535 7.78106 19.6549 7.78106 19.5549C7.78206 19.3665 7.87356 19.1876 8.04431 19.082L9.27875 18.3197C9.37275 18.2616 9.47138 18.2364 9.57194 18.2353C9.7615 18.2373 9.94144 18.3273 10.0482 18.4985L10.6839 18.106L10.0482 18.499C10.1061 18.5919 10.132 18.6899 10.1326 18.79C10.1315 18.9214 10.0843 19.0467 9.99894 19.1477L8.93875 19.8024C8.84225 19.862 8.75431 19.9312 8.6715 20.003ZM10.3196 22.0101C10.2256 22.0677 10.1269 22.094 10.0258 22.094C9.83675 22.093 9.65588 22.0021 9.54963 21.8318C9.49163 21.7384 9.46575 21.6393 9.46525 21.5393C9.46569 21.409 9.513 21.2837 9.59787 21.1837L10.6585 20.5274C10.7546 20.4683 10.8415 20.3996 10.9243 20.3279L10.9629 20.3046C11.0569 20.2466 11.1561 20.2208 11.2562 20.2208C11.4462 20.2218 11.6256 20.3127 11.7323 20.4835C11.7902 20.5769 11.8162 20.6744 11.8167 20.775C11.8157 20.9624 11.7247 21.1422 11.5519 21.2488L10.3196 22.0101ZM13.6732 23.0469L12.4403 23.8087C12.3468 23.8664 12.2482 23.8926 12.1466 23.8926C11.958 23.8916 11.7771 23.8006 11.6709 23.6304C11.6129 23.5364 11.5871 23.4384 11.5865 23.3379C11.5881 23.1494 11.679 22.9711 11.8497 22.865L13.0842 22.1026C13.1782 22.0446 13.2768 22.0193 13.3774 22.0193C13.5669 22.0198 13.7469 22.1107 13.8536 22.2815C13.9115 22.375 13.9374 22.473 13.938 22.5735C13.9369 22.7609 13.846 22.9397 13.6732 23.0469ZM15.5846 24.2896C15.6236 24.3517 15.6404 24.4164 15.6409 24.4841C15.6399 24.6099 15.5794 24.7296 15.4631 24.8019L14.4044 25.4555C14.3414 25.4949 14.2764 25.5116 14.2078 25.5116C14.0808 25.5111 13.9603 25.45 13.8886 25.3358C13.8495 25.2726 13.8327 25.208 13.8322 25.1404C13.8337 25.0135 13.8942 24.8948 14.0085 24.824H14.009L15.0686 24.1693C15.1332 24.1294 15.1978 24.1127 15.2653 24.1127C15.3929 24.1137 15.5123 24.1738 15.5839 24.2885L16.2202 23.8965L15.5846 24.2896ZM23.8169 19.6695C23.7626 19.7741 23.6386 19.9105 23.4816 20.006C23.3245 20.1025 23.1421 20.1591 22.9673 20.1586C22.9052 20.1586 22.8452 20.1691 22.7868 20.1843C22.6801 20.1611 22.5733 20.1288 22.4682 20.0873C22.1424 19.961 21.8381 19.7564 21.6231 19.5836C21.5153 19.4973 21.4299 19.4195 21.373 19.3654L21.31 19.3033L21.2962 19.2891L21.2942 19.2871H21.2938C21.0843 19.0608 20.7296 19.0456 20.5014 19.2538C20.2733 19.462 20.2575 19.8146 20.4674 20.0429C20.4862 20.0621 20.7683 20.3682 21.2302 20.6835C21.462 20.8411 21.7389 21.0018 22.0576 21.1261C22.1312 21.1549 22.208 21.1816 22.2868 21.2059C22.3087 21.2549 22.3366 21.3014 22.3696 21.3453L22.3681 21.3464C22.3722 21.3494 22.4027 21.4454 22.4001 21.5687C22.4038 21.7743 22.3285 22.0436 22.2202 22.1921C22.1674 22.2679 22.1136 22.3158 22.0613 22.3456C22.0079 22.375 21.954 22.3942 21.8529 22.3957L21.8167 22.3952C21.7954 22.3942 21.7751 22.3977 21.7542 22.3987C21.7533 22.3987 21.7528 22.3987 21.7528 22.3987C21.2659 22.4008 20.8126 22.1931 20.4782 21.9658C20.3115 21.8536 20.1778 21.7394 20.0879 21.6556C20.0436 21.6142 20.0096 21.5798 19.9888 21.5586L19.9669 21.5354L19.9634 21.5309H19.9629C19.7601 21.2995 19.4069 21.2742 19.1726 21.4758C18.9378 21.6779 18.9124 22.03 19.1157 22.2634L19.1152 22.2629C19.1371 22.2872 19.3962 22.5842 19.8471 22.8894C20.1438 23.0889 20.5311 23.2955 20.991 23.4147C20.9859 23.4279 20.9829 23.441 20.9767 23.4542C20.9178 23.5865 20.8334 23.7229 20.6038 23.8563C20.4487 23.9443 20.3379 23.9902 20.2602 24.0134C20.1819 24.0367 20.1382 24.0413 20.0823 24.0417C20.0097 24.0427 19.9004 24.0265 19.7184 23.9896C19.6854 23.9826 19.6524 23.9806 19.6194 23.9786C19.6071 23.9735 19.5955 23.9689 19.5823 23.9624C19.3962 23.8754 19.1696 23.7183 19.0024 23.5845C18.9185 23.5183 18.8474 23.4577 18.7986 23.4147L18.7437 23.3652L18.731 23.3531L18.7284 23.3511C18.5043 23.1379 18.1486 23.146 17.9341 23.3688C17.7202 23.5916 17.7283 23.9452 17.9524 24.1579C17.9641 24.1684 18.2004 24.3939 18.5317 24.6303C18.5907 24.6717 18.6558 24.7136 18.7208 24.755C18.6293 24.9 18.5338 24.9996 18.4403 25.0657C18.2909 25.1678 18.1283 25.2163 17.9189 25.2173C17.7314 25.2178 17.5108 25.1719 17.2903 25.0789C17.2171 25.0486 17.1454 25.0057 17.0732 24.9658C17.1154 24.8091 17.1388 24.647 17.1383 24.4843C17.1388 24.1493 17.0463 23.8068 16.8563 23.5031C16.5336 22.9873 15.9954 22.6842 15.4318 22.6347C15.4318 22.6144 15.4353 22.5943 15.4353 22.5735C15.4358 22.2063 15.3341 21.8294 15.1257 21.4959V21.497C14.7365 20.8736 14.0626 20.529 13.3775 20.5305C13.3511 20.5305 13.3241 20.535 13.2978 20.5361C13.2632 20.2466 13.1676 19.9596 13.0041 19.6979H13.0045C12.6869 19.1892 12.1777 18.87 11.6283 18.7699C11.6248 18.4087 11.5247 18.0403 11.3198 17.713H11.3203C10.9316 17.0911 10.2571 16.746 9.57206 16.747C9.20156 16.747 8.824 16.8481 8.48806 17.0552L7.76694 17.5008C7.74963 17.4614 7.72781 17.423 7.71206 17.3836C7.58656 17.085 7.50775 16.7905 7.49913 16.5874L7.48238 16.2732L5.07 14.1797L9.64375 9.47063C9.87756 9.66112 10.1174 9.85006 10.3634 10.0269C10.771 10.3189 11.175 10.5766 11.5877 10.7493C11.8525 10.858 12.1106 10.8847 12.3475 10.8852C12.7266 10.8837 13.0742 10.8191 13.4366 10.7665C13.4599 10.7625 13.4843 10.7605 13.5082 10.7569C13.0102 11.1817 12.5756 11.6415 12.2082 12.0694C11.8987 12.4307 11.6375 12.7711 11.4306 13.049C11.2264 13.3254 11.0688 13.5482 10.9997 13.6361C10.6592 14.0766 10.5129 14.6035 10.5098 15.1314C10.5113 15.6225 10.6424 16.1337 10.9829 16.5657C11.1527 16.7794 11.3783 16.9663 11.6476 17.0937C11.9165 17.222 12.2244 17.2876 12.5451 17.2876C12.9431 17.2866 13.3602 17.1906 13.8019 17.0062C15.1883 16.4232 16.6174 16.0347 17.6927 15.7952C18.2304 15.676 18.6801 15.5932 18.9937 15.5411C19.0527 15.5315 19.1019 15.5234 19.1507 15.5154L23.8552 19.547L23.8572 19.548L23.8587 19.5505C23.8581 19.565 23.8509 19.6069 23.8169 19.6695ZM24.3612 16.2731L24.3449 16.5874C24.3363 16.7672 24.2748 17.0208 24.1716 17.2835C24.1192 17.4209 24.0553 17.5594 23.9882 17.6957L19.8682 14.1654C19.7081 14.028 19.4947 13.9643 19.2848 13.9906C19.2483 13.9977 16.2264 14.3746 13.2194 15.6346C12.9201 15.7603 12.6954 15.7992 12.545 15.7982C12.4226 15.7982 12.3478 15.7765 12.2924 15.7502C12.2121 15.7113 12.1547 15.6562 12.0978 15.5506C12.0434 15.4466 12.0063 15.293 12.0069 15.1314C12.0038 14.899 12.0872 14.6625 12.1806 14.5505C12.2971 14.4009 12.4393 14.1968 12.6355 13.9331C12.9266 13.541 13.3221 13.0338 13.7936 12.5402C14.2642 12.0466 14.8116 11.5687 15.3853 11.2332C16.1614 10.7801 16.8226 10.6664 17.4492 10.6644C17.8349 10.6639 18.2048 10.7118 18.5657 10.7659C18.9275 10.8189 19.2761 10.8826 19.6542 10.8846C19.8906 10.8841 20.1472 10.8573 20.411 10.7502L20.4145 10.7492C20.8272 10.5764 21.2312 10.3188 21.6388 10.0268C21.8832 9.85093 22.1241 9.661 22.3569 9.47106L26.8591 14.1063L24.3612 16.2731Z" fill="black"/>
</svg>
