<svg width="32" height="32" viewBox="0 0 32 32" fill="none" xmlns="http://www.w3.org/2000/svg">
<g clip-path="url(#clip0_2378_5412)">
<path d="M16 6C16.7956 6 17.5587 5.68393 18.1213 5.12132C18.6839 4.55871 19 3.79565 19 3C19 2.20435 18.6839 1.44129 18.1213 0.87868C17.5587 0.31607 16.7956 0 16 0C15.2044 0 14.4413 0.31607 13.8787 0.87868C13.3161 1.44129 13 2.20435 13 3C13 3.79565 13.3161 4.55871 13.8787 5.12132C14.4413 5.68393 15.2044 6 16 6Z" fill="black"/>
<path d="M11.8597 13.4072L10.1677 30.3092C10.1138 30.7131 10.2227 31.1219 10.4702 31.4455C10.7178 31.7692 11.0838 31.9813 11.4877 32.0352C11.8916 32.089 12.3004 31.9802 12.6241 31.7326C12.9477 31.4851 13.1598 31.1191 13.2137 30.7152L14.8337 20.9852C14.8783 20.7083 15.02 20.4563 15.2335 20.2745C15.447 20.0926 15.7182 19.9927 15.9987 19.9927C16.2791 19.9927 16.5504 20.0926 16.7639 20.2745C16.9774 20.4563 17.1191 20.7083 17.1637 20.9852L18.7837 30.7152C18.8375 31.1191 19.0496 31.4851 19.3733 31.7326C19.697 31.9802 20.1058 32.089 20.5097 32.0352C20.9136 31.9813 21.2796 31.7692 21.5271 31.4455C21.7747 31.1219 21.8835 30.7131 21.8297 30.3092L20.1397 13.4072C20.0968 12.9672 20.1516 12.5232 20.3003 12.1069C20.449 11.6907 20.6878 11.3124 20.9997 10.9992L25.9997 4.56716C26.2464 4.23696 26.3555 3.82391 26.3039 3.41493C26.2523 3.00595 26.0441 2.63293 25.7231 2.37434C25.4021 2.11576 24.9932 1.99178 24.5827 2.02848C24.1721 2.06519 23.7917 2.25973 23.5217 2.57116L19.2677 7.67916C19.0988 7.89745 18.8692 8.06097 18.6077 8.14916C18.1477 8.29716 17.2777 8.50116 15.9997 8.50116C14.7197 8.50116 13.8517 8.29716 13.3897 8.14916C13.1289 8.06062 12.9 7.89714 12.7317 7.67916L8.47768 2.57116C8.21019 2.25106 7.82775 2.04875 7.41263 2.00772C6.99751 1.9667 6.58287 2.09025 6.2579 2.35179C5.93293 2.61334 5.7236 2.99199 5.67494 3.40628C5.62627 3.82058 5.74216 4.23743 5.99768 4.56716L10.9977 10.9992C11.6317 11.6312 11.9497 12.5152 11.8597 13.4072Z" fill="black"/>
</g>
<defs>
<clipPath id="clip0_2378_5412">
<rect width="32" height="32" fill="white"/>
</clipPath>
</defs>
</svg>
