<svg width="87" height="64" viewBox="0 0 87 64" fill="none" xmlns="http://www.w3.org/2000/svg">
<path d="M53.1151 0.273438C46.2753 0.273438 40.7305 5.79886 40.7305 12.6148C40.7305 15.8879 42.0353 19.027 44.3579 21.3415L62.6623 39.582C63.2615 40.179 64.2331 40.179 64.8323 39.582L83.1366 21.3415C85.4592 19.027 86.7641 15.8879 86.7641 12.6148C86.7641 5.79886 81.2192 0.273438 74.3795 0.273438C71.0948 0.273438 67.9447 1.57368 65.6221 3.88814L63.7473 5.75641L61.8724 3.88814C59.5499 1.57368 56.3998 0.273438 53.1151 0.273438Z" fill="url(#paint0_linear_2423_9287)"/>
<path d="M29.7369 60.0874C29.7357 61.419 30.0708 62.7292 30.7111 63.8967H6.44885C4.982 63.8932 3.57621 63.309 2.53899 62.2718C1.50176 61.2345 0.917523 59.8288 0.914062 58.3619V50.0619C0.924436 46.3959 2.38536 42.883 4.97764 40.2907C7.56992 37.6984 11.0828 36.2375 14.7489 36.2271H38.6791C39.1857 37.9217 40.0116 39.5038 41.1123 40.8882C37.9317 41.4348 35.0464 43.0871 32.9652 45.5535C30.8841 48.0199 29.7407 51.142 29.7369 54.3692V60.0874ZM27.1989 32.0771C24.403 32.0771 21.6699 31.248 19.3452 29.6947C17.0205 28.1414 15.2086 25.9337 14.1387 23.3506C13.0688 20.7675 12.7888 17.9252 13.3343 15.1831C13.8797 12.4409 15.2261 9.92208 17.203 7.94509C19.18 5.96811 21.6989 4.62177 24.441 4.07632C27.1832 3.53087 30.0255 3.81081 32.6085 4.88075C35.1916 5.95069 37.3994 7.76256 38.9527 10.0872C40.506 12.4119 41.3351 15.145 41.3351 17.9409C41.3351 21.6901 39.8457 25.2857 37.1947 27.9367C34.5436 30.5878 30.948 32.0771 27.1989 32.0771ZM70.0836 60.0874C70.0802 61.0966 69.6777 62.0635 68.9641 62.7772C68.2505 63.4908 67.2836 63.8932 66.2744 63.8967H37.6962C36.687 63.8932 35.7201 63.4908 35.0064 62.7772C34.2928 62.0635 33.8904 61.0966 33.8869 60.0874V54.3692C33.895 51.8459 34.9009 49.4284 36.6851 47.6442C38.4693 45.86 40.8868 44.8541 43.4101 44.846H60.5561C63.0793 44.8541 65.4969 45.86 67.2811 47.6442C69.0653 49.4284 70.0712 51.8459 70.0793 54.3692L70.0836 60.0874ZM61.7181 32.2519C61.7181 34.1768 61.1473 36.0586 60.0778 37.6591C59.0084 39.2597 57.4883 40.5072 55.7099 41.2438C53.9314 41.9805 51.9745 42.1732 50.0865 41.7977C48.1985 41.4221 46.4643 40.4952 45.1031 39.134C43.742 37.7728 42.815 36.0386 42.4394 34.1506C42.0639 32.2626 42.2566 30.3057 42.9933 28.5273C43.73 26.7488 44.9774 25.2287 46.578 24.1593C48.1786 23.0898 50.0603 22.519 51.9853 22.519C54.5666 22.519 57.0422 23.5444 58.8674 25.3697C60.6927 27.195 61.7181 29.6705 61.7181 32.2519Z" fill="url(#paint1_linear_2423_9287)"/>
<defs>
<linearGradient id="paint0_linear_2423_9287" x1="77.3481" y1="6.89949" x2="53.2851" y2="36.1936" gradientUnits="userSpaceOnUse">
<stop/>
<stop offset="0.850518" stop-color="white"/>
</linearGradient>
<linearGradient id="paint1_linear_2423_9287" x1="23.293" y1="18.4095" x2="61.3056" y2="63.7457" gradientUnits="userSpaceOnUse">
<stop/>
<stop offset="1" stop-color="white"/>
</linearGradient>
</defs>
</svg>
