<svg width="67" height="67" viewBox="0 0 67 67" fill="none" xmlns="http://www.w3.org/2000/svg">
<path d="M44.6134 15.9509C44.6324 15.8694 44.6637 15.7232 44.6637 15.6361V8.93636C44.6637 8.31887 44.1645 7.81974 43.547 7.81974C42.9296 7.81974 42.4304 8.31887 42.4304 8.93636V13.9578C39.9683 12.1801 36.9568 11.1696 33.6985 11.1696C33.6661 11.1696 33.6326 11.1696 33.6013 11.1696C31.1459 11.1696 28.8378 11.7558 26.7978 12.8211V7.81974C26.7978 7.20225 26.2975 6.70312 25.6812 6.70312C25.0648 6.70312 24.5645 7.20225 24.5645 7.81974V14.2582C21.0003 17.0173 18.7034 21.4704 18.7347 26.3154C18.7872 34.5326 25.4891 41.3183 33.6951 41.3183C33.7275 41.3183 33.761 41.3183 33.7923 41.3183C42.043 41.3183 48.7125 34.3729 48.6589 26.1222C48.6343 22.2141 47.0934 18.6029 44.6134 15.9509ZM33.7778 39.085C33.7498 39.085 33.723 39.085 33.6951 39.085C26.714 39.085 21.0126 33.3166 20.9679 26.3254C20.9221 19.3075 26.5968 13.4028 33.6147 13.4028C33.6426 13.4028 33.6694 13.4028 33.6974 13.4028C40.6785 13.4028 46.3799 19.1713 46.4246 26.1624C46.4703 33.1803 40.7968 39.085 33.7778 39.085Z" fill="black"/>
<path d="M25.6791 0C25.0627 0 24.5625 0.499128 24.5625 1.11662V3.34985C24.5625 3.96734 25.0627 4.46647 25.6791 4.46647C26.2955 4.46647 26.7957 3.96734 26.7957 3.34985V1.11662C26.7957 0.499128 26.2955 0 25.6791 0Z" fill="black"/>
<path d="M43.5463 1.10938C42.9288 1.10938 42.4297 1.6085 42.4297 2.22599V4.45923C42.4297 5.07672 42.9288 5.57584 43.5463 5.57584C44.1638 5.57584 44.6629 5.07672 44.6629 4.45923V2.22599C44.6629 1.6085 44.1638 1.10938 43.5463 1.10938Z" fill="black"/>
<path d="M13.4018 25.6875C12.7854 25.6875 12.2852 26.1866 12.2852 26.8041V35.7371C12.2852 36.3545 12.7854 36.8537 13.4018 36.8537C14.0181 36.8537 14.5184 36.3545 14.5184 35.7371V26.8041C14.5184 26.1866 14.0181 25.6875 13.4018 25.6875Z" fill="black"/>
<path d="M13.4018 18.9844C12.7854 18.9844 12.2852 19.4835 12.2852 20.101V22.3342C12.2852 22.9517 12.7854 23.4508 13.4018 23.4508C14.0181 23.4508 14.5184 22.9517 14.5184 22.3342V20.101C14.5184 19.4835 14.0181 18.9844 13.4018 18.9844Z" fill="black"/>
<path d="M55.8354 15.6406C55.2179 15.6406 54.7188 16.1398 54.7188 16.7572V25.6902C54.7188 26.3077 55.2179 26.8068 55.8354 26.8068C56.4529 26.8068 56.952 26.3077 56.952 25.6902V16.7572C56.952 16.1398 56.4529 15.6406 55.8354 15.6406Z" fill="black"/>
<path d="M55.8354 8.9375C55.2179 8.9375 54.7188 9.43663 54.7188 10.0541V12.2874C54.7188 12.9048 55.2179 13.404 55.8354 13.404C56.4529 13.404 56.952 12.9048 56.952 12.2874V10.0541C56.952 9.43663 56.4529 8.9375 55.8354 8.9375Z" fill="black"/>
<path d="M37.9481 28.9825L37.9403 27.867C37.9347 26.9715 37.5818 26.1329 36.9443 25.5043C36.3067 24.8767 35.429 24.515 34.5692 24.5451L32.336 24.5663C32.3337 24.5663 32.3315 24.5663 32.3293 24.5663C31.7174 24.5663 31.216 24.0627 31.2127 23.4497L31.206 22.3309C31.2026 21.7145 31.6995 21.2087 32.3159 21.2053L33.4057 21.1975C33.4414 21.1997 33.4727 21.2165 33.5107 21.2165C33.5129 21.2165 33.5151 21.2165 33.5173 21.2165C33.5553 21.2165 33.5877 21.1975 33.6245 21.1941L36.7801 21.174C37.3976 21.1696 37.8945 20.6883 37.89 20.0719C37.8856 19.4567 37.3875 18.9832 36.7734 18.9832C36.7712 18.9832 36.7689 18.9832 36.7667 18.9832L34.6195 18.9754L34.6128 17.87C34.6094 17.2558 34.1092 16.75 33.4961 16.75C33.4939 16.75 33.4917 16.75 33.4894 16.75C32.8731 16.7545 32.3762 17.2648 32.3795 17.8811L32.3862 18.9832H32.3014C30.4545 18.9832 28.9616 20.4996 28.9727 22.3476L28.9794 23.4676C28.9917 25.3078 30.4924 26.7996 32.3304 26.7996C32.3371 26.7996 32.3449 26.7996 32.3516 26.7996H34.5848C34.5871 26.7996 34.5893 26.7996 34.5915 26.7996C34.8863 26.7996 35.1644 26.9 35.3765 27.1066C35.5876 27.3165 35.7059 27.589 35.7082 27.8883L35.716 29.0004C35.7204 29.6168 35.2224 30.1193 34.6061 30.1226L30.1396 30.1505C29.5232 30.155 29.0263 30.6575 29.0297 31.2738C29.033 31.888 29.5333 32.3826 30.1463 32.3826C30.1485 32.3826 30.1508 32.3826 30.153 32.3826L32.3862 32.3681L32.3929 33.5071C32.3963 34.1212 32.8965 34.6159 33.5095 34.6159C33.5118 34.6159 33.514 34.6159 33.5162 34.6159C34.1326 34.6114 34.6306 34.1089 34.6262 33.4914L34.6195 32.3536C36.4663 32.3413 37.9593 30.8305 37.9481 28.9825Z" fill="black"/>
<path d="M25.6791 27.9207C26.2958 27.9207 26.7957 27.4208 26.7957 26.8041C26.7957 26.1874 26.2958 25.6875 25.6791 25.6875C25.0624 25.6875 24.5625 26.1874 24.5625 26.8041C24.5625 27.4208 25.0624 27.9207 25.6791 27.9207Z" fill="black"/>
<path d="M41.3197 27.9207C41.9364 27.9207 42.4364 27.4208 42.4364 26.8041C42.4364 26.1874 41.9364 25.6875 41.3197 25.6875C40.7031 25.6875 40.2031 26.1874 40.2031 26.8041C40.2031 27.4208 40.7031 27.9207 41.3197 27.9207Z" fill="black"/>
<path d="M65.8843 43.5469H53.6015C52.1477 43.5469 50.9194 44.4837 50.4571 45.7801H44.8674C44.2633 45.7801 43.7775 46.2614 43.7574 46.861L34.4415 44.7472C33.7693 44.5954 33.0714 44.6479 32.4294 44.9036L23.6862 48.3718C22.5573 48.8195 21.7299 49.7285 21.3894 50.8272L4.31517 45.8192C3.27448 45.5166 2.18243 45.7098 1.3204 46.3552C0.484052 46.9827 0.00390625 47.9341 0.00390625 48.9669V51.3889C0.00390625 52.4966 0.566681 53.5216 1.50799 54.1302L13.9125 62.1575C14.0219 62.2279 14.1436 62.2792 14.2709 62.3083L32.7398 66.5257C32.9899 66.5838 33.2467 66.6117 33.5024 66.6117C33.7592 66.6117 34.0149 66.5838 34.2651 66.5257L43.9852 64.2959C44.1873 64.5717 44.4989 64.7626 44.8685 64.7626H50.4583C50.9205 66.059 52.1488 66.9958 53.6026 66.9958H65.8854C66.5029 66.9958 67.0021 66.4967 67.0021 65.8792V44.6635C67.0009 44.046 66.5018 43.5469 65.8843 43.5469ZM43.4816 62.1207L33.7648 64.3495C33.594 64.3897 33.412 64.3897 33.2389 64.3495L14.961 60.1755L2.72064 52.2543C2.41803 52.0577 2.23714 51.735 2.23714 51.3878V48.9658C2.23714 48.5236 2.50066 48.2612 2.65811 48.144C2.95289 47.924 3.32584 47.8548 3.68539 47.9631L21.4139 53.1699C21.9343 54.7086 23.4227 55.8297 25.1725 55.8297H33.5024C34.1188 55.8297 34.619 55.3305 34.619 54.713C34.619 54.0956 34.1188 53.5964 33.5024 53.5964H25.1725C24.2245 53.5964 23.4529 52.8628 23.4529 51.9662C23.4529 51.3029 23.8682 50.7077 24.5114 50.452L33.2545 46.9816C33.4756 46.8934 33.7168 46.8744 33.9491 46.9269L43.5475 49.1043L43.4816 62.1207ZM50.2517 62.5294H45.7852V48.0133H50.2517V62.5294ZM64.7677 64.7626H53.6015C52.9852 64.7626 52.4849 64.2624 52.4849 63.646V46.8967C52.4849 46.2804 52.9852 45.7801 53.6015 45.7801H64.7677V64.7626Z" fill="black"/>
<path d="M60.5016 60.3047H57.1518C56.5343 60.3047 56.0352 60.8038 56.0352 61.4213C56.0352 62.0388 56.5343 62.5379 57.1518 62.5379H60.5016C61.1191 62.5379 61.6182 62.0388 61.6182 61.4213C61.6182 60.8038 61.1191 60.3047 60.5016 60.3047Z" fill="black"/>
</svg>
