<svg width="32" height="32" viewBox="0 0 32 32" fill="none" xmlns="http://www.w3.org/2000/svg">
<path d="M17 11.2031C17 10.9379 16.8946 10.6836 16.7071 10.496C16.5196 10.3085 16.2652 10.2031 16 10.2031C15.7348 10.2031 15.4804 10.3085 15.2929 10.496C15.1054 10.6836 15 10.9379 15 11.2031V17.0031H9C8.73478 17.0031 8.48043 17.1085 8.29289 17.296C8.10536 17.4836 8 17.7379 8 18.0031C8 18.2683 8.10536 18.5227 8.29289 18.7102C8.48043 18.8978 8.73478 19.0031 9 19.0031H16C16.2652 19.0031 16.5196 18.8978 16.7071 18.7102C16.8946 18.5227 17 18.2683 17 18.0031V11.2031Z" fill="black"/>
<path d="M13.0017 2C13.0017 1.73478 13.1071 1.48043 13.2946 1.29289C13.4822 1.10536 13.7365 1 14.0017 1H18.0017C18.2669 1 18.5213 1.10536 18.7088 1.29289C18.8964 1.48043 19.0017 1.73478 19.0017 2C19.0017 2.26522 18.8964 2.51957 18.7088 2.70711C18.5213 2.89464 18.2669 3 18.0017 3V4.14C20.7217 4.532 23.1897 5.7 25.1697 7.42L25.1937 7.394L25.9017 6.686L25.1937 5.98C25.006 5.79249 24.9004 5.53807 24.9002 5.27271C24.9 5.00734 25.0052 4.75277 25.1927 4.565C25.3802 4.37723 25.6347 4.27163 25.9 4.27144C26.1654 4.27126 26.42 4.37649 26.6077 4.564L29.4357 7.394C29.5312 7.48625 29.6074 7.59659 29.6598 7.7186C29.7122 7.8406 29.7398 7.97182 29.741 8.1046C29.7421 8.23738 29.7168 8.36906 29.6665 8.49195C29.6163 8.61485 29.542 8.7265 29.4481 8.82039C29.3542 8.91429 29.2426 8.98854 29.1197 9.03882C28.9968 9.0891 28.8651 9.1144 28.7323 9.11325C28.5995 9.1121 28.4683 9.08451 28.3463 9.0321C28.2243 8.97969 28.114 8.90351 28.0217 8.808L27.3157 8.1L26.6077 8.808L26.5817 8.832C28.6181 11.1827 29.8137 14.1446 29.98 17.2502C30.1463 20.3558 29.2737 23.4284 27.5 25.9831C25.7262 28.5378 23.1523 30.4291 20.1844 31.3587C17.2165 32.2883 14.0236 32.2031 11.1094 31.1167C8.1953 30.0302 5.72587 28.0044 4.09084 25.3588C2.4558 22.7132 1.74824 19.5984 2.07981 16.5061C2.41138 13.4137 3.7632 10.5198 5.92195 8.28101C8.08071 6.04219 10.9235 4.58592 14.0017 4.142V3C13.7365 3 13.4822 2.89464 13.2946 2.70711C13.1071 2.51957 13.0017 2.26522 13.0017 2ZM16.0017 6C14.4259 6.00013 12.8655 6.31065 11.4096 6.91383C9.95374 7.51701 8.63095 8.40103 7.51674 9.51543C5.26649 11.7661 4.00246 14.8184 4.00272 18.001C4.00299 21.1836 5.26753 24.2357 7.51815 26.486C9.76877 28.7362 12.8211 30.0003 16.0037 30C19.1863 29.9997 22.2385 28.7352 24.4887 26.4846C26.739 24.2339 28.003 21.1816 28.0027 17.999C28.0025 14.8164 26.7379 11.7643 24.4873 9.51401C22.2367 7.26376 19.1843 5.99973 16.0017 6Z" fill="black"/>
</svg>
