<svg width="54" height="54" viewBox="0 0 54 54" fill="none" xmlns="http://www.w3.org/2000/svg">
<path d="M46.5967 8.22261C46.5967 8.22261 50.9677 6.51824 50.6034 10.6574C50.482 12.3618 49.3893 18.3271 48.5394 24.7795L45.6254 43.8929C45.6254 43.8929 45.3826 46.6929 43.1971 47.1799C41.0115 47.6668 37.7334 45.4755 37.1262 44.9885C36.6406 44.6233 28.0201 39.1449 24.9847 36.4666C24.1347 35.7362 23.1634 34.2753 25.1061 32.5709L37.8548 20.3968C39.3118 18.9359 40.7688 15.5271 34.6979 19.6663L17.6997 31.2318C17.6997 31.2318 15.7571 32.4492 12.1147 31.3535L4.2226 28.9187C4.2226 28.9187 1.30861 27.0926 6.28667 25.2664C18.4283 19.5445 33.3624 13.7009 46.5967 8.22261Z" fill="black"/>
</svg>
