<svg width="274" height="274" viewBox="0 0 274 274" fill="none" xmlns="http://www.w3.org/2000/svg">
<path d="M270.656 254.501L222.056 205.9C240.221 184.115 251.167 156.109 251.167 125.593C251.167 56.3467 194.83 0.0100098 125.583 0.0100098C56.3367 0.0100098 0 56.3459 0 125.593C0 194.841 56.3367 251.177 125.583 251.177C156.109 251.177 184.123 240.224 205.912 222.048L254.511 270.647C256.74 272.877 259.662 273.991 262.583 273.991C265.504 273.991 268.427 272.877 270.656 270.647C275.115 266.188 275.115 258.96 270.656 254.501ZM72.3055 178.871C72.3055 149.444 96.1595 125.593 125.583 125.593C106.668 125.593 91.3326 110.259 91.3326 91.3426C91.3326 72.4259 106.668 57.0933 125.583 57.0933C144.498 57.0933 159.833 72.4267 159.833 91.3426C159.833 110.258 144.498 125.593 125.583 125.593C155.006 125.593 178.86 149.444 178.86 178.871H72.3055Z" fill="black"/>
</svg>
